<svg xmlns="http://www.w3.org/2000/svg" viewBox="0 0 34.025 36.642">
  <defs>
    <style>
      .cls-1 {
        fill: #b7cbb8;
      }
    </style>
  </defs>
  <g id="calendar-page-empty" transform="translate(-18.276)">
    <path id="Path_276" data-name="Path 276" class="cls-1" d="M51.524,6.012a2.514,2.514,0,0,0-1.84-.777H47.067V3.272a3.151,3.151,0,0,0-.961-2.31A3.151,3.151,0,0,0,43.795,0H42.486a3.15,3.15,0,0,0-2.311.961,3.15,3.15,0,0,0-.961,2.31V5.235H31.363V3.272A3.15,3.15,0,0,0,30.4.961,3.15,3.15,0,0,0,28.091,0H26.782a3.151,3.151,0,0,0-2.311.961,3.151,3.151,0,0,0-.961,2.31V5.235H20.893a2.515,2.515,0,0,0-1.84.777,2.515,2.515,0,0,0-.777,1.84V34.025a2.654,2.654,0,0,0,2.617,2.617h28.79A2.654,2.654,0,0,0,52.3,34.025V7.852A2.516,2.516,0,0,0,51.524,6.012Zm-9.692-2.74a.629.629,0,0,1,.654-.654h1.308a.63.63,0,0,1,.654.654V9.161a.63.63,0,0,1-.654.654H42.486a.629.629,0,0,1-.654-.654Zm-15.7,0a.63.63,0,0,1,.654-.654h1.309a.63.63,0,0,1,.654.654V9.161a.63.63,0,0,1-.654.654H26.782a.63.63,0,0,1-.654-.654ZM49.683,34.025H20.893V13.087h28.79Z"/>
  </g>
</svg>
