<svg xmlns="http://www.w3.org/2000/svg" viewBox="0 0 47.013 38.084">
  <defs>
    <style>
      .cls-1 {
        fill: #2d3b3a;
      }
    </style>
  </defs>
  <g id="cart-of-ecommerce" transform="translate(0 -2.897)">
    <path id="Path_263" data-name="Path 263" class="cls-1" d="M41.322,27.766,46.88,11.131a1.614,1.614,0,0,0-.157-1.6,2.5,2.5,0,0,0-1.991-.82l-31.41-.006-.838-3.977A2.21,2.21,0,0,0,10.24,2.9H1.413C.5,2.9,0,3.325,0,4.181v2.3C0,7.3.5,7.519,1.445,7.519H8.9l5.7,24.217a5.52,5.52,0,0,0,3.809,9.183A5.818,5.818,0,0,0,23.573,36.8H34.683a5.44,5.44,0,0,0,5.16,4.186,5.342,5.342,0,0,0,5.2-5.354c0-2.852-1.733-5.381-5.176-5.381a5.059,5.059,0,0,0-3.918,1.926H22.3A4.325,4.325,0,0,0,18.592,30.1l-.19-1.009H39.171C40.736,29.091,41.045,28.521,41.322,27.766Zm-1.441,5.841a1.957,1.957,0,1,1-1.958,1.957A1.958,1.958,0,0,1,39.881,33.607ZM20.347,35.564a1.979,1.979,0,1,1-1.977-1.982A1.982,1.982,0,0,1,20.347,35.564Z"/>
  </g>
</svg>
