<svg xmlns="http://www.w3.org/2000/svg" viewBox="0 0 26.43 26.43">
  <defs>
    <style>
      .cls-1, .cls-4 {
        fill: #56b05a;
      }

      .cls-2 {
        fill: #f8f8f8;
      }

      .cls-3, .cls-4 {
        stroke: none;
      }
    </style>
  </defs>
  <g id="Group_531" data-name="Group 531" transform="translate(-1878.5 -26.57)">
    <g id="Path_345" data-name="Path 345" class="cls-1" transform="translate(1878.5 26.57)">
      <path class="cls-3" d="M 24.42968368530273 25.92968368530273 L 2.000003814697266 25.92968368530273 C 1.172903776168823 25.92968368530273 0.5000037550926208 25.25678443908691 0.5000037550926208 24.42968368530273 L 0.5000037550926208 2.000003814697266 C 0.5000037550926208 1.172903776168823 1.172903776168823 0.5000037550926208 2.000003814697266 0.5000037550926208 L 24.42968368530273 0.5000037550926208 C 25.25678443908691 0.5000037550926208 25.92968368530273 1.172903776168823 25.92968368530273 2.000003814697266 L 25.92968368530273 24.42968368530273 C 25.92968368530273 25.25678443908691 25.25678443908691 25.92968368530273 24.42968368530273 25.92968368530273 Z"/>
      <path class="cls-4" d="M 2.000003814697266 1.000003814697266 C 1.448604583740234 1.000003814697266 1.000003814697266 1.448604583740234 1.000003814697266 2.000003814697266 L 1.000003814697266 24.42968368530273 C 1.000003814697266 24.98108291625977 1.448604583740234 25.42968368530273 2.000003814697266 25.42968368530273 L 24.42968368530273 25.42968368530273 C 24.98108291625977 25.42968368530273 25.42968368530273 24.98108291625977 25.42968368530273 24.42968368530273 L 25.42968368530273 2.000003814697266 C 25.42968368530273 1.448604583740234 24.98108291625977 1.000003814697266 24.42968368530273 1.000003814697266 L 2.000003814697266 1.000003814697266 M 2.000003814697266 3.814697265625e-06 L 24.42968368530273 3.814697265625e-06 C 25.53425407409668 3.814697265625e-06 26.42968368530273 0.8954334259033203 26.42968368530273 2.000003814697266 L 26.42968368530273 24.42968368530273 C 26.42968368530273 25.53425407409668 25.53425407409668 26.42968368530273 24.42968368530273 26.42968368530273 L 2.000003814697266 26.42968368530273 C 0.8954334259033203 26.42968368530273 3.814697265625e-06 25.53425407409668 3.814697265625e-06 24.42968368530273 L 3.814697265625e-06 2.000003814697266 C 3.814697265625e-06 0.8954334259033203 0.8954334259033203 3.814697265625e-06 2.000003814697266 3.814697265625e-06 Z"/>
    </g>
    <path id="if_Close_1031533" class="cls-2" d="M12.3,11.508,16.836,7a.546.546,0,0,0,0-.779.559.559,0,0,0-.786,0l-4.533,4.508L6.942,6.151a.557.557,0,0,0-.786.788l4.571,4.572L6.139,16.074a.547.547,0,0,0,0,.779.559.559,0,0,0,.786,0l4.584-4.559,4.556,4.557a.557.557,0,0,0,.786-.788Z" transform="translate(1880.232 28.291)"/>
  </g>
</svg>
