<svg xmlns="http://www.w3.org/2000/svg" viewBox="0 0 229.1 206.559">
  <defs>
    <style>
      .cls-1 {
        fill: #cecece;
      }

      .cls-2 {
        fill: #e6e6e6;
      }

      .cls-3 {
        fill: #fff;
      }

      .cls-4 {
        fill: #56b05a;
      }

      .cls-5 {
        fill: #4d3b51;
      }

      .cls-6 {
        fill: #bfbfbf;
      }
    </style>
  </defs>
  <g id="Group_415" data-name="Group 415" transform="translate(-6992 -227)">
    <rect id="Rectangle_1193" data-name="Rectangle 1193" class="cls-1" width="12" height="3" transform="translate(7138.1 238.887)"/>
    <rect id="Rectangle_1194" data-name="Rectangle 1194" class="cls-1" width="3" height="12" transform="translate(7142.6 234.887)"/>
    <rect id="Rectangle_1195" data-name="Rectangle 1195" class="cls-2" width="12" height="3" transform="translate(7023.1 281.887)"/>
    <rect id="Rectangle_1196" data-name="Rectangle 1196" class="cls-2" width="3" height="12" transform="translate(7027.6 277.887)"/>
    <rect id="Rectangle_1197" data-name="Rectangle 1197" class="cls-1" width="12" height="3" transform="translate(7209.1 330.887)"/>
    <rect id="Rectangle_1198" data-name="Rectangle 1198" class="cls-1" width="3" height="12" transform="translate(7213.6 326.887)"/>
    <path id="Path_315" data-name="Path 315" class="cls-3" d="M581.342,361c3.475,20.317,9.154,41.18,17.307,42.477,16.728,2.661,86.28.01,86.98-.018a1.476,1.476,0,0,1,.415.042c.466-.117,5.308-2.038,9.8-30.582.688-4.37,1.314-8.326,1.889-11.919,2.869-17.963,4.369-26.628,4.972-30H577.538C578.151,338.5,579.4,349.667,581.342,361Zm84.537-9.849A5.028,5.028,0,0,1,667.326,361a5.042,5.042,0,0,1-6.489-4.806A5.043,5.043,0,0,1,665.879,351.151Zm-36.47,24.091c.11-.183,2.784-4.468,9.962-4.689a14.777,14.777,0,0,1,10.966,3.955,1.5,1.5,0,0,1-2.209,2.031,11.637,11.637,0,0,0-8.666-2.986c-5.465.168-7.416,3.131-7.5,3.257a1.514,1.514,0,0,1-1.276.7,1.5,1.5,0,0,1-1.281-2.267Zm-13.53-24.091A5.028,5.028,0,0,1,617.327,361a5.043,5.043,0,0,1-6.49-4.806A5.043,5.043,0,0,1,615.879,351.151Z" transform="translate(6461.1 25.887)"/>
    <path id="Path_316" data-name="Path 316" class="cls-4" d="M704.5,302H681.645l5.568,7.456a4.976,4.976,0,0,1,1.666-.3,5.076,5.076,0,1,1-4.074,2.094L677.9,302H601.117l-7.1,9.042a1.511,1.511,0,0,1-.124.129,5.18,5.18,0,1,1-2.394-1.73,1.556,1.556,0,0,1,.159-.251L597.3,302H572.5A10.512,10.512,0,0,0,562,312.5v5A10.512,10.512,0,0,0,572.5,328h132A10.512,10.512,0,0,0,715,317.5v-5A10.513,10.513,0,0,0,704.5,302Z" transform="translate(6461.1 25.887)"/>
    <path id="Path_317" data-name="Path 317" class="cls-5" d="M704.5,299H679.4l-23.152-31L641.7,248.52a1.5,1.5,0,0,0-1.184-.6,1.466,1.466,0,0,0-1.2.574L624,268l-24.342,31H572.5A13.515,13.515,0,0,0,559,312.5v5A13.515,13.515,0,0,0,572.5,331h2.028c.382,4.716,1.49,16.825,3.7,30,3.461,20.6,9.625,43.8,19.945,45.439,5.815.926,17.546,1.233,30.586,1.233,24.445,0,53.487-1.082,56.769-1.208a3.219,3.219,0,0,0,2.177-.427c4.328-2.371,8.062-13.357,11.1-32.653.717-4.56,1.369-8.67,1.963-12.385,3.006-18.8,4.485-27.243,4.994-30.064A13.513,13.513,0,0,0,718,317.5v-5A13.515,13.515,0,0,0,704.5,299Zm-76.685-31,12.655-16.116L652.507,268l23.152,31H603.473Zm69.915,93c-.574,3.593-1.2,7.549-1.889,11.919-4.49,28.544-9.332,30.465-9.8,30.582a1.475,1.475,0,0,0-.415-.042c-.7.027-70.253,2.679-86.98.018-8.153-1.3-13.832-22.159-17.307-42.477-1.938-11.333-3.191-22.5-3.8-30H702.7C702.1,334.372,700.6,343.037,697.73,361ZM715,317.5A10.512,10.512,0,0,1,704.5,328h-132A10.512,10.512,0,0,1,562,317.5v-5A10.512,10.512,0,0,1,572.5,302h24.8l-5.646,7.19a1.49,1.49,0,0,0-.159.251,5.062,5.062,0,1,0,2.394,1.73,1.52,1.52,0,0,0,.124-.129l7.1-9.042H677.9l6.905,9.246a5.172,5.172,0,1,0,2.408-1.79L681.645,302H704.5A10.512,10.512,0,0,1,715,312.5Z" transform="translate(6461.1 25.887)"/>
    <path id="Path_318" data-name="Path 318" class="cls-5" d="M664.432,361a5.043,5.043,0,0,0,6.49-4.806,5.043,5.043,0,1,0-6.49,4.806Z" transform="translate(6461.1 25.887)"/>
    <path id="Path_319" data-name="Path 319" class="cls-5" d="M614.432,361a5.043,5.043,0,0,0,6.49-4.806,5.043,5.043,0,1,0-6.49,4.806Z" transform="translate(6461.1 25.887)"/>
    <path id="Path_320" data-name="Path 320" class="cls-5" d="M629.905,377.285a1.489,1.489,0,0,0,.785.224,1.513,1.513,0,0,0,1.276-.7c.081-.126,2.031-3.089,7.5-3.257a11.635,11.635,0,0,1,8.666,2.986,1.5,1.5,0,0,0,2.209-2.031,14.776,14.776,0,0,0-10.966-3.955c-7.178.221-9.852,4.506-9.962,4.689A1.492,1.492,0,0,0,629.905,377.285Z" transform="translate(6461.1 25.887)"/>
    <path id="Path_321" data-name="Path 321" class="cls-6" d="M607.618,218.55a8.718,8.718,0,1,0-8.718-8.718A8.728,8.728,0,0,0,607.618,218.55Zm0-14.437a5.718,5.718,0,1,1-5.718,5.719A5.725,5.725,0,0,1,607.618,204.113Z" transform="translate(6461.1 25.887)"/>
    <path id="Path_322" data-name="Path 322" class="cls-1" d="M539.618,286.113a8.718,8.718,0,1,0,8.719,8.719A8.728,8.728,0,0,0,539.618,286.113Zm0,14.437a5.718,5.718,0,1,1,5.719-5.718A5.724,5.724,0,0,1,539.618,300.55Z" transform="translate(6461.1 25.887)"/>
  </g>
</svg>
