<svg xmlns="http://www.w3.org/2000/svg" viewBox="0 0 156.216 147.093">
  <defs>
    <style>
      .cls-1 {
        fill: #cecece;
      }

      .cls-2 {
        fill: #e6e6e6;
      }

      .cls-3 {
        fill: #dcdcdc;
      }

      .cls-4 {
        fill: #b2b2b2;
      }

      .cls-5 {
        fill: #bfbfbf;
      }
    </style>
  </defs>
  <g id="Group_415" data-name="Group 415" transform="translate(-6992 -227)">
    <rect id="Rectangle_1193" data-name="Rectangle 1193" class="cls-1" width="8.182" height="2.136" transform="translate(7091.621 235.465)"/>
    <rect id="Rectangle_1194" data-name="Rectangle 1194" class="cls-1" width="2.046" height="8.545" transform="translate(7094.689 232.616)"/>
    <rect id="Rectangle_1195" data-name="Rectangle 1195" class="cls-2" width="8.182" height="2.136" transform="translate(7013.206 266.086)"/>
    <rect id="Rectangle_1196" data-name="Rectangle 1196" class="cls-2" width="2.046" height="8.545" transform="translate(7016.274 263.237)"/>
    <rect id="Rectangle_1197" data-name="Rectangle 1197" class="cls-1" width="8.182" height="2.136" transform="translate(7140.034 300.979)"/>
    <rect id="Rectangle_1198" data-name="Rectangle 1198" class="cls-1" width="2.046" height="8.545" transform="translate(7143.102 298.131)"/>
    <path id="Path_316" data-name="Path 316" class="cls-3" d="M659.166,302H643.582l3.8,5.31a3.265,3.265,0,0,1,1.136-.216,3.594,3.594,0,1,1-3.438,3.59,3.664,3.664,0,0,1,.66-2.1L641.028,302H588.673l-4.842,6.439a1.059,1.059,0,0,1-.085.092,3.66,3.66,0,0,1,.7,2.152,3.441,3.441,0,1,1-3.438-3.59,3.261,3.261,0,0,1,1.1.207,1.117,1.117,0,0,1,.108-.179l3.85-5.12H569.16a7.332,7.332,0,0,0-7.16,7.477v3.561a7.332,7.332,0,0,0,7.16,7.477h90.007a7.332,7.332,0,0,0,7.16-7.477v-3.561A7.333,7.333,0,0,0,659.166,302Z" transform="translate(6451.206 -3.157)"/>
    <path id="Path_317" data-name="Path 317" class="cls-4" d="M658.212,284.293H641.1l-15.787-22.076-9.92-13.872a1.011,1.011,0,0,0-.807-.429.984.984,0,0,0-.817.409l-10.446,13.893-16.6,22.076H568.205A9.427,9.427,0,0,0,559,293.907v3.561a9.427,9.427,0,0,0,9.205,9.614h1.383c.26,3.358,1.016,11.981,2.526,21.363,2.36,14.667,6.563,31.188,13.6,32.358,3.965.659,11.964.878,20.856.878,16.668,0,36.471-.771,38.709-.86a2.115,2.115,0,0,0,1.484-.3c2.951-1.688,5.5-9.512,7.566-23.253.489-3.247.934-6.174,1.339-8.82,2.05-13.389,3.058-19.4,3.405-21.409a9.472,9.472,0,0,0,8.345-9.567v-3.561A9.427,9.427,0,0,0,658.212,284.293Zm-52.289-22.076,8.629-11.476,8.208,11.476,15.787,22.076H589.325ZM653.6,328.444c-.391,2.559-.819,5.376-1.288,8.488-3.062,20.327-6.363,21.695-6.681,21.778a.965.965,0,0,0-.283-.03c-.477.019-47.9,1.908-59.309.013-5.559-.924-9.432-15.78-11.8-30.248-1.321-8.07-2.176-16.02-2.594-21.363h85.345C656.575,309.482,655.552,315.653,653.6,328.444Zm11.776-30.977a7.332,7.332,0,0,1-7.16,7.477H568.205a7.332,7.332,0,0,1-7.16-7.477v-3.561a7.332,7.332,0,0,1,7.16-7.477h16.913l-3.85,5.12a1.073,1.073,0,0,0-.108.179,3.278,3.278,0,0,0-1.1-.207,3.594,3.594,0,1,0,3.438,3.59,3.66,3.66,0,0,0-.7-2.152,1.068,1.068,0,0,0,.085-.092l4.842-6.439h52.355l4.708,6.584a3.666,3.666,0,0,0-.66,2.1,3.442,3.442,0,1,0,3.438-3.59,3.283,3.283,0,0,0-1.136.216l-3.8-5.31h15.584a7.332,7.332,0,0,1,7.16,7.477Z" transform="translate(6452.161 12.413)"/>
    <path id="Path_318" data-name="Path 318" class="cls-3" d="M663.288,358.165a2.981,2.981,0,0,0,1.973,0,3.561,3.561,0,0,0,2.452-3.422,3.442,3.442,0,1,0-6.877,0A3.561,3.561,0,0,0,663.288,358.165Z" transform="translate(6419.763 -17.307)"/>
    <path id="Path_319" data-name="Path 319" class="cls-3" d="M613.288,358.165a2.983,2.983,0,0,0,1.974,0,3.562,3.562,0,0,0,2.451-3.422,3.442,3.442,0,1,0-6.877,0A3.562,3.562,0,0,0,613.288,358.165Z" transform="translate(6435.669 -17.307)"/>
    <path id="Path_320" data-name="Path 320" class="cls-3" d="M629.679,375.345a.983.983,0,0,0,.535.159,1.021,1.021,0,0,0,.87-.5c.055-.09,1.385-2.2,5.111-2.319a7.764,7.764,0,0,1,5.909,2.126.993.993,0,0,0,1.445.063,1.1,1.1,0,0,0,.061-1.51,9.871,9.871,0,0,0-7.477-2.816c-4.894.157-6.718,3.209-6.793,3.339A1.09,1.09,0,0,0,629.679,375.345Z" transform="translate(7702.902 723.159) rotate(180)"/>
    <path id="Path_321" data-name="Path 321" class="cls-5" d="M604.845,213.53a6.214,6.214,0,1,0-5.945-6.208A6.088,6.088,0,0,0,604.845,213.53Zm0-10.281a4.076,4.076,0,1,1-3.9,4.073A3.993,3.993,0,0,1,604.845,203.249Z" transform="translate(6439.467 25.887)"/>
    <path id="Path_322" data-name="Path 322" class="cls-1" d="M536.844,286.113a6.214,6.214,0,1,0,5.945,6.209A6.088,6.088,0,0,0,536.844,286.113Zm0,10.281a4.076,4.076,0,1,1,3.9-4.072A3.993,3.993,0,0,1,536.844,296.394Z" transform="translate(6461.1 1.417)"/>
  </g>
</svg>
