<svg xmlns="http://www.w3.org/2000/svg" viewBox="0 0 26.375 27.728">
  <defs>
    <style>
      .cls-1 {
        fill: #fff;
      }
    </style>
  </defs>
  <path id="Subtraction_6" data-name="Subtraction 6" class="cls-1" d="M13.679,27.728H3a3,3,0,0,1-3-3V3A3,3,0,0,1,3,0H23.375a3,3,0,0,1,3,3V24.727a3,3,0,0,1-3,3H18.516V17.082h4.034l.6-4.677H18.516V9.419c0-1.367.395-2.277,2.321-2.277h2.48V2.957A33.377,33.377,0,0,0,19.7,2.773c-3.716,0-6.024,2.369-6.024,6.183v3.45H9.635v4.676h4.044V27.727Z" transform="translate(0 0)"/>
</svg>
