<svg xmlns="http://www.w3.org/2000/svg" viewBox="0 0 21.389 21.351"><defs><style>.a{fill:#fff;}</style></defs><g transform="translate(0 -0.448)"><g transform="translate(0 0.448)"><g transform="translate(0 0)"><path class="a" d="M19.994,4.6H18.437a2.477,2.477,0,0,0,.38-1.076A2.769,2.769,0,0,0,14.2,1.171L12.238,2.952a2.089,2.089,0,0,0-3.09,0L7.18,1.17A2.769,2.769,0,0,0,2.568,3.52,2.477,2.477,0,0,0,2.947,4.6H1.395A1.4,1.4,0,0,0,0,5.99V8.082a.7.7,0,0,0,.7.7H20.691a.7.7,0,0,0,.7-.7V5.99A1.4,1.4,0,0,0,19.994,4.6ZM8.6,4.363V4.6H5.321a1.373,1.373,0,0,1-.579-2.619,1.342,1.342,0,0,1,1.5.227L8.6,4.342C8.6,4.349,8.6,4.356,8.6,4.363Zm8.83-1.028A1.413,1.413,0,0,1,16,4.6H12.787V4.363c0-.008,0-.016,0-.025l2.322-2.105a1.4,1.4,0,0,1,1.32-.337A1.357,1.357,0,0,1,17.432,3.334Z" transform="translate(0 -0.448)"/></g></g><g transform="translate(1.395 10.175)"><path class="a" d="M33.391,233.291V243.52a1.4,1.4,0,0,0,1.395,1.395H41.3V233.291Z" transform="translate(-33.391 -233.291)"/></g><g transform="translate(12.089 10.175)"><path class="a" d="M289.391,233.291v11.624h6.51a1.4,1.4,0,0,0,1.395-1.395V233.291Z" transform="translate(-289.391 -233.291)"/></g></g></svg>