<svg xmlns="http://www.w3.org/2000/svg" viewBox="0 0 29.265 29.265"><defs><style>.a{fill:#fff;}</style></defs><path class="a" d="M29.23,13.657A14.628,14.628,0,0,0,15.608.033V0H13.657V.033A14.63,14.63,0,0,0,.033,13.657H0v1.951H.033A14.628,14.628,0,0,0,13.657,29.23v.035h1.951V29.23A14.627,14.627,0,0,0,29.23,15.608h.035V13.657ZM9.16,3.19A15.511,15.511,0,0,0,6.865,7.8H3.943A12.748,12.748,0,0,1,9.16,3.19ZM2.923,9.755h3.43a23.17,23.17,0,0,0-.48,3.9H1.988A12.572,12.572,0,0,1,2.923,9.755Zm-.935,5.853H5.872a23.17,23.17,0,0,0,.48,3.9H2.923A12.572,12.572,0,0,1,1.988,15.608Zm1.955,5.853H6.864a15.467,15.467,0,0,0,2.3,4.614A12.734,12.734,0,0,1,3.943,21.461Zm9.714,5.728c-2.006-.537-3.732-2.69-4.78-5.728h4.78Zm0-7.679H8.329a21.8,21.8,0,0,1-.505-3.9h5.833Zm0-5.853H7.823a21.8,21.8,0,0,1,.505-3.9h5.328Zm0-5.853H8.877c1.048-3.038,2.774-5.192,4.78-5.726Zm11.665,0H22.4A15.47,15.47,0,0,0,20.1,3.19,12.76,12.76,0,0,1,25.322,7.8ZM15.608,2.078c2,.535,3.732,2.688,4.78,5.726h-4.78Zm0,7.677h5.326a21.98,21.98,0,0,1,.507,3.9H15.608Zm0,5.853h5.833a21.626,21.626,0,0,1-.507,3.9H15.608Zm0,11.581V21.461h4.78C19.34,24.5,17.611,26.652,15.608,27.189Zm4.5-1.114a15.586,15.586,0,0,0,2.3-4.614h2.919A12.747,12.747,0,0,1,20.1,26.075Zm6.237-6.565h-3.43a23.17,23.17,0,0,0,.48-3.9h3.882A12.515,12.515,0,0,1,26.342,19.51Zm-2.95-5.853a23.17,23.17,0,0,0-.48-3.9h3.43a12.572,12.572,0,0,1,.935,3.9Z"/></svg>