<svg id="grid-world_1_" data-name="grid-world (1)" xmlns="http://www.w3.org/2000/svg" viewBox="0 0 20 20">
  <defs>
    <style>
      .cls-1 {
        fill: #fff;
      }
    </style>
  </defs>
  <path id="Path_223" data-name="Path 223" class="cls-1" d="M19.976,9.333A10,10,0,0,0,10.667.023V0H9.333V.023A10,10,0,0,0,.023,9.333H0v1.333H.023a10,10,0,0,0,9.311,9.309V20h1.333v-.024a10,10,0,0,0,9.309-9.309H20V9.333ZM6.26,2.18A10.6,10.6,0,0,0,4.692,5.333h-2A8.712,8.712,0,0,1,6.26,2.18ZM2,6.667H4.341a15.834,15.834,0,0,0-.328,2.667H1.359A8.592,8.592,0,0,1,2,6.667Zm-.639,4H4.013a15.835,15.835,0,0,0,.328,2.667H2A8.592,8.592,0,0,1,1.359,10.667Zm1.336,4h2A10.571,10.571,0,0,0,6.26,17.82,8.7,8.7,0,0,1,2.695,14.667Zm6.639,3.915c-1.371-.367-2.551-1.839-3.267-3.915H9.333Zm0-5.248H5.692a14.9,14.9,0,0,1-.345-2.667H9.333Zm0-4H5.347a14.9,14.9,0,0,1,.345-2.667H9.333Zm0-4H6.067c.716-2.076,1.9-3.548,3.267-3.913Zm7.972,0H15.311A10.572,10.572,0,0,0,13.74,2.18,8.721,8.721,0,0,1,17.305,5.333ZM10.667,1.42c1.369.365,2.551,1.837,3.267,3.913H10.667Zm0,5.247h3.64a15.022,15.022,0,0,1,.347,2.667H10.667Zm0,4h3.987a14.78,14.78,0,0,1-.347,2.667h-3.64Zm0,7.915V14.667h3.267C13.217,16.743,12.036,18.215,10.667,18.581Zm3.073-.761a10.652,10.652,0,0,0,1.571-3.153h1.995A8.711,8.711,0,0,1,13.74,17.82ZM18,13.333H15.659a15.835,15.835,0,0,0,.328-2.667H18.64A8.553,8.553,0,0,1,18,13.333Zm-2.016-4a15.835,15.835,0,0,0-.328-2.667H18a8.592,8.592,0,0,1,.639,2.667Z"/>
</svg>
