<svg xmlns="http://www.w3.org/2000/svg" viewBox="0 0 30.538 30.538"><defs><style>.a{fill:#56b05a;}</style></defs><g transform="translate(0)"><g transform="translate(21.702 3.274)"><path class="a" d="M368.693,55.066a.616.616,0,0,0-.431-.182.642.642,0,0,0-.142.016,5.835,5.835,0,0,0-2.811,1.3,7.177,7.177,0,0,0-1.467,3.72,7.178,7.178,0,0,0,3.719-1.467,5.835,5.835,0,0,0,1.3-2.811A.61.61,0,0,0,368.693,55.066Z" transform="translate(-363.843 -54.884)"/></g><g transform="translate(16.788 3.346)"><path class="a" d="M283.576,56.394a.618.618,0,0,0-1.045,0,5.835,5.835,0,0,0-1.071,2.9,7.177,7.177,0,0,0,1.593,3.667,7.177,7.177,0,0,0,1.593-3.667A5.836,5.836,0,0,0,283.576,56.394Z" transform="translate(-281.461 -56.106)"/></g><g transform="translate(19.804 10.036)"><path class="a" d="M338.594,169.332a5.835,5.835,0,0,0-2.9-1.07,7.177,7.177,0,0,0-3.667,1.593,7.177,7.177,0,0,0,3.667,1.593,5.835,5.835,0,0,0,2.9-1.071.618.618,0,0,0,0-1.045Z" transform="translate(-332.022 -168.261)"/></g><g transform="translate(1.891 19.858)"><path class="a" d="M39.3,333.657c-.01-.009-.018-.018-.027-.028l-.025-.025c-.031-.033-.252-.275-.556-.664l-6.725,6.725a.9.9,0,1,0,1.27,1.27l6.724-6.724C39.578,333.908,39.337,333.687,39.3,333.657Z" transform="translate(-31.708 -332.94)"/></g><g transform="translate(12.988 7.482)"><path class="a" d="M219.532,125.732a.618.618,0,0,0-1.045,0,8.786,8.786,0,0,0-.735,1.407l2.642,2.642a3.7,3.7,0,0,0,.208-1.145A5.836,5.836,0,0,0,219.532,125.732Z" transform="translate(-217.753 -125.444)"/></g><g transform="translate(8.502 12.857)"><path class="a" d="M143.081,215.567a4.667,4.667,0,0,0-.545,1.967,7.177,7.177,0,0,0,1.593,3.667,8.5,8.5,0,0,0,1.528-3.059Z" transform="translate(-142.536 -215.567)"/></g><g transform="translate(18.19 14.172)"><path class="a" d="M309.024,238.67a5.835,5.835,0,0,0-2.9-1.071,3.7,3.7,0,0,0-1.145.208l2.642,2.642a8.785,8.785,0,0,0,1.407-.735.618.618,0,0,0,0-1.045Z" transform="translate(-304.975 -237.599)"/></g><g transform="translate(0)"><g transform="translate(0)"><path class="a" d="M30.275,29,1.534.263a.9.9,0,1,0-1.27,1.27L29.005,30.275A.9.9,0,1,0,30.275,29Z" transform="translate(0 0)"/></g></g><g transform="translate(11.518 18.387)"><path class="a" d="M196.157,308.267A8.5,8.5,0,0,0,193.1,309.8a7.177,7.177,0,0,0,3.667,1.593,4.667,4.667,0,0,0,1.967-.545Z" transform="translate(-193.098 -308.267)"/></g></g></svg>