<svg xmlns="http://www.w3.org/2000/svg" viewBox="0 0 30.593 30.045"><defs><style>.a{fill:#56b05a;}</style></defs><g transform="translate(-0.001 -0.491)"><path class="a" d="M9.66,28.165a1.679,1.679,0,1,0,1.679,1.679A1.681,1.681,0,0,0,9.66,28.165Zm0,2.239a.56.56,0,1,1,.56-.56A.56.56,0,0,1,9.66,30.4Z" transform="translate(-3.513 -12.183)"/><path class="a" d="M30.134,3.72a2.751,2.751,0,0,0-1.444-1.1.337.337,0,0,1-.223-.224,2.75,2.75,0,0,0-1.1-1.443,2.818,2.818,0,0,0-3.287.146A2.767,2.767,0,0,0,23.03,3.41a2.146,2.146,0,0,1-.568,1.651L19.018,8.505l-.618.01a3.609,3.609,0,0,0-2.516,1.053,13.682,13.682,0,0,1-8.292,3.857A8.6,8.6,0,0,0,2.45,15.914,8.679,8.679,0,0,0,2.2,27.727a8.517,8.517,0,0,0,6.15,2.806l.206,0a8.581,8.581,0,0,0,8.44-7.059,15.724,15.724,0,0,1,4.481-8.316,3.547,3.547,0,0,0,.441-.546l.584-.872h-1.71a2.487,2.487,0,0,0,.478-.364l4.756-4.755a2.148,2.148,0,0,1,1.652-.568A2.778,2.778,0,0,0,29.99,7.009,2.818,2.818,0,0,0,30.134,3.72ZM15.892,23.278A7.463,7.463,0,0,1,3.026,26.973,7.545,7.545,0,0,1,3.244,16.7a7.373,7.373,0,0,1,4.47-2.163,14.791,14.791,0,0,0,8.96-4.179,2.472,2.472,0,0,1,.938-.586L16.5,13.495l1.966-.655v2.022h1.746A16.711,16.711,0,0,0,15.892,23.278ZM29.115,6.308a1.648,1.648,0,0,1-1.386.629,3.244,3.244,0,0,0-2.5.9l-4.755,4.755a1.358,1.358,0,0,1-.9.4v-1.7l-1.393.465.358-1.192,4.707-4.707a3.248,3.248,0,0,0,.9-2.5,1.658,1.658,0,0,1,.628-1.387,1.706,1.706,0,0,1,1.968-.086,1.641,1.641,0,0,1,.611.746,2.9,2.9,0,0,0-1.478.878.56.56,0,1,0,.833.748,1.772,1.772,0,0,1,1.28-.588.554.554,0,0,0,.216-.048c.046.021.088.047.137.063a1.635,1.635,0,0,1,.86.658A1.709,1.709,0,0,1,29.115,6.308Z" transform="translate(0 0)"/><path class="a" d="M25.567,37.384a.554.554,0,0,0-.649.453,6.722,6.722,0,0,1-.546,1.7.56.56,0,0,0,1.011.48,7.837,7.837,0,0,0,.637-1.985A.56.56,0,0,0,25.567,37.384Z" transform="translate(-10.705 -16.238)"/><path class="a" d="M18.573,43.754a8.008,8.008,0,0,1-4.794,2.763.56.56,0,0,0,.091,1.112.519.519,0,0,0,.092-.008,9.139,9.139,0,0,0,5.474-3.155.56.56,0,1,0-.864-.711Z" transform="translate(-5.859 -18.956)"/></g></svg>