<svg xmlns="http://www.w3.org/2000/svg" viewBox="0 0 34.247 34.249"><defs><style>.a{fill:#afafaf;}</style></defs><path class="a" d="M11.417,17.124a5.708,5.708,0,1,1,5.707,5.709,5.708,5.708,0,0,1-5.707-5.709m-3.086,0a8.793,8.793,0,1,0,8.793-8.793,8.793,8.793,0,0,0-8.793,8.793M24.211,7.983a2.055,2.055,0,1,0,2.056-2.054h0a2.056,2.056,0,0,0-2.055,2.054m-14,23.081a9.465,9.465,0,0,1-3.18-.589,5.322,5.322,0,0,1-1.97-1.281,5.283,5.283,0,0,1-1.281-1.968,9.456,9.456,0,0,1-.589-3.18c-.083-1.805-.1-2.347-.1-6.92s.018-5.114.1-6.92a9.527,9.527,0,0,1,.589-3.18,5.322,5.322,0,0,1,1.281-1.97,5.278,5.278,0,0,1,1.97-1.281,9.456,9.456,0,0,1,3.18-.589c1.805-.083,2.347-.1,6.918-.1s5.114.018,6.92.1a9.527,9.527,0,0,1,3.18.589,5.305,5.305,0,0,1,1.97,1.281,5.305,5.305,0,0,1,1.281,1.97,9.456,9.456,0,0,1,.589,3.18c.083,1.807.1,2.347.1,6.92s-.017,5.114-.1,6.92a9.5,9.5,0,0,1-.589,3.18,5.67,5.67,0,0,1-3.251,3.249,9.456,9.456,0,0,1-3.18.589c-1.805.083-2.347.1-6.92.1s-5.114-.017-6.918-.1M10.064.1A12.557,12.557,0,0,0,5.908.9,8.4,8.4,0,0,0,2.874,2.874,8.367,8.367,0,0,0,.9,5.908a12.56,12.56,0,0,0-.8,4.157c-.084,1.826-.1,2.41-.1,7.06s.019,5.234.1,7.06a12.56,12.56,0,0,0,.8,4.157,8.371,8.371,0,0,0,1.975,3.033A8.42,8.42,0,0,0,5.908,33.35a12.568,12.568,0,0,0,4.157.8c1.827.083,2.41.1,7.06.1s5.234-.019,7.06-.1a12.559,12.559,0,0,0,4.157-.8,8.755,8.755,0,0,0,5.009-5.009,12.525,12.525,0,0,0,.8-4.157c.083-1.827.1-2.41.1-7.06s-.019-5.234-.1-7.06a12.556,12.556,0,0,0-.8-4.157,8.421,8.421,0,0,0-1.975-3.033A8.379,8.379,0,0,0,28.342.9,12.54,12.54,0,0,0,24.186.1C22.36.021,21.776,0,17.126,0s-5.235.019-7.061.1" transform="translate(0 0)"/><path class="a" d="M11.417,17.124a5.708,5.708,0,1,1,5.707,5.709,5.708,5.708,0,0,1-5.707-5.709m-3.086,0a8.793,8.793,0,1,0,8.793-8.793,8.793,8.793,0,0,0-8.793,8.793M24.211,7.983a2.055,2.055,0,1,0,2.056-2.054h0a2.056,2.056,0,0,0-2.055,2.054m-14,23.081a9.465,9.465,0,0,1-3.18-.589,5.322,5.322,0,0,1-1.97-1.281,5.283,5.283,0,0,1-1.281-1.968,9.456,9.456,0,0,1-.589-3.18c-.083-1.805-.1-2.347-.1-6.92s.018-5.114.1-6.92a9.527,9.527,0,0,1,.589-3.18,5.322,5.322,0,0,1,1.281-1.97,5.278,5.278,0,0,1,1.97-1.281,9.456,9.456,0,0,1,3.18-.589c1.805-.083,2.347-.1,6.918-.1s5.114.018,6.92.1a9.527,9.527,0,0,1,3.18.589,5.305,5.305,0,0,1,1.97,1.281,5.305,5.305,0,0,1,1.281,1.97,9.456,9.456,0,0,1,.589,3.18c.083,1.807.1,2.347.1,6.92s-.017,5.114-.1,6.92a9.5,9.5,0,0,1-.589,3.18,5.67,5.67,0,0,1-3.251,3.249,9.456,9.456,0,0,1-3.18.589c-1.805.083-2.347.1-6.92.1s-5.114-.017-6.918-.1M10.064.1A12.557,12.557,0,0,0,5.908.9,8.4,8.4,0,0,0,2.874,2.874,8.367,8.367,0,0,0,.9,5.908a12.56,12.56,0,0,0-.8,4.157c-.084,1.826-.1,2.41-.1,7.06s.019,5.234.1,7.06a12.56,12.56,0,0,0,.8,4.157,8.371,8.371,0,0,0,1.975,3.033A8.42,8.42,0,0,0,5.908,33.35a12.568,12.568,0,0,0,4.157.8c1.827.083,2.41.1,7.06.1s5.234-.019,7.06-.1a12.559,12.559,0,0,0,4.157-.8,8.755,8.755,0,0,0,5.009-5.009,12.525,12.525,0,0,0,.8-4.157c.083-1.827.1-2.41.1-7.06s-.019-5.234-.1-7.06a12.556,12.556,0,0,0-.8-4.157,8.421,8.421,0,0,0-1.975-3.033A8.379,8.379,0,0,0,28.342.9,12.54,12.54,0,0,0,24.186.1C22.36.021,21.776,0,17.126,0s-5.235.019-7.061.1" transform="translate(0 0)"/></svg>