<svg xmlns="http://www.w3.org/2000/svg" viewBox="0 0 27.21 27.176">
  <defs>
    <style>
      .cls-1 {
        fill: #fff;
      }
    </style>
  </defs>
  <g id="instagram-2016" transform="translate(0 0)">
    <path id="Path_208" data-name="Path 208" class="cls-1" d="M9.071,13.588a4.535,4.535,0,1,1,4.535,4.53,4.532,4.532,0,0,1-4.535-4.53m-2.452,0a6.986,6.986,0,1,0,6.986-6.977,6.982,6.982,0,0,0-6.986,6.977M19.236,6.334A1.633,1.633,0,1,0,20.869,4.7h0a1.632,1.632,0,0,0-1.633,1.63M8.109,24.648a7.528,7.528,0,0,1-2.527-.467,4.229,4.229,0,0,1-1.565-1.016A4.192,4.192,0,0,1,3,21.6a7.5,7.5,0,0,1-.468-2.523c-.066-1.432-.079-1.863-.079-5.491S2.467,9.53,2.532,8.1A7.551,7.551,0,0,1,3,5.574,4.223,4.223,0,0,1,4.017,4.011,4.194,4.194,0,0,1,5.582,2.994a7.521,7.521,0,0,1,2.527-.467c1.434-.066,1.865-.079,5.5-.079s4.063.014,5.5.079a7.578,7.578,0,0,1,2.527.467A4.216,4.216,0,0,1,23.2,4.011a4.209,4.209,0,0,1,1.018,1.563A7.494,7.494,0,0,1,24.681,8.1c.066,1.433.079,1.863.079,5.491s-.013,4.058-.079,5.491a7.53,7.53,0,0,1-.468,2.523,4.5,4.5,0,0,1-2.583,2.578,7.521,7.521,0,0,1-2.527.467c-1.434.066-1.865.079-5.5.079s-4.063-.013-5.5-.079M8,.082a9.988,9.988,0,0,0-3.3.631,6.674,6.674,0,0,0-2.41,1.567A6.638,6.638,0,0,0,.714,4.688a9.955,9.955,0,0,0-.632,3.3C.015,9.435,0,9.9,0,13.588s.015,4.153.082,5.6a9.955,9.955,0,0,0,.632,3.3A6.641,6.641,0,0,0,2.284,24.9a6.691,6.691,0,0,0,2.41,1.567,10,10,0,0,0,3.3.631c1.451.066,1.914.082,5.609.082s4.159-.015,5.609-.082a9.99,9.99,0,0,0,3.3-.631A6.952,6.952,0,0,0,26.5,22.488a9.928,9.928,0,0,0,.632-3.3c.066-1.45.081-1.912.081-5.6s-.015-4.153-.081-5.6a9.952,9.952,0,0,0-.632-3.3,6.681,6.681,0,0,0-1.569-2.407A6.658,6.658,0,0,0,22.519.713a9.975,9.975,0,0,0-3.3-.631C17.765.016,17.3,0,13.607,0S9.448.015,8,.082" transform="translate(0 0)"/>
    <path id="Path_209" data-name="Path 209" class="cls-1" d="M9.071,13.588a4.535,4.535,0,1,1,4.535,4.53,4.532,4.532,0,0,1-4.535-4.53m-2.452,0a6.986,6.986,0,1,0,6.986-6.977,6.982,6.982,0,0,0-6.986,6.977M19.236,6.334A1.633,1.633,0,1,0,20.869,4.7h0a1.632,1.632,0,0,0-1.633,1.63M8.109,24.648a7.528,7.528,0,0,1-2.527-.467,4.229,4.229,0,0,1-1.565-1.016A4.192,4.192,0,0,1,3,21.6a7.5,7.5,0,0,1-.468-2.523c-.066-1.432-.079-1.863-.079-5.491S2.467,9.53,2.532,8.1A7.551,7.551,0,0,1,3,5.574,4.223,4.223,0,0,1,4.017,4.011,4.194,4.194,0,0,1,5.582,2.994a7.521,7.521,0,0,1,2.527-.467c1.434-.066,1.865-.079,5.5-.079s4.063.014,5.5.079a7.578,7.578,0,0,1,2.527.467A4.216,4.216,0,0,1,23.2,4.011a4.209,4.209,0,0,1,1.018,1.563A7.494,7.494,0,0,1,24.681,8.1c.066,1.433.079,1.863.079,5.491s-.013,4.058-.079,5.491a7.53,7.53,0,0,1-.468,2.523,4.5,4.5,0,0,1-2.583,2.578,7.521,7.521,0,0,1-2.527.467c-1.434.066-1.865.079-5.5.079s-4.063-.013-5.5-.079M8,.082a9.988,9.988,0,0,0-3.3.631,6.674,6.674,0,0,0-2.41,1.567A6.638,6.638,0,0,0,.714,4.688a9.955,9.955,0,0,0-.632,3.3C.015,9.435,0,9.9,0,13.588s.015,4.153.082,5.6a9.955,9.955,0,0,0,.632,3.3A6.641,6.641,0,0,0,2.284,24.9a6.691,6.691,0,0,0,2.41,1.567,10,10,0,0,0,3.3.631c1.451.066,1.914.082,5.609.082s4.159-.015,5.609-.082a9.99,9.99,0,0,0,3.3-.631A6.952,6.952,0,0,0,26.5,22.488a9.928,9.928,0,0,0,.632-3.3c.066-1.45.081-1.912.081-5.6s-.015-4.153-.081-5.6a9.952,9.952,0,0,0-.632-3.3,6.681,6.681,0,0,0-1.569-2.407A6.658,6.658,0,0,0,22.519.713a9.975,9.975,0,0,0-3.3-.631C17.765.016,17.3,0,13.607,0S9.448.015,8,.082" transform="translate(0 0)"/>
  </g>
</svg>
