<svg xmlns="http://www.w3.org/2000/svg" viewBox="0 0 33.208 32.129">
  <defs>
    <style>
      .cls-1 {
        fill: #f8f8f8;
      }
    </style>
  </defs>
  <path id="Path_305" data-name="Path 305" class="cls-1" d="M28.075,6A9.761,9.761,0,0,0,20.6,9.651,9.761,9.761,0,0,0,13.132,6C8.01,6,4,10.228,4,15.63c0,6.61,5.645,12.011,14.2,20.2l2.408,2.3,2.408-2.3c8.551-8.185,14.2-13.587,14.2-20.2C37.207,10.228,33.2,6,28.075,6Zm-7.3,27.235L20.6,33.4l-.174-.166C12.534,25.68,7.321,20.69,7.321,15.63A5.845,5.845,0,0,1,13.132,9.5a6.488,6.488,0,0,1,5.919,4.132h3.1A6.508,6.508,0,0,1,28.075,9.5a5.845,5.845,0,0,1,5.811,6.128C33.887,20.69,28.673,25.68,20.778,33.235Z" transform="translate(-4 -6)"/>
</svg>
