<svg xmlns="http://www.w3.org/2000/svg" viewBox="0 0 19.75 19.75"><defs><style>.a{fill:#7e808c;stroke:#7e808c;stroke-width:0.5px;}</style></defs><g transform="translate(0.25 0.25)"><g transform="translate(7.898 7.901)"><path class="a" d="M181.778,180.125a1.729,1.729,0,1,0-1.729,1.733,1.729,1.729,0,0,0,1.729-1.733Zm-1.729,1.02h0a1.02,1.02,0,1,1,1.02-1.02A1.02,1.02,0,0,1,180.049,181.146Z" transform="translate(-178.32 -178.4)"/></g><path class="a" d="M18.9,9.272H17.181a7.572,7.572,0,0,0-7.2-7.2V.354a.354.354,0,1,0-.709,0V2.069a7.572,7.572,0,0,0-7.2,7.2H.354a.354.354,0,0,0,0,.709H2.069a7.572,7.572,0,0,0,7.2,7.2V18.9a.354.354,0,0,0,.709,0V17.181a7.572,7.572,0,0,0,7.2-7.2H18.9a.354.354,0,0,0,0-.709Zm-4.1.709h1.679a6.863,6.863,0,0,1-6.491,6.491V14.793a.354.354,0,1,0-.709,0v1.679A6.863,6.863,0,0,1,2.781,9.981H4.461a.354.354,0,0,0,0-.709H2.781A6.863,6.863,0,0,1,9.272,2.781V4.461a.354.354,0,0,0,.709,0V2.781a6.863,6.863,0,0,1,6.491,6.491H14.793a.354.354,0,1,0,0,.709Z"/></g></svg>