<svg xmlns="http://www.w3.org/2000/svg" viewBox="0 0 60.047 64.058">
  <defs>
    <style>
      .cls-1 {
        fill: #56b05a;
      }
    </style>
  </defs>
  <g id="Group_247" data-name="Group 247" transform="translate(-982.408 -1056.623)">
    <g id="Group_236" data-name="Group 236" transform="translate(982.408 1056.623)">
      <g id="Group_235" data-name="Group 235" transform="translate(0 0)">
        <path id="Path_273" data-name="Path 273" class="cls-1" d="M75.548,14.134,46.463.093a.939.939,0,0,0-.816,0L16.562,14.134a.938.938,0,0,0-.53.845v34.1a.938.938,0,0,0,.53.845L45.647,63.965a.938.938,0,0,0,.816,0L75.548,49.924a.938.938,0,0,0,.53-.845v-34.1A.939.939,0,0,0,75.548,14.134ZM46.055,1.98l26.927,13-7.805,3.768a.931.931,0,0,0-.159-.1L38.274,5.736ZM36.155,6.8l26.888,12.98-5.507,2.659L30.659,9.461Zm27.517,14.76v9.827l-5.144,2.483V24.041ZM74.2,48.49,46.994,61.625V29.609L58.241,24.2a.938.938,0,0,0-.816-1.69L46.055,27.978l-7.239-3.491A.938.938,0,1,0,38,26.177l7.116,3.432V61.625L17.909,48.49V16.474l20.719,10a.938.938,0,0,0,.816-1.69L19.129,14.979l9.322-4.5L56.638,24.087l.013.017v11.26A.938.938,0,0,0,58,36.208l7.021-3.389a.938.938,0,0,0,.53-.845V20.652L74.2,16.474Z" transform="translate(-16.032 0.001)"/>
      </g>
    </g>
    <g id="Group_238" data-name="Group 238" transform="translate(986.414 1099.32)">
      <g id="Group_237" data-name="Group 237" transform="translate(0)">
        <path id="Path_274" data-name="Path 274" class="cls-1" d="M53.663,343.416l-4.268-2.06a.938.938,0,1,0-.816,1.69l4.268,2.061a.938.938,0,0,0,.816-1.69Z" transform="translate(-48.048 -341.261)"/>
      </g>
    </g>
    <g id="Group_240" data-name="Group 240" transform="translate(986.42 1094.869)">
      <g id="Group_239" data-name="Group 239" transform="translate(0)">
        <path id="Path_275" data-name="Path 275" class="cls-1" d="M57.633,309.738l-8.191-3.954a.938.938,0,0,0-.816,1.69l8.191,3.954a.938.938,0,0,0,.816-1.69Z" transform="translate(-48.096 -305.69)"/>
      </g>
    </g>
  </g>
</svg>
