<svg xmlns="http://www.w3.org/2000/svg" viewBox="0 0 65.912 65.912">
  <defs>
    <style>
      .cls-1 {
        fill: #56b05a;
      }
    </style>
  </defs>
  <g id="Group_273" data-name="Group 273" transform="translate(-159.1 -1053)">
    <path id="Path_266" data-name="Path 266" class="cls-1" d="M52.489,40.479l-6.252,8.982-4.412-3.621a1.116,1.116,0,1,0-1.417,1.726l5.347,4.389a1.115,1.115,0,0,0,.708.255,1.018,1.018,0,0,0,.153-.011,1.119,1.119,0,0,0,.764-.468l6.942-9.975a1.118,1.118,0,0,0-1.834-1.277Z" transform="translate(163.786 1057.686)"/>
    <path id="Path_267" data-name="Path 267" class="cls-1" d="M58.092,38.518V5.586a1.117,1.117,0,0,0-1.117-1.117H51.389V1.117A1.117,1.117,0,0,0,50.272,0h-7.82a1.117,1.117,0,0,0-1.117,1.117V4.469H16.757V1.117A1.117,1.117,0,0,0,15.64,0H7.82A1.117,1.117,0,0,0,6.7,1.117V4.469H1.117A1.117,1.117,0,0,0,0,5.586V62.561a1.117,1.117,0,0,0,1.117,1.117H43.685A14.508,14.508,0,1,0,58.092,38.518ZM43.569,2.234h5.586v6.7H43.569v-6.7Zm-34.632,0h5.586v6.7H8.937v-6.7ZM2.234,6.7H6.7v3.351A1.117,1.117,0,0,0,7.82,11.172h7.82a1.117,1.117,0,0,0,1.117-1.117V6.7H41.335v3.351a1.117,1.117,0,0,0,1.117,1.117h7.82a1.117,1.117,0,0,0,1.117-1.117V6.7h4.469V15.64H2.234Zm0,54.74V17.874H55.858v19.7c-.219-.07-.442-.127-.666-.189-.207-.057-.413-.113-.622-.161-.189-.042-.38-.079-.571-.114-.273-.05-.546-.092-.821-.126-.153-.019-.3-.04-.459-.055-.44-.039-.884-.066-1.329-.066-.378,0-.747.028-1.117.057V23.46H7.82v32.4H37.577c.032.1.073.193.106.29.094.271.187.544.3.809.061.149.134.29.2.436.128.284.259.566.406.841.065.12.137.235.206.353.165.289.333.575.518.852.068.1.143.2.213.3.2.279.4.556.616.822.08.1.168.19.25.286.173.2.338.407.523.6H2.234Zm42.8-23.094c-.121.058-.244.113-.362.174-.21.109-.413.23-.617.35-.178.1-.355.21-.528.321s-.346.23-.516.351c-.193.136-.381.279-.568.425-.15.117-.3.233-.444.357-.2.165-.382.341-.569.516-.128.122-.261.239-.385.364-.2.206-.393.423-.583.641-.08.093-.169.178-.248.273V35.749h7.82V37.27l-.055.016A14.422,14.422,0,0,0,45.036,38.35ZM37.5,47.143c-.039.128-.065.26-.1.39-.089.324-.181.648-.248.982-.053.258-.082.522-.12.783-.03.211-.073.419-.095.633-.048.481-.074.969-.074,1.458,0,.4.022.811.059,1.22.007.075.007.151.015.226.018.181.054.356.078.535h0c.012.085.017.169.03.252H30.163V45.8h7.82v.008c-.011.027-.018.055-.029.082C37.787,46.3,37.634,46.717,37.5,47.143ZM10.054,45.8h7.82v7.82h-7.82Zm0-10.054h7.82v7.82h-7.82Zm37.983-2.234h-7.82v-7.82h7.82Zm-10.054,0h-7.82v-7.82h7.82Zm0,10.054h-7.82v-7.82h7.82Zm-17.874-7.82h7.82v7.82h-7.82Zm7.82-2.234h-7.82v-7.82h7.82Zm-10.054,0h-7.82v-7.82h7.82ZM20.109,45.8h7.82v7.82h-7.82Zm31.28,17.874A12.213,12.213,0,0,1,44.567,61.6a12.358,12.358,0,0,1-1.086-.822c-.121-.1-.235-.212-.351-.32-.22-.2-.433-.406-.637-.619-.131-.137-.257-.277-.381-.419-.183-.211-.355-.429-.523-.651-.107-.142-.218-.279-.32-.426a12.457,12.457,0,0,1-.687-1.109c-.048-.089-.086-.183-.132-.274-.163-.32-.315-.643-.45-.976-.058-.145-.108-.294-.162-.441-.105-.293-.2-.59-.285-.89-.019-.069-.036-.139-.054-.208a12.789,12.789,0,0,1-.285-1.466c0-.035-.011-.069-.016-.105a11.621,11.621,0,0,1-.1-1.487,12.11,12.11,0,0,1,.065-1.26c0-.035.012-.068.016-.1.042-.381.1-.761.177-1.135.008-.036.02-.07.028-.106.08-.371.175-.74.29-1.1.013-.042.032-.084.046-.126.115-.349.242-.695.39-1.034.139-.32.288-.633.452-.938l.111-.191c.045-.08.1-.156.144-.236q.292-.491.622-.951c.055-.076.112-.151.169-.226q.3-.4.635-.769c.077-.086.154-.173.233-.257.219-.232.449-.452.685-.666.084-.076.165-.154.251-.228.277-.237.564-.459.86-.67.047-.034.092-.07.139-.1a12.214,12.214,0,0,1,4.929-2l.023,0a12.2,12.2,0,0,1,2.024-.182,11.916,11.916,0,0,1,1.3.07c.067.007.132.022.2.03.366.046.732.1,1.093.179.045.01.087.023.131.034.384.088.765.191,1.142.317l.076.028q.578.2,1.142.454a12.28,12.28,0,0,1-5.077,23.466Z" transform="translate(159.1 1053)"/>
  </g>
</svg>
