<svg xmlns="http://www.w3.org/2000/svg" viewBox="0 0 61.809 65.44">
  <defs>
    <style>
      .cls-1 {
        fill: #56b05a;
      }
    </style>
  </defs>
  <g id="Group_253" data-name="Group 253" transform="translate(-573.412 -1065.064)">
    <g id="Group_249" data-name="Group 249" transform="translate(573.412 1065.064)">
      <path id="Path_268" data-name="Path 268" class="cls-1" d="M70.623,12.1h0V77.5h61.809V12.064Zm58.142,62.058H74.29V15.407h54.476V74.161Z" transform="translate(-70.623 -12.064)"/>
      <path id="Path_269" data-name="Path 269" class="cls-1" d="M125.032,187.518l2.468,5.015h1.221l2.481-5.015v5.776h2.048v-9.177h-2.756l-2.377,5.042-2.362-5.042h-2.77v9.177h2.048Z" transform="translate(-113.522 -168.108)"/>
      <path id="Path_270" data-name="Path 270" class="cls-1" d="M207.245,191.482h-4.712v-1.9h4.109v-1.746h-4.109v-1.89H207.1v-1.825h-6.616v9.177h6.761Z" transform="translate(-177.192 -168.108)"/>
      <path id="Path_271" data-name="Path 271" class="cls-1" d="M255.659,187.544l4.372,5.75h2.048v-9.177h-2.048v5.908l-4.5-5.908h-1.917v9.177h2.048Z" transform="translate(-220.675 -168.108)"/>
      <path id="Path_272" data-name="Path 272" class="cls-1" d="M323.1,193.385a3.884,3.884,0,0,0,2.822-1.07,4.075,4.075,0,0,0,1.1-3.065v-5.134H324.98v5.068a2.721,2.721,0,0,1-.505,1.739,1.657,1.657,0,0,1-1.372.637,1.678,1.678,0,0,1-1.378-.637,2.7,2.7,0,0,1-.512-1.739v-5.068h-2.048v5.134a4.066,4.066,0,0,0,1.109,3.059A3.9,3.9,0,0,0,323.1,193.385Z" transform="translate(-273.55 -168.108)"/>
      <rect id="Rectangle_811" data-name="Rectangle 811" class="cls-1" width="42.805" height="3.343" transform="translate(9.469 32.375)"/>
      <rect id="Rectangle_812" data-name="Rectangle 812" class="cls-1" width="42.805" height="3.343" transform="translate(9.469 42.279)"/>
      <rect id="Rectangle_813" data-name="Rectangle 813" class="cls-1" width="42.805" height="3.343" transform="translate(9.469 52.182)"/>
    </g>
  </g>
</svg>
