<svg xmlns="http://www.w3.org/2000/svg" viewBox="0 0 40.974 40.974">
  <defs>
    <style>
      .cls-1 {
        opacity: 0.6;
      }

      .cls-2 {
        stroke: #000;
      }
    </style>
  </defs>
  <g id="if_SignOut_1031505" class="cls-1" transform="translate(0.5 0.5)">
    <path id="Path_278" data-name="Path 278" class="cls-2" d="M21.393,37.475H2.852V2.5H21.393a1.347,1.347,0,0,0,1.426-1.249A1.347,1.347,0,0,0,21.393,0H1.426A1.347,1.347,0,0,0,0,1.249V38.725a1.347,1.347,0,0,0,1.426,1.249H21.393a1.26,1.26,0,1,0,0-2.5Z"/>
    <path id="Path_279" data-name="Path 279" class="cls-2" d="M40.878,17.783,31.417,8.4a1.383,1.383,0,0,0-1.939,0,1.34,1.34,0,0,0,0,1.914l7.129,7.069H8.374a1.354,1.354,0,1,0,0,2.707H36.608l-7.129,7.069a1.34,1.34,0,0,0,0,1.914,1.382,1.382,0,0,0,1.939,0l9.459-9.38A1.348,1.348,0,0,0,40.878,17.783Z" transform="translate(-1.302 1.265)"/>
  </g>
</svg>
