<svg xmlns="http://www.w3.org/2000/svg" viewBox="0 0 25 25.001"><defs><style>.a{fill:#fff;}</style></defs><path class="a" d="M-6759.5,1466a12.422,12.422,0,0,1-8.84-3.661A12.416,12.416,0,0,1-6772,1453.5a12.418,12.418,0,0,1,3.662-8.84,12.422,12.422,0,0,1,8.84-3.661,12.514,12.514,0,0,1,12.5,12.5A12.513,12.513,0,0,1-6759.5,1466Zm-.078-7.219h0l5.141,2.7a.311.311,0,0,0,.149.037.306.306,0,0,0,.185-.06.32.32,0,0,0,.128-.311l-.983-5.724,4.16-4.054a.318.318,0,0,0,.08-.324.319.319,0,0,0-.257-.216l-5.746-.836-2.571-5.207a.317.317,0,0,0-.286-.178.32.32,0,0,0-.284.178l-2.571,5.207-5.746.836a.319.319,0,0,0-.257.216.314.314,0,0,0,.08.324l4.16,4.054-.983,5.724a.322.322,0,0,0,.128.311.318.318,0,0,0,.188.06.307.307,0,0,0,.146-.037l5.139-2.7Z" transform="translate(6772.001 -1440.999)"/></svg>