<svg xmlns="http://www.w3.org/2000/svg" viewBox="0 0 40.997 40.134">
  <defs>
    <style>
      .cls-1 {
        opacity: 0.6;
      }

      .cls-2 {
        fill: none;
        stroke: #000;
        stroke-linecap: round;
        stroke-linejoin: round;
        stroke-miterlimit: 10;
        stroke-width: 2px;
      }
    </style>
  </defs>
  <g id="if_wallet_2639949" class="cls-1" transform="translate(0 1)">
    <path id="Path_276" data-name="Path 276" class="cls-2" d="M36.68,5H8.727A3.726,3.726,0,0,0,5,8.727H5a3.726,3.726,0,0,0,3.727,3.727H25.5" transform="translate(-3.136 -5)"/>
    <path id="Path_277" data-name="Path 277" d="M41.27,8.864H7.727L4,7V36.816a5.59,5.59,0,0,0,5.591,5.591H41.27A3.726,3.726,0,0,0,45,38.68V12.591A3.726,3.726,0,0,0,41.27,8.864Zm-3.727,20.5a3.727,3.727,0,1,1,3.727-3.727A3.726,3.726,0,0,1,37.543,29.362Z" transform="translate(-4 -3.273)"/>
  </g>
</svg>
