<svg xmlns="http://www.w3.org/2000/svg" xmlns:xlink="http://www.w3.org/1999/xlink" viewBox="0 0 236.753 76.907">
  <defs>
    <style>
      .cls-1 {
        clip-path: url(#clip-path);
      }

      .cls-2 {
        fill: #003087;
      }

      .cls-3 {
        fill: #009cde;
      }

      .cls-4 {
        fill: #012169;
      }
    </style>
    <clipPath id="clip-path">
      <path id="Path_242" data-name="Path 242" d="M-175.537-86.029H61.216v-76.907H-175.537Z" transform="translate(175.537 162.936)"/>
    </clipPath>
  </defs>
  <g id="Group_126" data-name="Group 126" class="cls-1">
    <path id="Path_232" data-name="Path 232" class="cls-2" d="M32.1-88.791c-1.216-1.385-3.413-1.979-6.224-1.979H17.715a1.168,1.168,0,0,0-1.155.985l-3.4,21.545a.7.7,0,0,0,.16.564.7.7,0,0,0,.532.245h5.036l1.265-8.023-.039.251a1.165,1.165,0,0,1,1.149-.985h2.393c4.7,0,8.383-1.91,9.459-7.434q.048-.245.084-.478A5.217,5.217,0,0,0,32.1-88.79" transform="translate(52.819 116.003)"/>
    <path id="Path_238" data-name="Path 238" class="cls-2" d="M32.1-88.791c-1.216-1.385-3.413-1.979-6.224-1.979H17.715a1.168,1.168,0,0,0-1.155.985l-3.4,21.545a.7.7,0,0,0,.16.564.7.7,0,0,0,.532.245h5.036l1.265-8.023-.039.251a1.165,1.165,0,0,1,1.149-.985h2.393c4.7,0,8.383-1.91,9.459-7.434q.048-.245.084-.478A5.217,5.217,0,0,0,32.1-88.79" transform="translate(52.819 116.003)"/>
    <g id="Group_247" data-name="Group 247">
      <path id="Path_233" data-name="Path 233" class="cls-3" d="M226.3-65.6c-.308,2.022-1.852,2.022-3.345,2.022h-.85l.6-3.774a.469.469,0,0,1,.463-.4h.39c1.017,0,1.977,0,2.472.579a1.882,1.882,0,0,1,.273,1.57m-.65-5.275h-5.632a.784.784,0,0,0-.774.661l-2.276,14.44a.47.47,0,0,0,.107.378.47.47,0,0,0,.356.165h2.89a.548.548,0,0,0,.541-.462l.646-4.1a.783.783,0,0,1,.773-.661h1.782c3.711,0,5.851-1.794,6.41-5.353a4.337,4.337,0,0,0-.718-3.634,5.224,5.224,0,0,0-4.1-1.439" transform="translate(-79.727 103.064)"/>
      <path id="Path_234" data-name="Path 234" class="cls-2" d="M111.414-65.6c-.308,2.022-1.852,2.022-3.345,2.022h-.85l.6-3.774a.469.469,0,0,1,.463-.4h.39c1.017,0,1.977,0,2.472.579a1.88,1.88,0,0,1,.274,1.57m-.65-5.275h-5.632a.783.783,0,0,0-.773.661l-2.276,14.44a.469.469,0,0,0,.107.378.469.469,0,0,0,.357.164h2.69a.783.783,0,0,0,.773-.661l.615-3.9a.782.782,0,0,1,.773-.661h1.782c3.71,0,5.851-1.795,6.41-5.354a4.337,4.337,0,0,0-.718-3.634,5.224,5.224,0,0,0-4.1-1.439m13.075,10.46A3.008,3.008,0,0,1,120.8-57.84a2.277,2.277,0,0,1-1.811-.728,2.289,2.289,0,0,1-.423-1.894,3.017,3.017,0,0,1,3.022-2.6,2.273,2.273,0,0,1,1.8.735,2.321,2.321,0,0,1,.457,1.907m3.758-5.25h-2.7a.47.47,0,0,0-.465.4l-.118.754-.189-.273c-.584-.847-1.886-1.131-3.186-1.131a6.2,6.2,0,0,0-6.02,5.424,5.091,5.091,0,0,0,1,4.144,4.22,4.22,0,0,0,3.4,1.371,5.164,5.164,0,0,0,3.734-1.542l-.121.749a.469.469,0,0,0,.107.378.469.469,0,0,0,.357.164h2.428a.783.783,0,0,0,.773-.661l1.458-9.231a.47.47,0,0,0-.107-.378.47.47,0,0,0-.357-.164" transform="translate(-5.01 103.064)"/>
      <path id="Path_235" data-name="Path 235" class="cls-3" d="M262.473-51.2a3.008,3.008,0,0,1-3.044,2.576,2.276,2.276,0,0,1-1.811-.728,2.289,2.289,0,0,1-.423-1.894,3.017,3.017,0,0,1,3.022-2.6,2.273,2.273,0,0,1,1.8.735,2.321,2.321,0,0,1,.457,1.907m3.758-5.25h-2.7a.47.47,0,0,0-.465.4l-.118.754-.189-.273c-.584-.847-1.886-1.131-3.186-1.131a6.2,6.2,0,0,0-6.02,5.424,5.092,5.092,0,0,0,1,4.144,4.22,4.22,0,0,0,3.4,1.371,5.164,5.164,0,0,0,3.734-1.542l-.121.749a.468.468,0,0,0,.106.378.468.468,0,0,0,.357.164h2.427a.784.784,0,0,0,.774-.661L266.7-55.9a.47.47,0,0,0-.107-.378.47.47,0,0,0-.357-.164" transform="translate(-103.475 93.844)"/>
      <path id="Path_236" data-name="Path 236" class="cls-2" d="M192.775-55.974h-2.711a.779.779,0,0,0-.646.343l-3.74,5.507-1.585-5.292a.784.784,0,0,0-.75-.559h-2.664a.47.47,0,0,0-.382.2.47.47,0,0,0-.062.425l2.984,8.761-2.807,3.961a.47.47,0,0,0-.033.487.47.47,0,0,0,.417.254H183.5a.784.784,0,0,0,.643-.336l9.014-13.011a.469.469,0,0,0,.031-.485.469.469,0,0,0-.416-.252" transform="translate(-55.824 93.373)"/>
      <path id="Path_237" data-name="Path 237" class="cls-3" d="M294.733-70.476l-2.312,14.7a.47.47,0,0,0,.107.378.47.47,0,0,0,.357.164h2.324a.783.783,0,0,0,.773-.661l2.279-14.441a.469.469,0,0,0-.107-.378.469.469,0,0,0-.357-.164h-2.6a.468.468,0,0,0-.464.4" transform="translate(-128.798 103.062)"/>
      <path id="Path_239" data-name="Path 239" class="cls-2" d="M21.516-84.072a1.022,1.022,0,0,1,1.009-.862h6.4a13.445,13.445,0,0,1,2.109.152,8.862,8.862,0,0,1,1.046.234A5.777,5.777,0,0,1,33.2-84.1,5.214,5.214,0,0,0,32.1-88.79c-1.216-1.385-3.413-1.979-6.224-1.979H17.713a1.168,1.168,0,0,0-1.153.985l-3.4,21.543a.7.7,0,0,0,.159.564.7.7,0,0,0,.532.245h5.037l1.265-8.024Z" transform="translate(52.821 116.001)"/>
      <path id="Path_240" data-name="Path 240" class="cls-3" d="M43.211-71.7q-.037.24-.084.478c-1.075,5.524-4.757,7.434-9.459,7.434H31.275a1.163,1.163,0,0,0-1.149.985L28.9-55.027l-.349,2.2a.613.613,0,0,0,.139.494.613.613,0,0,0,.466.215H33.4a1.022,1.022,0,0,0,1.009-.862l.041-.216.8-5.071.051-.28a1.022,1.022,0,0,1,1.009-.862h.635c4.113,0,7.333-1.67,8.274-6.5.392-2.019.189-3.705-.85-4.89a4.055,4.055,0,0,0-1.163-.9" transform="translate(42.812 103.597)"/>
    </g>
    <path id="Path_241" data-name="Path 241" class="cls-4" d="M45.027-73.7q-.246-.073-.508-.131c-.174-.038-.354-.073-.539-.1a13.188,13.188,0,0,0-2.11-.155H35.475a1.019,1.019,0,0,0-1.009.863L33.107-64.6l-.039.251a1.163,1.163,0,0,1,1.149-.985h2.394c4.7,0,8.383-1.91,9.459-7.434.032-.163.059-.322.084-.478a5.808,5.808,0,0,0-.884-.373c-.079-.026-.16-.051-.242-.076" transform="translate(39.87 105.15)"/>
  </g>
</svg>
