<svg id="Log_Out_Pop_Up" data-name="Log Out Pop Up" xmlns="http://www.w3.org/2000/svg" viewBox="0 0 242.907 288.754">
  <defs>
    <style>
      .cls-1 {
        fill: #fff;
      }

      .cls-2, .cls-3 {
        stroke: none;
      }

      .cls-3 {
        fill: #929292;
      }
    </style>
  </defs>
  <g id="Path_317" data-name="Path 317" class="cls-1" transform="translate(0 25.208)">
    <path class="cls-2" d="M 239.9149932861328 263.2964172363281 L 2.991749286651611 263.2964172363281 C 1.479927778244019 263.2964172363281 0.2499991655349731 262.0664978027344 0.2499991655349731 260.5546569824219 L 0.2499991655349731 -3.362122535705566 C 0.2499991655349731 -4.87394380569458 1.479927778244019 -6.103872776031494 2.991749286651611 -6.103872776031494 L 169.5659942626953 -6.103872776031494 L 169.6893157958984 -6.103872776031494 L 169.7643890380859 -6.201729774475098 L 184.0240325927734 -24.79666328430176 L 198.2837066650391 -6.201729774475098 L 198.3587799072266 -6.103872776031494 L 198.4821014404297 -6.103872776031494 L 239.9149932861328 -6.103872776031494 C 241.4268188476562 -6.103872776031494 242.6567840576172 -4.87394380569458 242.6567840576172 -3.362122535705566 L 242.6567840576172 260.5546569824219 C 242.6567840576172 262.0664978027344 241.4268188476562 263.2964172363281 239.9149932861328 263.2964172363281 Z"/>
    <path class="cls-3" d="M 184.0240325927734 -24.38589477539062 L 169.9627380371094 -6.04962158203125 L 169.8126831054688 -5.853866577148438 L 169.5660095214844 -5.853866577148438 L 2.991744995117188 -5.853866577148438 C 1.617782592773438 -5.853866577148438 0.5 -4.736083984375 0.5 -3.36212158203125 L 0.5 260.5546569824219 C 0.5 261.9286193847656 1.617782592773438 263.0464172363281 2.991744995117188 263.0464172363281 L 239.9149932861328 263.0464172363281 C 241.2889709472656 263.0464172363281 242.4067840576172 261.9286193847656 242.4067840576172 260.5546569824219 L 242.4067840576172 -3.36212158203125 C 242.4067840576172 -4.736083984375 241.2889709472656 -5.853866577148438 239.9149932861328 -5.853866577148438 L 198.4820709228516 -5.853866577148438 L 198.2353973388672 -5.853866577148438 L 198.0853271484375 -6.04962158203125 L 184.0240325927734 -24.38589477539062 M 184.0240325927734 -25.20751953125 L 198.4820709228516 -6.353866577148438 L 239.9149932861328 -6.353866577148438 C 241.5673217773438 -6.353866577148438 242.9067840576172 -5.014404296875 242.9067840576172 -3.36212158203125 L 242.9067840576172 260.5546569824219 C 242.9067840576172 262.2069396972656 241.5673217773438 263.5464172363281 239.9149932861328 263.5464172363281 L 2.991744995117188 263.5464172363281 C 1.339431762695312 263.5464172363281 0 262.2069396972656 0 260.5546569824219 L 0 -3.36212158203125 C 0 -5.014404296875 1.339431762695312 -6.353866577148438 2.991744995117188 -6.353866577148438 L 169.5660095214844 -6.353866577148438 L 184.0240325927734 -25.20751953125 Z"/>
  </g>
</svg>
