<svg xmlns="http://www.w3.org/2000/svg" viewBox="0 0 316 292.734">
  <defs>
    <style>
      .cls-1 {
        fill: #cea774;
      }

      .cls-2 {
        fill: #e2be9a;
      }

      .cls-3 {
        fill: #8e693c;
        opacity: 0.67;
      }

      .cls-4 {
        fill: #c59d6f;
      }

      .cls-5 {
        fill: #00641d;
      }

      .cls-6 {
        fill: #008a3c;
      }

      .cls-7 {
        fill: #007d2e;
      }

      .cls-8 {
        fill: #006b26;
      }

      .cls-9 {
        fill: #007526;
      }

      .cls-10 {
        fill: #028236;
      }

      .cls-11 {
        fill: #56b05a;
      }

      .cls-12 {
        fill: #4d9e4d;
      }
    </style>
  </defs>
  <g id="XMLID_2_" transform="translate(-147.1 -255.766)">
    <path id="XMLID_276_" class="cls-1" d="M445.6,548.5H167.9a12.035,12.035,0,0,1-12-12V350.7a12.035,12.035,0,0,1,12-12H445.6a12.035,12.035,0,0,1,12,12V536.4A12.057,12.057,0,0,1,445.6,548.5Z"/>
    <path id="XMLID_275_" class="cls-2" d="M305.3,338.7H160.7a8.049,8.049,0,0,0-7.9,8.2V540a8.114,8.114,0,0,0,7.9,8.2H305.3Z"/>
    <path id="XMLID_262_" class="cls-3" d="M148.6,366.7H457.5l.1,18.6Z"/>
    <path id="XMLID_261_" class="cls-4" d="M463,366.7a7.568,7.568,0,0,0,.1-1.5V342.9c0-5-3.7-9.1-8.1-9.1H155.2c-4.5,0-8.1,4.1-8.1,9.1v22.3a7.568,7.568,0,0,0,.1,1.5Z"/>
    <rect id="XMLID_260_" class="cls-5" width="33.4" height="221.9" transform="translate(287.9 326.3)"/>
    <g id="XMLID_177_">
      <path id="XMLID_178_" class="cls-6" d="M307.8,384.3h-5.2c-.3,0-.5.1-.7.1a1.381,1.381,0,0,0-.4.3,1.483,1.483,0,0,0-.1.7,1.268,1.268,0,0,0,.1.6,2.092,2.092,0,0,0,.4.6h5.9v2.6h-5.2c-.3,0-.5.1-.7.1a1.381,1.381,0,0,0-.4.3,1.85,1.85,0,0,0,0,1.2l.3.6h5.9V394h-8.3v-2.6h.9a4.183,4.183,0,0,1-.8-1.2,2.768,2.768,0,0,1-.3-1.3,1.844,1.844,0,0,1,.4-1.3,2.012,2.012,0,0,1,1.1-.9,11.007,11.007,0,0,1-1.1-1.4,2.2,2.2,0,0,1-.4-1.3,2.958,2.958,0,0,1,.2-1,1.555,1.555,0,0,1,.6-.8,3.128,3.128,0,0,1,1-.5,5.9,5.9,0,0,1,1.4-.2h5.4v2.8Z"/>
      <path id="XMLID_180_" class="cls-6" d="M308.1,375.5a5.338,5.338,0,0,1-1.1,3.6,4.282,4.282,0,0,1-3.2,1.3,4.62,4.62,0,0,1-3.3-1.2,4.459,4.459,0,0,1-1.2-3.3,3.8,3.8,0,0,1,1-2.9,4.5,4.5,0,0,1,3-1h.9v5.7a2.958,2.958,0,0,0,1-.2,1.024,1.024,0,0,0,.6-.5,1.135,1.135,0,0,0,.3-.8,3.083,3.083,0,0,0,.1-1,2.768,2.768,0,0,0-.1-.9,6.9,6.9,0,0,0-.3-.8l-.3-.6a1.381,1.381,0,0,0-.3-.4v-.3h2.1a1.421,1.421,0,0,1,.2.6,6.373,6.373,0,0,1,.2.7c.1.3.1.6.2.9A3.6,3.6,0,0,1,308.1,375.5Zm-5.5-.8a1.844,1.844,0,0,0-1.3.4,1.246,1.246,0,0,0-.4,1.1,1.656,1.656,0,0,0,.5,1.2,2.2,2.2,0,0,0,1.2.5v-3.2Z"/>
      <path id="XMLID_183_" class="cls-6" d="M307,366.2c.1.2.3.3.4.5a5.917,5.917,0,0,1,.4.6c.1.2.2.5.3.7a2.22,2.22,0,0,1,.1.9,2.268,2.268,0,0,1-.7,1.8,2.489,2.489,0,0,1-1.9.7,2.41,2.41,0,0,1-1.5-.4,2.012,2.012,0,0,1-.9-1.1,6.865,6.865,0,0,1-.5-1.7,14.918,14.918,0,0,1-.2-2.1h0a1.1,1.1,0,0,0-1,.5,2.81,2.81,0,0,0-.3,1.5,5.16,5.16,0,0,0,.2,1.1c.1.4.3.8.4,1.2v.2h-2a10.371,10.371,0,0,1-.3-1.2,11.135,11.135,0,0,1-.2-1.7,5.075,5.075,0,0,1,.7-3.1,2.459,2.459,0,0,1,2.2-1h5.7v2.6Zm-1.3,0H304c0,.4.1.8.1,1.1a2.353,2.353,0,0,0,.2.8,1,1,0,0,0,.4.5,1.421,1.421,0,0,0,.6.2c.4,0,.7-.1.8-.3a2,2,0,0,0,.2-.9,1.854,1.854,0,0,0-.2-.7A1.612,1.612,0,0,0,305.7,366.2Z"/>
      <path id="XMLID_186_" class="cls-6" d="M307.8,359.1v2.6H296.2v-2.6Z"/>
      <path id="XMLID_188_" class="cls-6" d="M303.5,350.1a4.826,4.826,0,0,1,3.3,1,3.171,3.171,0,0,1,1.2,2.5,3.749,3.749,0,0,1-.1,1.1,6.9,6.9,0,0,1-.4,1H311v1.4H299.6v-1.4h.9a3.6,3.6,0,0,1-.8-1.2,3.194,3.194,0,0,1-.3-1.4,2.529,2.529,0,0,1,1.1-2.2A5.1,5.1,0,0,1,303.5,350.1Zm.1,1.5a4.473,4.473,0,0,0-2.2.5,1.645,1.645,0,0,0-.8,1.5,2.016,2.016,0,0,0,.3,1.1,6.726,6.726,0,0,0,.7,1.1h4.7c.2-.4.3-.7.4-.9a2.768,2.768,0,0,0,.1-.9,2.136,2.136,0,0,0-.8-1.7A3.612,3.612,0,0,0,303.6,351.6Z"/>
      <path id="XMLID_191_" class="cls-6" d="M303.7,341.8a4.4,4.4,0,0,1,3.2,1,3.693,3.693,0,0,1,1.1,2.7,3.16,3.16,0,0,1-1.2,2.7,4.722,4.722,0,0,1-3.2,1,4.4,4.4,0,0,1-3.2-1,3.424,3.424,0,0,1-1.2-2.7,3.693,3.693,0,0,1,1.1-2.7A5.952,5.952,0,0,1,303.7,341.8Zm0,1.5a3.845,3.845,0,0,0-2.4.6,2,2,0,0,0-.8,1.7,2.136,2.136,0,0,0,.8,1.7,3.845,3.845,0,0,0,2.4.6,4.265,4.265,0,0,0,2.4-.6,2.206,2.206,0,0,0,0-3.4A4.048,4.048,0,0,0,303.7,343.3Z"/>
      <path id="XMLID_194_" class="cls-6" d="M308,338.2a7.772,7.772,0,0,1-.2,1.6,3.337,3.337,0,0,1-.5,1.2h-1.6v-.1c.1-.1.2-.3.3-.4a2.092,2.092,0,0,1,.4-.6,6.886,6.886,0,0,0,.3-.8,2.768,2.768,0,0,0,.1-.9,1.7,1.7,0,0,0-.1-.7,4.17,4.17,0,0,0-.2-.6.781.781,0,0,0-.4-.4c-.1-.1-.3-.1-.6-.1a1.136,1.136,0,0,0-.8.3,1.88,1.88,0,0,0-.4,1,2.544,2.544,0,0,1-.2.7c-.1.3-.1.6-.2.8a2.845,2.845,0,0,1-.9,1.4,2.116,2.116,0,0,1-1.4.4,2.342,2.342,0,0,1-1.8-.8,3.334,3.334,0,0,1-.7-2.3,6.752,6.752,0,0,1,.2-1.4,8.339,8.339,0,0,1,.4-1.2h1.5v.1a7.459,7.459,0,0,0-.7,1.2,2.953,2.953,0,0,0-.2,1.3,2.376,2.376,0,0,0,.3,1.2,1.05,1.05,0,0,0,.9.5,1.136,1.136,0,0,0,.8-.3,1.884,1.884,0,0,0,.4-.9,6.373,6.373,0,0,0,.2-.7c.1-.3.1-.5.2-.8a2.733,2.733,0,0,1,.8-1.4,2.251,2.251,0,0,1,1.5-.5,2.958,2.958,0,0,1,1,.2,1.555,1.555,0,0,1,.8.6,8.794,8.794,0,0,1,.6,1A2.762,2.762,0,0,1,308,338.2Z"/>
      <path id="XMLID_196_" class="cls-6" d="M308,331.1a2.139,2.139,0,0,1-.7,1.8,2.928,2.928,0,0,1-2.1.6h-4.6v.9h-1.2v-.9H297v-1.4h2.4v-2.6h1.2v2.6h4.9a1.421,1.421,0,0,0,.6-.2.781.781,0,0,0,.4-.4,1.719,1.719,0,0,0,.1-.8,1.952,1.952,0,0,0-.1-.7c-.1-.2-.1-.4-.2-.5v-.1h1.3c.1.3.1.5.2.8A1.826,1.826,0,0,1,308,331.1Z"/>
    </g>
    <path id="XMLID_258_" class="cls-6" d="M273.9,328.2a62.189,62.189,0,0,0-34.3,46.5,52.356,52.356,0,0,0-.3,13.1,22.469,22.469,0,0,1,14.6-5.4,23.373,23.373,0,0,1,21,13.9c2.6-20.3,8.5-39.1,21.3-55.8,2.4-3.1,5-6.2,6.1-10C307.2,312.6,280.5,325,273.9,328.2Z"/>
    <path id="XMLID_257_" class="cls-6" d="M336.5,328.2a62.189,62.189,0,0,1,34.3,46.5,52.354,52.354,0,0,1,.3,13.1,22.469,22.469,0,0,0-14.6-5.4,23.372,23.372,0,0,0-21,13.9c-2.6-20.3-8.5-39.1-21.3-55.8-2.4-3.1-5-6.2-6.1-10C303.2,312.6,329.9,325,336.5,328.2Z"/>
    <path id="XMLID_256_" class="cls-5" d="M399.4,323.4c3.5.5,7,1,10.4,1.5,5,.7,5.4,6.2,3.3,10-2.6,4.6-9.4,5.2-14.2,6.4a81.877,81.877,0,0,1-41.7-.8c-7-2-28.9-9.8-25.6-20.3"/>
    <path id="XMLID_255_" class="cls-7" d="M412.2,271.9c4,3.7,4.7,9.8,4.8,15.3a341.5,341.5,0,0,1-1.7,37.8c-.5,5,1.1,12-5.8,11.4A118.768,118.768,0,0,1,389,332a66.551,66.551,0,0,0-9.7-2.7,35.752,35.752,0,0,1-10-2.9c-7.5-3.7-9.5-12.6-7-20,2.5-7.3,8.6-15.6,13.3-21.9C382.6,275.1,400.4,261,412.2,271.9Z"/>
    <path id="XMLID_254_" class="cls-6" d="M317.4,296.5c7.2-8.4,14.4-16.9,22.9-24s18.4-12.8,29.3-14.8c7-1.3,15.5-.5,19.5,5.5,2.3,3.5,2.5,8,2.6,12.2.4,12.7.7,25.5,1.1,38.2,0,1.3,0,2.9-1,3.7-1.9,1.5-4.4-.6-6.2-2.2-7.5-7-19.3-6.5-29-3.3s-18.7,8.6-28.8,10.3c-5.1.9-11.2.4-14.5-3.6-2.6-3.2-2.8-7.9-1.4-11.8s4-7.2,6.6-10.5"/>
    <path id="XMLID_253_" class="cls-8" d="M315.1,323.5A109.014,109.014,0,0,1,375.7,307c5.7.2,12.7,1.7,14.4,7.2,1.2,3.9-1.2,8.2-4.6,10.5s-7.6,3-11.6,3.6a223.063,223.063,0,0,1-46.2,1.5c-5.3-.4-11.5-1.5-13.9-6.3"/>
    <path id="XMLID_252_" class="cls-5" d="M210.6,322.1c-3.5.5-6.9,1-10.4,1.5-5,.7-5.3,6.2-3.3,10,2.5,4.6,9.4,5.2,14.1,6.4a80.341,80.341,0,0,0,41.3-.8c7-2,28.7-9.8,25.4-20.3"/>
    <path id="XMLID_251_" class="cls-7" d="M197.2,270.6c-4,3.7-4.7,9.8-4.8,15.3a341.5,341.5,0,0,0,1.7,37.8c.5,5-1.1,12,5.8,11.4s13.9-2.5,20.5-4.4a66.551,66.551,0,0,1,9.7-2.7,35.752,35.752,0,0,0,10-2.9c7.5-3.7,9.5-12.6,7-20-2.5-7.3-8.6-15.6-13.3-21.9C226.8,273.7,208.9,259.7,197.2,270.6Z"/>
    <path id="XMLID_250_" class="cls-6" d="M292,295.1c-7.2-8.4-14.4-16.9-22.9-24s-18.4-12.8-29.3-14.8c-7-1.3-15.5-.5-19.5,5.5-2.3,3.5-2.5,8-2.6,12.2-.4,12.7-.7,25.5-1.1,38.2,0,1.3,0,2.9,1,3.7,1.9,1.5,4.4-.6,6.2-2.2,7.5-7,19.3-6.5,29-3.3s18.7,8.6,28.8,10.3c5.1.9,11.2.4,14.5-3.6,2.6-3.2,2.8-7.9,1.4-11.8s-4-7.2-6.6-10.5"/>
    <path id="XMLID_249_" class="cls-8" d="M294.2,322.1a109.014,109.014,0,0,0-60.6-16.5c-5.7.2-12.7,1.7-14.4,7.2-1.2,3.9,1.2,8.2,4.6,10.5s7.6,3,11.6,3.6a223.063,223.063,0,0,0,46.2,1.5c5.3-.4,11.5-1.5,13.9-6.3"/>
    <path id="XMLID_248_" class="cls-9" d="M307.6,335.2h-6.2a12.035,12.035,0,0,1-12-12V306.3a12.035,12.035,0,0,1,12-12h6.2a12.035,12.035,0,0,1,12,12v16.9A12.035,12.035,0,0,1,307.6,335.2Z"/>
    <g id="XMLID_156_">
      <path id="XMLID_157_" class="cls-6" d="M309.5,534.2h-5.2c-.3,0-.5.1-.7.1a1.38,1.38,0,0,0-.4.3,1.483,1.483,0,0,0-.1.7,1.268,1.268,0,0,0,.1.6,2.092,2.092,0,0,0,.4.6h5.9v2.6h-5.2c-.3,0-.5.1-.7.1a1.38,1.38,0,0,0-.4.3,1.85,1.85,0,0,0,0,1.2l.3.6h5.9v2.6h-8.3v-2.6h.9a4.184,4.184,0,0,1-.8-1.2,2.768,2.768,0,0,1-.3-1.3,1.844,1.844,0,0,1,.4-1.3,2.012,2.012,0,0,1,1.1-.9,11,11,0,0,1-1.1-1.4,2.2,2.2,0,0,1-.4-1.3,2.958,2.958,0,0,1,.2-1,1.555,1.555,0,0,1,.6-.8,3.127,3.127,0,0,1,1-.5,5.9,5.9,0,0,1,1.4-.2h5.4v2.8Z"/>
      <path id="XMLID_159_" class="cls-6" d="M309.8,525.4a5.338,5.338,0,0,1-1.1,3.6,4.282,4.282,0,0,1-3.2,1.3,4.62,4.62,0,0,1-3.3-1.2,4.459,4.459,0,0,1-1.2-3.3,3.8,3.8,0,0,1,1-2.9,4.5,4.5,0,0,1,3-1h.9v5.7a2.958,2.958,0,0,0,1-.2,1.024,1.024,0,0,0,.6-.5,1.135,1.135,0,0,0,.3-.8,3.083,3.083,0,0,0,.1-1,2.769,2.769,0,0,0-.1-.9,6.9,6.9,0,0,0-.3-.8l-.3-.6a1.382,1.382,0,0,0-.3-.4v-.3H309a1.421,1.421,0,0,1,.2.6,6.375,6.375,0,0,1,.2.7c.1.3.1.6.2.9A3.6,3.6,0,0,1,309.8,525.4Zm-5.5-.9a1.844,1.844,0,0,0-1.3.4,1.246,1.246,0,0,0-.4,1.1,1.656,1.656,0,0,0,.5,1.2,2.195,2.195,0,0,0,1.2.5v-3.2Z"/>
      <path id="XMLID_162_" class="cls-6" d="M308.6,516c.1.2.3.3.4.5a6.127,6.127,0,0,0,.4.6c.1.2.2.5.3.7a2.22,2.22,0,0,1,.1.9,2.268,2.268,0,0,1-.7,1.8,2.489,2.489,0,0,1-1.9.7,2.41,2.41,0,0,1-1.5-.4,2.012,2.012,0,0,1-.9-1.1,6.865,6.865,0,0,1-.5-1.7,14.919,14.919,0,0,1-.2-2.1h0a1.1,1.1,0,0,0-1,.5,2.81,2.81,0,0,0-.3,1.5,5.159,5.159,0,0,0,.2,1.1c.1.4.3.8.4,1.2v.2h-2a10.371,10.371,0,0,1-.3-1.2,11.135,11.135,0,0,1-.2-1.7,5.074,5.074,0,0,1,.7-3.1,2.459,2.459,0,0,1,2.2-1h5.7V516Zm-1.2,0h-1.7c0,.4.1.8.1,1.1a2.353,2.353,0,0,0,.2.8,1,1,0,0,0,.4.5,1.422,1.422,0,0,0,.6.2c.4,0,.7-.1.8-.3a2,2,0,0,0,.2-.9,1.854,1.854,0,0,0-.2-.7A4.349,4.349,0,0,0,307.4,516Z"/>
      <path id="XMLID_165_" class="cls-6" d="M309.5,508.9v2.6H298v-2.6Z"/>
      <path id="XMLID_167_" class="cls-6" d="M305.2,500a4.826,4.826,0,0,1,3.3,1,3.171,3.171,0,0,1,1.2,2.5,3.749,3.749,0,0,1-.1,1.1,6.9,6.9,0,0,1-.4,1h3.5V507H301.3v-1.4h.9a3.6,3.6,0,0,1-.8-1.2,3.194,3.194,0,0,1-.3-1.4,2.529,2.529,0,0,1,1.1-2.2A4.47,4.47,0,0,1,305.2,500Zm.1,1.4a4.473,4.473,0,0,0-2.2.5,1.645,1.645,0,0,0-.8,1.5,2.016,2.016,0,0,0,.3,1.1,6.726,6.726,0,0,0,.7,1.1H308c.2-.4.3-.7.4-.9a2.768,2.768,0,0,0,.1-.9,2.136,2.136,0,0,0-.8-1.7A3.613,3.613,0,0,0,305.3,501.4Z"/>
      <path id="XMLID_170_" class="cls-6" d="M305.4,491.7a4.4,4.4,0,0,1,3.2,1,3.344,3.344,0,0,1,1.1,2.7,3.16,3.16,0,0,1-1.2,2.7,4.722,4.722,0,0,1-3.2,1,4.4,4.4,0,0,1-3.2-1,3.424,3.424,0,0,1-1.2-2.7,3.693,3.693,0,0,1,1.1-2.7A5.287,5.287,0,0,1,305.4,491.7Zm0,1.4a3.845,3.845,0,0,0-2.4.6,2,2,0,0,0-.8,1.7,2.136,2.136,0,0,0,.8,1.7,3.845,3.845,0,0,0,2.4.6,4.265,4.265,0,0,0,2.4-.6,2.206,2.206,0,0,0,0-3.4A4.265,4.265,0,0,0,305.4,493.1Z"/>
      <path id="XMLID_173_" class="cls-6" d="M309.7,488a7.772,7.772,0,0,1-.2,1.6,3.337,3.337,0,0,1-.5,1.2h-1.6v-.1c.1-.1.2-.3.3-.4a2.092,2.092,0,0,1,.4-.6,6.886,6.886,0,0,0,.3-.8,2.768,2.768,0,0,0,.1-.9,1.7,1.7,0,0,0-.1-.7,4.17,4.17,0,0,0-.2-.6.781.781,0,0,0-.4-.4c-.1-.1-.3-.1-.6-.1a1.136,1.136,0,0,0-.8.3,1.88,1.88,0,0,0-.4,1,2.544,2.544,0,0,1-.2.7c-.1.3-.1.6-.2.8a2.845,2.845,0,0,1-.9,1.4,2.116,2.116,0,0,1-1.4.4,2.342,2.342,0,0,1-1.8-.8,3.232,3.232,0,0,1-.7-2.2,6.752,6.752,0,0,1,.2-1.4,8.339,8.339,0,0,1,.4-1.2h1.5v.1a7.459,7.459,0,0,0-.7,1.2,2.953,2.953,0,0,0-.2,1.3,2.376,2.376,0,0,0,.3,1.2,1.05,1.05,0,0,0,.9.5,1.136,1.136,0,0,0,.8-.3,1.885,1.885,0,0,0,.4-.9,6.373,6.373,0,0,0,.2-.7c.1-.3.1-.5.2-.8a2.733,2.733,0,0,1,.8-1.4,2.251,2.251,0,0,1,1.5-.5,2.958,2.958,0,0,1,1,.2,1.555,1.555,0,0,1,.8.6,8.794,8.794,0,0,1,.6,1A2.362,2.362,0,0,1,309.7,488Z"/>
      <path id="XMLID_175_" class="cls-6" d="M309.7,481a2.139,2.139,0,0,1-.7,1.8,2.928,2.928,0,0,1-2.1.6h-4.6v.9h-1.2v-.9h-2.4V482h2.4v-2.6h1.2V482h4.9a1.421,1.421,0,0,0,.6-.2.781.781,0,0,0,.4-.4,1.719,1.719,0,0,0,.1-.8,1.952,1.952,0,0,0-.1-.7c-.1-.2-.1-.4-.2-.5v-.1h1.3c.1.3.1.5.2.8A1.644,1.644,0,0,1,309.7,481Z"/>
    </g>
    <g id="XMLID_135_">
      <path id="XMLID_136_" class="cls-6" d="M300,415.4h5.2c.3,0,.5-.1.7-.1a1.381,1.381,0,0,0,.4-.3,1.483,1.483,0,0,0,.1-.7,1.268,1.268,0,0,0-.1-.6,2.092,2.092,0,0,0-.4-.6H300v-2.6h5.2c.3,0,.5-.1.7-.1a1.381,1.381,0,0,0,.4-.3,1.85,1.85,0,0,0,0-1.2l-.3-.6h-6v-2.6h8.3v2.6h-.9a4.183,4.183,0,0,1,.8,1.2,2.768,2.768,0,0,1,.3,1.3,1.844,1.844,0,0,1-.4,1.3,2.012,2.012,0,0,1-1.1.9,11.007,11.007,0,0,1,1.1,1.4,2.2,2.2,0,0,1,.4,1.3,2.958,2.958,0,0,1-.2,1,1.555,1.555,0,0,1-.6.8,3.128,3.128,0,0,1-1,.5,5.9,5.9,0,0,1-1.4.2H300Z"/>
      <path id="XMLID_138_" class="cls-6" d="M299.8,424.2a5.338,5.338,0,0,1,1.1-3.6,4.282,4.282,0,0,1,3.2-1.3,4.62,4.62,0,0,1,3.3,1.2,4.459,4.459,0,0,1,1.2,3.3,3.8,3.8,0,0,1-1,2.9,4.5,4.5,0,0,1-3,1h-.9V422a2.958,2.958,0,0,0-1,.2,1.024,1.024,0,0,0-.6.5,1.135,1.135,0,0,0-.3.8,3.083,3.083,0,0,0-.1,1,2.768,2.768,0,0,0,.1.9,6.9,6.9,0,0,0,.3.8l.3.6a1.381,1.381,0,0,0,.3.4v.3h-2.1a1.421,1.421,0,0,1-.2-.6,6.373,6.373,0,0,1-.2-.7c-.1-.3-.1-.6-.2-.9A1.816,1.816,0,0,1,299.8,424.2Zm5.5.9a1.844,1.844,0,0,0,1.3-.4,1.246,1.246,0,0,0,.4-1.1,1.656,1.656,0,0,0-.5-1.2,2.2,2.2,0,0,0-1.2-.5v3.2Z"/>
      <path id="XMLID_141_" class="cls-6" d="M300.9,433.6c-.1-.2-.3-.3-.4-.5a5.917,5.917,0,0,1-.4-.6c-.1-.2-.2-.5-.3-.7a2.22,2.22,0,0,1-.1-.9,2.268,2.268,0,0,1,.7-1.8,2.489,2.489,0,0,1,1.9-.7,2.41,2.41,0,0,1,1.5.4,2.012,2.012,0,0,1,.9,1.1,6.865,6.865,0,0,1,.5,1.7,14.918,14.918,0,0,1,.2,2.1h0a1.1,1.1,0,0,0,1-.5,2.81,2.81,0,0,0,.3-1.5,5.16,5.16,0,0,0-.2-1.1c-.1-.4-.3-.8-.4-1.2v-.2h2a10.371,10.371,0,0,1,.3,1.2,11.135,11.135,0,0,1,.2,1.7,5.075,5.075,0,0,1-.7,3.1,2.459,2.459,0,0,1-2.2,1H300v-2.6Zm1.3,0h1.7c0-.4-.1-.8-.1-1.1a2.353,2.353,0,0,0-.2-.8,1,1,0,0,0-.4-.5,1.421,1.421,0,0,0-.6-.2c-.4,0-.7.1-.8.3a2,2,0,0,0-.2.9,1.854,1.854,0,0,0,.2.7A1.611,1.611,0,0,0,302.2,433.6Z"/>
      <path id="XMLID_144_" class="cls-6" d="M300,440.7v-2.6h11.6v2.6Z"/>
      <path id="XMLID_146_" class="cls-6" d="M304.4,449.7a4.826,4.826,0,0,1-3.3-1,3.171,3.171,0,0,1-1.2-2.5,3.749,3.749,0,0,1,.1-1.1,6.9,6.9,0,0,1,.4-1H297v-1.4h11.4v1.4h-.9a3.6,3.6,0,0,1,.8,1.2,3.194,3.194,0,0,1,.3,1.4,2.529,2.529,0,0,1-1.1,2.2A5.686,5.686,0,0,1,304.4,449.7Zm-.1-1.5a4.473,4.473,0,0,0,2.2-.5,1.645,1.645,0,0,0,.8-1.5,2.016,2.016,0,0,0-.3-1.1,6.726,6.726,0,0,0-.7-1.1h-4.7c-.2.4-.3.7-.4.9a2.768,2.768,0,0,0-.1.9,2.136,2.136,0,0,0,.8,1.7A3.444,3.444,0,0,0,304.3,448.2Z"/>
      <path id="XMLID_149_" class="cls-6" d="M304.2,457.9a4.4,4.4,0,0,1-3.2-1,3.693,3.693,0,0,1-1.1-2.7,3.16,3.16,0,0,1,1.2-2.7,4.722,4.722,0,0,1,3.2-1,4.4,4.4,0,0,1,3.2,1,3.424,3.424,0,0,1,1.2,2.7,3.693,3.693,0,0,1-1.1,2.7A5.287,5.287,0,0,1,304.2,457.9Zm0-1.4a3.845,3.845,0,0,0,2.4-.6,2,2,0,0,0,.8-1.7,2.136,2.136,0,0,0-.8-1.7,3.845,3.845,0,0,0-2.4-.6,4.265,4.265,0,0,0-2.4.6,2.206,2.206,0,0,0,0,3.4A3.845,3.845,0,0,0,304.2,456.5Z"/>
      <path id="XMLID_152_" class="cls-6" d="M299.8,461.6a7.772,7.772,0,0,1,.2-1.6,3.337,3.337,0,0,1,.5-1.2h1.6v.1c-.1.1-.2.3-.3.4a2.092,2.092,0,0,1-.4.6,6.886,6.886,0,0,0-.3.8,2.768,2.768,0,0,0-.1.9,1.7,1.7,0,0,0,.1.7,4.17,4.17,0,0,0,.2.6.781.781,0,0,0,.4.4c.1.1.3.1.6.1a1.136,1.136,0,0,0,.8-.3,1.88,1.88,0,0,0,.4-1,2.544,2.544,0,0,1,.2-.7c.1-.3.1-.6.2-.8a2.845,2.845,0,0,1,.9-1.4,2.116,2.116,0,0,1,1.4-.4,2.342,2.342,0,0,1,1.8.8,3.606,3.606,0,0,1,.7,2.2,6.752,6.752,0,0,1-.2,1.4,8.339,8.339,0,0,1-.4,1.2h-1.5v-.1a7.459,7.459,0,0,0,.7-1.2,2.953,2.953,0,0,0,.2-1.3,2.376,2.376,0,0,0-.3-1.2,1.05,1.05,0,0,0-.9-.5,1.136,1.136,0,0,0-.8.3,1.884,1.884,0,0,0-.4.9,6.373,6.373,0,0,0-.2.7c-.1.3-.1.5-.2.8a2.733,2.733,0,0,1-.8,1.4,2.251,2.251,0,0,1-1.5.5,2.958,2.958,0,0,1-1-.2,1.555,1.555,0,0,1-.8-.6,8.794,8.794,0,0,1-.6-1A3.914,3.914,0,0,1,299.8,461.6Z"/>
      <path id="XMLID_154_" class="cls-6" d="M299.9,468.7a2.139,2.139,0,0,1,.7-1.8,2.928,2.928,0,0,1,2.1-.6h4.6v-.9h1.2v.9h2.4v1.4h-2.4v2.6h-1.2v-2.6h-4.9a1.421,1.421,0,0,0-.6.2.781.781,0,0,0-.4.4,1.719,1.719,0,0,0-.1.8,1.952,1.952,0,0,0,.1.7c.1.2.1.4.2.5v.1h-1.3c-.1-.3-.1-.5-.2-.8A2.042,2.042,0,0,1,299.9,468.7Z"/>
    </g>
    <path id="XMLID_310_" class="cls-1" d="M445.6,548.5H167.9a12.035,12.035,0,0,1-12-12V350.7a12.035,12.035,0,0,1,12-12H445.6a12.035,12.035,0,0,1,12,12V536.4A12.057,12.057,0,0,1,445.6,548.5Z"/>
    <path id="XMLID_309_" class="cls-2" d="M305.3,338.7H160.7a8.049,8.049,0,0,0-7.9,8.2V540a8.114,8.114,0,0,0,7.9,8.2H305.3Z"/>
    <path id="XMLID_298_" class="cls-3" d="M148.6,366.7H457.5l.1,18.6Z"/>
    <path id="XMLID_297_" class="cls-4" d="M463,366.7a7.568,7.568,0,0,0,.1-1.5V342.9c0-5-3.7-9.1-8.1-9.1H155.2c-4.5,0-8.1,4.1-8.1,9.1v22.3a7.568,7.568,0,0,0,.1,1.5Z"/>
    <rect id="XMLID_296_" class="cls-5" width="33.4" height="221.9" transform="translate(287.9 326.3)"/>
    <g id="XMLID_114_">
      <path id="XMLID_115_" class="cls-6" d="M307.8,384.3h-5.2c-.3,0-.5.1-.7.1a1.381,1.381,0,0,0-.4.3,1.483,1.483,0,0,0-.1.7,1.268,1.268,0,0,0,.1.6,2.092,2.092,0,0,0,.4.6h5.9v2.6h-5.2c-.3,0-.5.1-.7.1a1.381,1.381,0,0,0-.4.3,1.85,1.85,0,0,0,0,1.2l.3.6h5.9V394h-8.3v-2.6h.9a4.183,4.183,0,0,1-.8-1.2,2.768,2.768,0,0,1-.3-1.3,1.844,1.844,0,0,1,.4-1.3,2.012,2.012,0,0,1,1.1-.9,11.007,11.007,0,0,1-1.1-1.4,2.2,2.2,0,0,1-.4-1.3,2.958,2.958,0,0,1,.2-1,1.555,1.555,0,0,1,.6-.8,3.128,3.128,0,0,1,1-.5,5.9,5.9,0,0,1,1.4-.2h5.4v2.8Z"/>
      <path id="XMLID_117_" class="cls-6" d="M308.1,375.5a5.338,5.338,0,0,1-1.1,3.6,4.282,4.282,0,0,1-3.2,1.3,4.62,4.62,0,0,1-3.3-1.2,4.459,4.459,0,0,1-1.2-3.3,3.8,3.8,0,0,1,1-2.9,4.5,4.5,0,0,1,3-1h.9v5.7a2.958,2.958,0,0,0,1-.2,1.024,1.024,0,0,0,.6-.5,1.135,1.135,0,0,0,.3-.8,3.083,3.083,0,0,0,.1-1,2.768,2.768,0,0,0-.1-.9,6.9,6.9,0,0,0-.3-.8l-.3-.6a1.381,1.381,0,0,0-.3-.4v-.3h2.1a1.421,1.421,0,0,1,.2.6,6.373,6.373,0,0,1,.2.7c.1.3.1.6.2.9A3.6,3.6,0,0,1,308.1,375.5Zm-5.5-.8a1.844,1.844,0,0,0-1.3.4,1.246,1.246,0,0,0-.4,1.1,1.656,1.656,0,0,0,.5,1.2,2.2,2.2,0,0,0,1.2.5v-3.2Z"/>
      <path id="XMLID_120_" class="cls-6" d="M307,366.2c.1.2.3.3.4.5a5.917,5.917,0,0,1,.4.6c.1.2.2.5.3.7a2.22,2.22,0,0,1,.1.9,2.268,2.268,0,0,1-.7,1.8,2.489,2.489,0,0,1-1.9.7,2.41,2.41,0,0,1-1.5-.4,2.012,2.012,0,0,1-.9-1.1,6.865,6.865,0,0,1-.5-1.7,14.918,14.918,0,0,1-.2-2.1h0a1.1,1.1,0,0,0-1,.5,2.81,2.81,0,0,0-.3,1.5,5.16,5.16,0,0,0,.2,1.1c.1.4.3.8.4,1.2v.2h-2a10.371,10.371,0,0,1-.3-1.2,11.135,11.135,0,0,1-.2-1.7,5.075,5.075,0,0,1,.7-3.1,2.459,2.459,0,0,1,2.2-1h5.7v2.6Zm-1.3,0H304c0,.4.1.8.1,1.1a2.353,2.353,0,0,0,.2.8,1,1,0,0,0,.4.5,1.421,1.421,0,0,0,.6.2c.4,0,.7-.1.8-.3a2,2,0,0,0,.2-.9,1.854,1.854,0,0,0-.2-.7A1.612,1.612,0,0,0,305.7,366.2Z"/>
      <path id="XMLID_123_" class="cls-6" d="M307.8,359.1v2.6H296.2v-2.6Z"/>
      <path id="XMLID_125_" class="cls-6" d="M303.5,350.1a4.826,4.826,0,0,1,3.3,1,3.171,3.171,0,0,1,1.2,2.5,3.749,3.749,0,0,1-.1,1.1,6.9,6.9,0,0,1-.4,1H311v1.4H299.6v-1.4h.9a3.6,3.6,0,0,1-.8-1.2,3.194,3.194,0,0,1-.3-1.4,2.529,2.529,0,0,1,1.1-2.2A5.1,5.1,0,0,1,303.5,350.1Zm.1,1.5a4.473,4.473,0,0,0-2.2.5,1.645,1.645,0,0,0-.8,1.5,2.016,2.016,0,0,0,.3,1.1,6.726,6.726,0,0,0,.7,1.1h4.7c.2-.4.3-.7.4-.9a2.768,2.768,0,0,0,.1-.9,2.136,2.136,0,0,0-.8-1.7A3.612,3.612,0,0,0,303.6,351.6Z"/>
      <path id="XMLID_128_" class="cls-6" d="M303.7,341.8a4.4,4.4,0,0,1,3.2,1,3.693,3.693,0,0,1,1.1,2.7,3.16,3.16,0,0,1-1.2,2.7,4.722,4.722,0,0,1-3.2,1,4.4,4.4,0,0,1-3.2-1,3.424,3.424,0,0,1-1.2-2.7,3.693,3.693,0,0,1,1.1-2.7A5.952,5.952,0,0,1,303.7,341.8Zm0,1.5a3.845,3.845,0,0,0-2.4.6,2,2,0,0,0-.8,1.7,2.136,2.136,0,0,0,.8,1.7,3.845,3.845,0,0,0,2.4.6,4.265,4.265,0,0,0,2.4-.6,2.206,2.206,0,0,0,0-3.4A4.048,4.048,0,0,0,303.7,343.3Z"/>
      <path id="XMLID_131_" class="cls-6" d="M308,338.2a7.772,7.772,0,0,1-.2,1.6,3.337,3.337,0,0,1-.5,1.2h-1.6v-.1c.1-.1.2-.3.3-.4a2.092,2.092,0,0,1,.4-.6,6.886,6.886,0,0,0,.3-.8,2.768,2.768,0,0,0,.1-.9,1.7,1.7,0,0,0-.1-.7,4.17,4.17,0,0,0-.2-.6.781.781,0,0,0-.4-.4c-.1-.1-.3-.1-.6-.1a1.136,1.136,0,0,0-.8.3,1.88,1.88,0,0,0-.4,1,2.544,2.544,0,0,1-.2.7c-.1.3-.1.6-.2.8a2.845,2.845,0,0,1-.9,1.4,2.116,2.116,0,0,1-1.4.4,2.342,2.342,0,0,1-1.8-.8,3.334,3.334,0,0,1-.7-2.3,6.752,6.752,0,0,1,.2-1.4,8.339,8.339,0,0,1,.4-1.2h1.5v.1a7.459,7.459,0,0,0-.7,1.2,2.953,2.953,0,0,0-.2,1.3,2.376,2.376,0,0,0,.3,1.2,1.05,1.05,0,0,0,.9.5,1.136,1.136,0,0,0,.8-.3,1.884,1.884,0,0,0,.4-.9,6.373,6.373,0,0,0,.2-.7c.1-.3.1-.5.2-.8a2.733,2.733,0,0,1,.8-1.4,2.251,2.251,0,0,1,1.5-.5,2.958,2.958,0,0,1,1,.2,1.555,1.555,0,0,1,.8.6,8.794,8.794,0,0,1,.6,1A2.762,2.762,0,0,1,308,338.2Z"/>
      <path id="XMLID_133_" class="cls-6" d="M308,331.1a2.139,2.139,0,0,1-.7,1.8,2.928,2.928,0,0,1-2.1.6h-4.6v.9h-1.2v-.9H297v-1.4h2.4v-2.6h1.2v2.6h4.9a1.421,1.421,0,0,0,.6-.2.781.781,0,0,0,.4-.4,1.719,1.719,0,0,0,.1-.8,1.952,1.952,0,0,0-.1-.7c-.1-.2-.1-.4-.2-.5v-.1h1.3c.1.3.1.5.2.8A1.826,1.826,0,0,1,308,331.1Z"/>
    </g>
    <path id="XMLID_294_" class="cls-6" d="M273.9,328.2a62.189,62.189,0,0,0-34.3,46.5,52.356,52.356,0,0,0-.3,13.1,22.469,22.469,0,0,1,14.6-5.4,23.373,23.373,0,0,1,21,13.9c2.6-20.3,8.5-39.1,21.3-55.8,2.4-3.1,5-6.2,6.1-10C307.2,312.6,280.5,325,273.9,328.2Z"/>
    <path id="XMLID_293_" class="cls-6" d="M336.5,328.2a62.189,62.189,0,0,1,34.3,46.5,52.354,52.354,0,0,1,.3,13.1,22.469,22.469,0,0,0-14.6-5.4,23.372,23.372,0,0,0-21,13.9c-2.6-20.3-8.5-39.1-21.3-55.8-2.4-3.1-5-6.2-6.1-10C303.2,312.6,329.9,325,336.5,328.2Z"/>
    <path id="XMLID_292_" class="cls-5" d="M399.4,323.4c3.5.5,7,1,10.4,1.5,5,.7,5.4,6.2,3.3,10-2.6,4.6-9.4,5.2-14.2,6.4a81.877,81.877,0,0,1-41.7-.8c-7-2-28.9-9.8-25.6-20.3"/>
    <path id="XMLID_291_" class="cls-7" d="M412.2,271.9c4,3.7,4.7,9.8,4.8,15.3a341.5,341.5,0,0,1-1.7,37.8c-.5,5,1.1,12-5.8,11.4A118.768,118.768,0,0,1,389,332a66.551,66.551,0,0,0-9.7-2.7,35.752,35.752,0,0,1-10-2.9c-7.5-3.7-9.5-12.6-7-20,2.5-7.3,8.6-15.6,13.3-21.9C382.6,275.1,400.4,261,412.2,271.9Z"/>
    <path id="XMLID_290_" class="cls-6" d="M317.4,296.5c7.2-8.4,14.4-16.9,22.9-24s18.4-12.8,29.3-14.8c7-1.3,15.5-.5,19.5,5.5,2.3,3.5,2.5,8,2.6,12.2.4,12.7.7,25.5,1.1,38.2,0,1.3,0,2.9-1,3.7-1.9,1.5-4.4-.6-6.2-2.2-7.5-7-19.3-6.5-29-3.3s-18.7,8.6-28.8,10.3c-5.1.9-11.2.4-14.5-3.6-2.6-3.2-2.8-7.9-1.4-11.8s4-7.2,6.6-10.5"/>
    <path id="XMLID_289_" class="cls-8" d="M315.1,323.5A109.014,109.014,0,0,1,375.7,307c5.7.2,12.7,1.7,14.4,7.2,1.2,3.9-1.2,8.2-4.6,10.5s-7.6,3-11.6,3.6a223.063,223.063,0,0,1-46.2,1.5c-5.3-.4-11.5-1.5-13.9-6.3"/>
    <path id="XMLID_288_" class="cls-5" d="M210.6,322.1c-3.5.5-6.9,1-10.4,1.5-5,.7-5.3,6.2-3.3,10,2.5,4.6,9.4,5.2,14.1,6.4a80.341,80.341,0,0,0,41.3-.8c7-2,28.7-9.8,25.4-20.3"/>
    <path id="XMLID_287_" class="cls-7" d="M197.2,270.6c-4,3.7-4.7,9.8-4.8,15.3a341.5,341.5,0,0,0,1.7,37.8c.5,5-1.1,12,5.8,11.4s13.9-2.5,20.5-4.4a66.551,66.551,0,0,1,9.7-2.7,35.752,35.752,0,0,0,10-2.9c7.5-3.7,9.5-12.6,7-20-2.5-7.3-8.6-15.6-13.3-21.9C226.8,273.7,208.9,259.7,197.2,270.6Z"/>
    <path id="XMLID_286_" class="cls-6" d="M292,295.1c-7.2-8.4-14.4-16.9-22.9-24s-18.4-12.8-29.3-14.8c-7-1.3-15.5-.5-19.5,5.5-2.3,3.5-2.5,8-2.6,12.2-.4,12.7-.7,25.5-1.1,38.2,0,1.3,0,2.9,1,3.7,1.9,1.5,4.4-.6,6.2-2.2,7.5-7,19.3-6.5,29-3.3s18.7,8.6,28.8,10.3c5.1.9,11.2.4,14.5-3.6,2.6-3.2,2.8-7.9,1.4-11.8s-4-7.2-6.6-10.5"/>
    <path id="XMLID_281_" class="cls-8" d="M294.2,322.1a109.014,109.014,0,0,0-60.6-16.5c-5.7.2-12.7,1.7-14.4,7.2-1.2,3.9,1.2,8.2,4.6,10.5s7.6,3,11.6,3.6a223.063,223.063,0,0,0,46.2,1.5c5.3-.4,11.5-1.5,13.9-6.3"/>
    <path id="XMLID_280_" class="cls-9" d="M307.6,335.2h-6.2a12.035,12.035,0,0,1-12-12V306.3a12.035,12.035,0,0,1,12-12h6.2a12.035,12.035,0,0,1,12,12v16.9A12.035,12.035,0,0,1,307.6,335.2Z"/>
    <g id="XMLID_93_">
      <path id="XMLID_94_" class="cls-6" d="M309.5,534.2h-5.2c-.3,0-.5.1-.7.1a1.38,1.38,0,0,0-.4.3,1.483,1.483,0,0,0-.1.7,1.268,1.268,0,0,0,.1.6,2.092,2.092,0,0,0,.4.6h5.9v2.6h-5.2c-.3,0-.5.1-.7.1a1.38,1.38,0,0,0-.4.3,1.85,1.85,0,0,0,0,1.2l.3.6h5.9v2.6h-8.3v-2.6h.9a4.184,4.184,0,0,1-.8-1.2,2.768,2.768,0,0,1-.3-1.3,1.844,1.844,0,0,1,.4-1.3,2.012,2.012,0,0,1,1.1-.9,11,11,0,0,1-1.1-1.4,2.2,2.2,0,0,1-.4-1.3,2.958,2.958,0,0,1,.2-1,1.555,1.555,0,0,1,.6-.8,3.127,3.127,0,0,1,1-.5,5.9,5.9,0,0,1,1.4-.2h5.4v2.8Z"/>
      <path id="XMLID_96_" class="cls-6" d="M309.8,525.4a5.338,5.338,0,0,1-1.1,3.6,4.282,4.282,0,0,1-3.2,1.3,4.62,4.62,0,0,1-3.3-1.2,4.459,4.459,0,0,1-1.2-3.3,3.8,3.8,0,0,1,1-2.9,4.5,4.5,0,0,1,3-1h.9v5.7a2.958,2.958,0,0,0,1-.2,1.024,1.024,0,0,0,.6-.5,1.135,1.135,0,0,0,.3-.8,3.083,3.083,0,0,0,.1-1,2.769,2.769,0,0,0-.1-.9,6.9,6.9,0,0,0-.3-.8l-.3-.6a1.382,1.382,0,0,0-.3-.4v-.3H309a1.421,1.421,0,0,1,.2.6,6.375,6.375,0,0,1,.2.7c.1.3.1.6.2.9A3.6,3.6,0,0,1,309.8,525.4Zm-5.5-.9a1.844,1.844,0,0,0-1.3.4,1.246,1.246,0,0,0-.4,1.1,1.656,1.656,0,0,0,.5,1.2,2.195,2.195,0,0,0,1.2.5v-3.2Z"/>
      <path id="XMLID_99_" class="cls-6" d="M308.6,516c.1.2.3.3.4.5a6.127,6.127,0,0,0,.4.6c.1.2.2.5.3.7a2.22,2.22,0,0,1,.1.9,2.268,2.268,0,0,1-.7,1.8,2.489,2.489,0,0,1-1.9.7,2.41,2.41,0,0,1-1.5-.4,2.012,2.012,0,0,1-.9-1.1,6.865,6.865,0,0,1-.5-1.7,14.919,14.919,0,0,1-.2-2.1h0a1.1,1.1,0,0,0-1,.5,2.81,2.81,0,0,0-.3,1.5,5.159,5.159,0,0,0,.2,1.1c.1.4.3.8.4,1.2v.2h-2a10.371,10.371,0,0,1-.3-1.2,11.135,11.135,0,0,1-.2-1.7,5.074,5.074,0,0,1,.7-3.1,2.459,2.459,0,0,1,2.2-1h5.7V516Zm-1.2,0h-1.7c0,.4.1.8.1,1.1a2.353,2.353,0,0,0,.2.8,1,1,0,0,0,.4.5,1.422,1.422,0,0,0,.6.2c.4,0,.7-.1.8-.3a2,2,0,0,0,.2-.9,1.854,1.854,0,0,0-.2-.7A4.349,4.349,0,0,0,307.4,516Z"/>
      <path id="XMLID_102_" class="cls-6" d="M309.5,508.9v2.6H298v-2.6Z"/>
      <path id="XMLID_104_" class="cls-6" d="M305.2,500a4.826,4.826,0,0,1,3.3,1,3.171,3.171,0,0,1,1.2,2.5,3.749,3.749,0,0,1-.1,1.1,6.9,6.9,0,0,1-.4,1h3.5V507H301.3v-1.4h.9a3.6,3.6,0,0,1-.8-1.2,3.194,3.194,0,0,1-.3-1.4,2.529,2.529,0,0,1,1.1-2.2A4.47,4.47,0,0,1,305.2,500Zm.1,1.4a4.473,4.473,0,0,0-2.2.5,1.645,1.645,0,0,0-.8,1.5,2.016,2.016,0,0,0,.3,1.1,6.726,6.726,0,0,0,.7,1.1H308c.2-.4.3-.7.4-.9a2.768,2.768,0,0,0,.1-.9,2.136,2.136,0,0,0-.8-1.7A3.613,3.613,0,0,0,305.3,501.4Z"/>
      <path id="XMLID_107_" class="cls-6" d="M305.4,491.7a4.4,4.4,0,0,1,3.2,1,3.344,3.344,0,0,1,1.1,2.7,3.16,3.16,0,0,1-1.2,2.7,4.722,4.722,0,0,1-3.2,1,4.4,4.4,0,0,1-3.2-1,3.424,3.424,0,0,1-1.2-2.7,3.693,3.693,0,0,1,1.1-2.7A5.287,5.287,0,0,1,305.4,491.7Zm0,1.4a3.845,3.845,0,0,0-2.4.6,2,2,0,0,0-.8,1.7,2.136,2.136,0,0,0,.8,1.7,3.845,3.845,0,0,0,2.4.6,4.265,4.265,0,0,0,2.4-.6,2.206,2.206,0,0,0,0-3.4A4.265,4.265,0,0,0,305.4,493.1Z"/>
      <path id="XMLID_110_" class="cls-6" d="M309.7,488a7.772,7.772,0,0,1-.2,1.6,3.337,3.337,0,0,1-.5,1.2h-1.6v-.1c.1-.1.2-.3.3-.4a2.092,2.092,0,0,1,.4-.6,6.886,6.886,0,0,0,.3-.8,2.768,2.768,0,0,0,.1-.9,1.7,1.7,0,0,0-.1-.7,4.17,4.17,0,0,0-.2-.6.781.781,0,0,0-.4-.4c-.1-.1-.3-.1-.6-.1a1.136,1.136,0,0,0-.8.3,1.88,1.88,0,0,0-.4,1,2.544,2.544,0,0,1-.2.7c-.1.3-.1.6-.2.8a2.845,2.845,0,0,1-.9,1.4,2.116,2.116,0,0,1-1.4.4,2.342,2.342,0,0,1-1.8-.8,3.232,3.232,0,0,1-.7-2.2,6.752,6.752,0,0,1,.2-1.4,8.339,8.339,0,0,1,.4-1.2h1.5v.1a7.459,7.459,0,0,0-.7,1.2,2.953,2.953,0,0,0-.2,1.3,2.376,2.376,0,0,0,.3,1.2,1.05,1.05,0,0,0,.9.5,1.136,1.136,0,0,0,.8-.3,1.885,1.885,0,0,0,.4-.9,6.373,6.373,0,0,0,.2-.7c.1-.3.1-.5.2-.8a2.733,2.733,0,0,1,.8-1.4,2.251,2.251,0,0,1,1.5-.5,2.958,2.958,0,0,1,1,.2,1.555,1.555,0,0,1,.8.6,8.794,8.794,0,0,1,.6,1A2.362,2.362,0,0,1,309.7,488Z"/>
      <path id="XMLID_112_" class="cls-6" d="M309.7,481a2.139,2.139,0,0,1-.7,1.8,2.928,2.928,0,0,1-2.1.6h-4.6v.9h-1.2v-.9h-2.4V482h2.4v-2.6h1.2V482h4.9a1.421,1.421,0,0,0,.6-.2.781.781,0,0,0,.4-.4,1.719,1.719,0,0,0,.1-.8,1.952,1.952,0,0,0-.1-.7c-.1-.2-.1-.4-.2-.5v-.1h1.3c.1.3.1.5.2.8A1.644,1.644,0,0,1,309.7,481Z"/>
    </g>
    <g id="XMLID_72_">
      <path id="XMLID_73_" class="cls-6" d="M300,415.4h5.2c.3,0,.5-.1.7-.1a1.381,1.381,0,0,0,.4-.3,1.483,1.483,0,0,0,.1-.7,1.268,1.268,0,0,0-.1-.6,2.092,2.092,0,0,0-.4-.6H300v-2.6h5.2c.3,0,.5-.1.7-.1a1.381,1.381,0,0,0,.4-.3,1.85,1.85,0,0,0,0-1.2l-.3-.6h-6v-2.6h8.3v2.6h-.9a4.183,4.183,0,0,1,.8,1.2,2.768,2.768,0,0,1,.3,1.3,1.844,1.844,0,0,1-.4,1.3,2.012,2.012,0,0,1-1.1.9,11.007,11.007,0,0,1,1.1,1.4,2.2,2.2,0,0,1,.4,1.3,2.958,2.958,0,0,1-.2,1,1.555,1.555,0,0,1-.6.8,3.128,3.128,0,0,1-1,.5,5.9,5.9,0,0,1-1.4.2H300Z"/>
      <path id="XMLID_75_" class="cls-6" d="M299.8,424.2a5.338,5.338,0,0,1,1.1-3.6,4.282,4.282,0,0,1,3.2-1.3,4.62,4.62,0,0,1,3.3,1.2,4.459,4.459,0,0,1,1.2,3.3,3.8,3.8,0,0,1-1,2.9,4.5,4.5,0,0,1-3,1h-.9V422a2.958,2.958,0,0,0-1,.2,1.024,1.024,0,0,0-.6.5,1.135,1.135,0,0,0-.3.8,3.083,3.083,0,0,0-.1,1,2.768,2.768,0,0,0,.1.9,6.9,6.9,0,0,0,.3.8l.3.6a1.381,1.381,0,0,0,.3.4v.3h-2.1a1.421,1.421,0,0,1-.2-.6,6.373,6.373,0,0,1-.2-.7c-.1-.3-.1-.6-.2-.9A1.816,1.816,0,0,1,299.8,424.2Zm5.5.9a1.844,1.844,0,0,0,1.3-.4,1.246,1.246,0,0,0,.4-1.1,1.656,1.656,0,0,0-.5-1.2,2.2,2.2,0,0,0-1.2-.5v3.2Z"/>
      <path id="XMLID_78_" class="cls-6" d="M300.9,433.6c-.1-.2-.3-.3-.4-.5a5.917,5.917,0,0,1-.4-.6c-.1-.2-.2-.5-.3-.7a2.22,2.22,0,0,1-.1-.9,2.268,2.268,0,0,1,.7-1.8,2.489,2.489,0,0,1,1.9-.7,2.41,2.41,0,0,1,1.5.4,2.012,2.012,0,0,1,.9,1.1,6.865,6.865,0,0,1,.5,1.7,14.918,14.918,0,0,1,.2,2.1h0a1.1,1.1,0,0,0,1-.5,2.81,2.81,0,0,0,.3-1.5,5.16,5.16,0,0,0-.2-1.1c-.1-.4-.3-.8-.4-1.2v-.2h2a10.371,10.371,0,0,1,.3,1.2,11.135,11.135,0,0,1,.2,1.7,5.075,5.075,0,0,1-.7,3.1,2.459,2.459,0,0,1-2.2,1H300v-2.6Zm1.3,0h1.7c0-.4-.1-.8-.1-1.1a2.353,2.353,0,0,0-.2-.8,1,1,0,0,0-.4-.5,1.421,1.421,0,0,0-.6-.2c-.4,0-.7.1-.8.3a2,2,0,0,0-.2.9,1.854,1.854,0,0,0,.2.7A1.611,1.611,0,0,0,302.2,433.6Z"/>
      <path id="XMLID_81_" class="cls-6" d="M300,440.7v-2.6h11.6v2.6Z"/>
      <path id="XMLID_83_" class="cls-6" d="M304.4,449.7a4.826,4.826,0,0,1-3.3-1,3.171,3.171,0,0,1-1.2-2.5,3.749,3.749,0,0,1,.1-1.1,6.9,6.9,0,0,1,.4-1H297v-1.4h11.4v1.4h-.9a3.6,3.6,0,0,1,.8,1.2,3.194,3.194,0,0,1,.3,1.4,2.529,2.529,0,0,1-1.1,2.2A5.686,5.686,0,0,1,304.4,449.7Zm-.1-1.5a4.473,4.473,0,0,0,2.2-.5,1.645,1.645,0,0,0,.8-1.5,2.016,2.016,0,0,0-.3-1.1,6.726,6.726,0,0,0-.7-1.1h-4.7c-.2.4-.3.7-.4.9a2.768,2.768,0,0,0-.1.9,2.136,2.136,0,0,0,.8,1.7A3.444,3.444,0,0,0,304.3,448.2Z"/>
      <path id="XMLID_86_" class="cls-6" d="M304.2,457.9a4.4,4.4,0,0,1-3.2-1,3.693,3.693,0,0,1-1.1-2.7,3.16,3.16,0,0,1,1.2-2.7,4.722,4.722,0,0,1,3.2-1,4.4,4.4,0,0,1,3.2,1,3.424,3.424,0,0,1,1.2,2.7,3.693,3.693,0,0,1-1.1,2.7A5.287,5.287,0,0,1,304.2,457.9Zm0-1.4a3.845,3.845,0,0,0,2.4-.6,2,2,0,0,0,.8-1.7,2.136,2.136,0,0,0-.8-1.7,3.845,3.845,0,0,0-2.4-.6,4.265,4.265,0,0,0-2.4.6,2.206,2.206,0,0,0,0,3.4A3.845,3.845,0,0,0,304.2,456.5Z"/>
      <path id="XMLID_89_" class="cls-6" d="M299.8,461.6a7.772,7.772,0,0,1,.2-1.6,3.337,3.337,0,0,1,.5-1.2h1.6v.1c-.1.1-.2.3-.3.4a2.092,2.092,0,0,1-.4.6,6.886,6.886,0,0,0-.3.8,2.768,2.768,0,0,0-.1.9,1.7,1.7,0,0,0,.1.7,4.17,4.17,0,0,0,.2.6.781.781,0,0,0,.4.4c.1.1.3.1.6.1a1.136,1.136,0,0,0,.8-.3,1.88,1.88,0,0,0,.4-1,2.544,2.544,0,0,1,.2-.7c.1-.3.1-.6.2-.8a2.845,2.845,0,0,1,.9-1.4,2.116,2.116,0,0,1,1.4-.4,2.342,2.342,0,0,1,1.8.8,3.606,3.606,0,0,1,.7,2.2,6.752,6.752,0,0,1-.2,1.4,8.339,8.339,0,0,1-.4,1.2h-1.5v-.1a7.459,7.459,0,0,0,.7-1.2,2.953,2.953,0,0,0,.2-1.3,2.376,2.376,0,0,0-.3-1.2,1.05,1.05,0,0,0-.9-.5,1.136,1.136,0,0,0-.8.3,1.884,1.884,0,0,0-.4.9,6.373,6.373,0,0,0-.2.7c-.1.3-.1.5-.2.8a2.733,2.733,0,0,1-.8,1.4,2.251,2.251,0,0,1-1.5.5,2.958,2.958,0,0,1-1-.2,1.555,1.555,0,0,1-.8-.6,8.794,8.794,0,0,1-.6-1A3.914,3.914,0,0,1,299.8,461.6Z"/>
      <path id="XMLID_91_" class="cls-6" d="M299.9,468.7a2.139,2.139,0,0,1,.7-1.8,2.928,2.928,0,0,1,2.1-.6h4.6v-.9h1.2v.9h2.4v1.4h-2.4v2.6h-1.2v-2.6h-4.9a1.421,1.421,0,0,0-.6.2.781.781,0,0,0-.4.4,1.719,1.719,0,0,0-.1.8,1.952,1.952,0,0,0,.1.7c.1.2.1.4.2.5v.1h-1.3c-.1-.3-.1-.5-.2-.8A2.042,2.042,0,0,1,299.9,468.7Z"/>
    </g>
    <path id="XMLID_337_" class="cls-1" d="M445.6,548.5H167.9a12.035,12.035,0,0,1-12-12V350.7a12.035,12.035,0,0,1,12-12H445.6a12.035,12.035,0,0,1,12,12V536.4A12.057,12.057,0,0,1,445.6,548.5Z"/>
    <path id="XMLID_336_" class="cls-2" d="M305.3,338.7H160.7a8.049,8.049,0,0,0-7.9,8.2V540a8.114,8.114,0,0,0,7.9,8.2H305.3Z"/>
    <path id="XMLID_328_" class="cls-3" d="M148.6,366.7H457.5l.1,18.6Z"/>
    <path id="XMLID_327_" class="cls-4" d="M463,366.7a7.568,7.568,0,0,0,.1-1.5V342.9c0-5-3.7-9.1-8.1-9.1H155.2c-4.5,0-8.1,4.1-8.1,9.1v22.3a7.568,7.568,0,0,0,.1,1.5Z"/>
    <rect id="XMLID_326_" class="cls-10" width="33.4" height="221.9" transform="translate(287.9 326.3)"/>
    <g id="XMLID_51_">
      <g id="XMLID_467_">
        <path id="XMLID_486_" class="cls-11" d="M307.8,384.3h-5.2c-.3,0-.5.1-.7.1a1.381,1.381,0,0,0-.4.3,1.483,1.483,0,0,0-.1.7,1.268,1.268,0,0,0,.1.6,2.092,2.092,0,0,0,.4.6h5.9v2.6h-5.2c-.3,0-.5.1-.7.1a1.381,1.381,0,0,0-.4.3,1.85,1.85,0,0,0,0,1.2l.3.6h5.9V394h-8.3v-2.6h.9a4.183,4.183,0,0,1-.8-1.2,2.768,2.768,0,0,1-.3-1.3,1.844,1.844,0,0,1,.4-1.3,2.012,2.012,0,0,1,1.1-.9,11.007,11.007,0,0,1-1.1-1.4,2.2,2.2,0,0,1-.4-1.3,2.958,2.958,0,0,1,.2-1,1.555,1.555,0,0,1,.6-.8,3.128,3.128,0,0,1,1-.5,5.9,5.9,0,0,1,1.4-.2h5.4v2.8Z"/>
        <path id="XMLID_483_" class="cls-11" d="M308.1,375.5a5.338,5.338,0,0,1-1.1,3.6,4.282,4.282,0,0,1-3.2,1.3,4.62,4.62,0,0,1-3.3-1.2,4.459,4.459,0,0,1-1.2-3.3,3.8,3.8,0,0,1,1-2.9,4.5,4.5,0,0,1,3-1h.9v5.7a2.958,2.958,0,0,0,1-.2,1.024,1.024,0,0,0,.6-.5,1.135,1.135,0,0,0,.3-.8,3.083,3.083,0,0,0,.1-1,2.768,2.768,0,0,0-.1-.9,6.9,6.9,0,0,0-.3-.8l-.3-.6a1.381,1.381,0,0,0-.3-.4v-.3h2.1a1.421,1.421,0,0,1,.2.6,6.373,6.373,0,0,1,.2.7c.1.3.1.6.2.9A3.6,3.6,0,0,1,308.1,375.5Zm-5.5-.8a1.844,1.844,0,0,0-1.3.4,1.246,1.246,0,0,0-.4,1.1,1.656,1.656,0,0,0,.5,1.2,2.2,2.2,0,0,0,1.2.5v-3.2Z"/>
        <path id="XMLID_480_" class="cls-11" d="M307,366.2c.1.2.3.3.4.5a5.917,5.917,0,0,1,.4.6c.1.2.2.5.3.7a2.22,2.22,0,0,1,.1.9,2.268,2.268,0,0,1-.7,1.8,2.489,2.489,0,0,1-1.9.7,2.41,2.41,0,0,1-1.5-.4,2.012,2.012,0,0,1-.9-1.1,6.865,6.865,0,0,1-.5-1.7,14.918,14.918,0,0,1-.2-2.1h0a1.1,1.1,0,0,0-1,.5,2.81,2.81,0,0,0-.3,1.5,5.16,5.16,0,0,0,.2,1.1c.1.4.3.8.4,1.2v.2h-2a10.371,10.371,0,0,1-.3-1.2,11.135,11.135,0,0,1-.2-1.7,5.075,5.075,0,0,1,.7-3.1,2.459,2.459,0,0,1,2.2-1h5.7v2.6Zm-1.3,0H304c0,.4.1.8.1,1.1a2.353,2.353,0,0,0,.2.8,1,1,0,0,0,.4.5,1.421,1.421,0,0,0,.6.2c.4,0,.7-.1.8-.3a2,2,0,0,0,.2-.9,1.854,1.854,0,0,0-.2-.7A1.612,1.612,0,0,0,305.7,366.2Z"/>
        <path id="XMLID_478_" class="cls-11" d="M307.8,359.1v2.6H296.2v-2.6Z"/>
        <path id="XMLID_475_" class="cls-11" d="M303.5,350.1a4.826,4.826,0,0,1,3.3,1,3.171,3.171,0,0,1,1.2,2.5,3.749,3.749,0,0,1-.1,1.1,6.9,6.9,0,0,1-.4,1H311v1.4H299.6v-1.4h.9a3.6,3.6,0,0,1-.8-1.2,3.194,3.194,0,0,1-.3-1.4,2.529,2.529,0,0,1,1.1-2.2A5.1,5.1,0,0,1,303.5,350.1Zm.1,1.5a4.473,4.473,0,0,0-2.2.5,1.645,1.645,0,0,0-.8,1.5,2.016,2.016,0,0,0,.3,1.1,6.726,6.726,0,0,0,.7,1.1h4.7c.2-.4.3-.7.4-.9a2.768,2.768,0,0,0,.1-.9,2.136,2.136,0,0,0-.8-1.7A3.612,3.612,0,0,0,303.6,351.6Z"/>
        <path id="XMLID_472_" class="cls-11" d="M303.7,341.8a4.4,4.4,0,0,1,3.2,1,3.693,3.693,0,0,1,1.1,2.7,3.16,3.16,0,0,1-1.2,2.7,4.722,4.722,0,0,1-3.2,1,4.4,4.4,0,0,1-3.2-1,3.424,3.424,0,0,1-1.2-2.7,3.693,3.693,0,0,1,1.1-2.7A5.952,5.952,0,0,1,303.7,341.8Zm0,1.5a3.845,3.845,0,0,0-2.4.6,2,2,0,0,0-.8,1.7,2.136,2.136,0,0,0,.8,1.7,3.845,3.845,0,0,0,2.4.6,4.265,4.265,0,0,0,2.4-.6,2.206,2.206,0,0,0,0-3.4A4.048,4.048,0,0,0,303.7,343.3Z"/>
        <path id="XMLID_470_" class="cls-11" d="M308,338.2a7.772,7.772,0,0,1-.2,1.6,3.337,3.337,0,0,1-.5,1.2h-1.6v-.1c.1-.1.2-.3.3-.4a2.092,2.092,0,0,1,.4-.6,6.886,6.886,0,0,0,.3-.8,2.768,2.768,0,0,0,.1-.9,1.7,1.7,0,0,0-.1-.7,4.17,4.17,0,0,0-.2-.6.781.781,0,0,0-.4-.4c-.1-.1-.3-.1-.6-.1a1.136,1.136,0,0,0-.8.3,1.88,1.88,0,0,0-.4,1,2.544,2.544,0,0,1-.2.7c-.1.3-.1.6-.2.8a2.845,2.845,0,0,1-.9,1.4,2.116,2.116,0,0,1-1.4.4,2.342,2.342,0,0,1-1.8-.8,3.334,3.334,0,0,1-.7-2.3,6.752,6.752,0,0,1,.2-1.4,8.339,8.339,0,0,1,.4-1.2h1.5v.1a7.459,7.459,0,0,0-.7,1.2,2.953,2.953,0,0,0-.2,1.3,2.376,2.376,0,0,0,.3,1.2,1.05,1.05,0,0,0,.9.5,1.136,1.136,0,0,0,.8-.3,1.884,1.884,0,0,0,.4-.9,6.373,6.373,0,0,0,.2-.7c.1-.3.1-.5.2-.8a2.733,2.733,0,0,1,.8-1.4,2.251,2.251,0,0,1,1.5-.5,2.958,2.958,0,0,1,1,.2,1.555,1.555,0,0,1,.8.6,8.794,8.794,0,0,1,.6,1A2.762,2.762,0,0,1,308,338.2Z"/>
        <path id="XMLID_468_" class="cls-11" d="M308,331.1a2.139,2.139,0,0,1-.7,1.8,2.928,2.928,0,0,1-2.1.6h-4.6v.9h-1.2v-.9H297v-1.4h2.4v-2.6h1.2v2.6h4.9a1.421,1.421,0,0,0,.6-.2.781.781,0,0,0,.4-.4,1.719,1.719,0,0,0,.1-.8,1.952,1.952,0,0,0-.1-.7c-.1-.2-.1-.4-.2-.5v-.1h1.3c.1.3.1.5.2.8A1.826,1.826,0,0,1,308,331.1Z"/>
      </g>
    </g>
    <path id="XMLID_324_" class="cls-11" d="M273.9,328.2a62.189,62.189,0,0,0-34.3,46.5,52.356,52.356,0,0,0-.3,13.1,22.469,22.469,0,0,1,14.6-5.4,23.373,23.373,0,0,1,21,13.9c2.6-20.3,8.5-39.1,21.3-55.8,2.4-3.1,5-6.2,6.1-10C307.2,312.6,280.5,325,273.9,328.2Z"/>
    <path id="XMLID_323_" class="cls-11" d="M336.5,328.2a62.189,62.189,0,0,1,34.3,46.5,52.354,52.354,0,0,1,.3,13.1,22.469,22.469,0,0,0-14.6-5.4,23.372,23.372,0,0,0-21,13.9c-2.6-20.3-8.5-39.1-21.3-55.8-2.4-3.1-5-6.2-6.1-10C303.2,312.6,329.9,325,336.5,328.2Z"/>
    <path id="XMLID_322_" class="cls-10" d="M399.4,323.4c3.5.5,7,1,10.4,1.5,5,.7,5.4,6.2,3.3,10-2.6,4.6-9.4,5.2-14.2,6.4a81.877,81.877,0,0,1-41.7-.8c-7-2-28.9-9.8-25.6-20.3"/>
    <path id="XMLID_321_" class="cls-12" d="M412.2,271.9c4,3.7,4.7,9.8,4.8,15.3a341.5,341.5,0,0,1-1.7,37.8c-.5,5,1.1,12-5.8,11.4A118.768,118.768,0,0,1,389,332a66.551,66.551,0,0,0-9.7-2.7,35.752,35.752,0,0,1-10-2.9c-7.5-3.7-9.5-12.6-7-20,2.5-7.3,8.6-15.6,13.3-21.9C382.6,275.1,400.4,261,412.2,271.9Z"/>
    <path id="XMLID_320_" class="cls-11" d="M317.4,296.5c7.2-8.4,14.4-16.9,22.9-24s18.4-12.8,29.3-14.8c7-1.3,15.5-.5,19.5,5.5,2.3,3.5,2.5,8,2.6,12.2.4,12.7.7,25.5,1.1,38.2,0,1.3,0,2.9-1,3.7-1.9,1.5-4.4-.6-6.2-2.2-7.5-7-19.3-6.5-29-3.3s-18.7,8.6-28.8,10.3c-5.1.9-11.2.4-14.5-3.6-2.6-3.2-2.8-7.9-1.4-11.8s4-7.2,6.6-10.5"/>
    <path id="XMLID_319_" class="cls-6" d="M315.1,323.5A109.014,109.014,0,0,1,375.7,307c5.7.2,12.7,1.7,14.4,7.2,1.2,3.9-1.2,8.2-4.6,10.5s-7.6,3-11.6,3.6a223.063,223.063,0,0,1-46.2,1.5c-5.3-.4-11.5-1.5-13.9-6.3"/>
    <path id="XMLID_318_" class="cls-10" d="M210.6,322.1c-3.5.5-6.9,1-10.4,1.5-5,.7-5.3,6.2-3.3,10,2.5,4.6,9.4,5.2,14.1,6.4a80.341,80.341,0,0,0,41.3-.8c7-2,28.7-9.8,25.4-20.3"/>
    <path id="XMLID_317_" class="cls-12" d="M197.2,270.6c-4,3.7-4.7,9.8-4.8,15.3a341.5,341.5,0,0,0,1.7,37.8c.5,5-1.1,12,5.8,11.4s13.9-2.5,20.5-4.4a66.551,66.551,0,0,1,9.7-2.7,35.752,35.752,0,0,0,10-2.9c7.5-3.7,9.5-12.6,7-20-2.5-7.3-8.6-15.6-13.3-21.9C226.8,273.7,208.9,259.7,197.2,270.6Z"/>
    <path id="XMLID_316_" class="cls-11" d="M292,295.1c-7.2-8.4-14.4-16.9-22.9-24s-18.4-12.8-29.3-14.8c-7-1.3-15.5-.5-19.5,5.5-2.3,3.5-2.5,8-2.6,12.2-.4,12.7-.7,25.5-1.1,38.2,0,1.3,0,2.9,1,3.7,1.9,1.5,4.4-.6,6.2-2.2,7.5-7,19.3-6.5,29-3.3s18.7,8.6,28.8,10.3c5.1.9,11.2.4,14.5-3.6,2.6-3.2,2.8-7.9,1.4-11.8s-4-7.2-6.6-10.5"/>
    <path id="XMLID_315_" class="cls-6" d="M294.2,322.1a109.014,109.014,0,0,0-60.6-16.5c-5.7.2-12.7,1.7-14.4,7.2-1.2,3.9,1.2,8.2,4.6,10.5s7.6,3,11.6,3.6a223.063,223.063,0,0,0,46.2,1.5c5.3-.4,11.5-1.5,13.9-6.3"/>
    <path id="XMLID_314_" class="cls-6" d="M307.6,335.2h-6.2a12.035,12.035,0,0,1-12-12V306.3a12.035,12.035,0,0,1,12-12h6.2a12.035,12.035,0,0,1,12,12v16.9A12.035,12.035,0,0,1,307.6,335.2Z"/>
    <g id="XMLID_30_">
      <g id="XMLID_445_">
        <path id="XMLID_464_" class="cls-11" d="M309.5,534.2h-5.2c-.3,0-.5.1-.7.1a1.38,1.38,0,0,0-.4.3,1.483,1.483,0,0,0-.1.7,1.268,1.268,0,0,0,.1.6,2.092,2.092,0,0,0,.4.6h5.9v2.6h-5.2c-.3,0-.5.1-.7.1a1.38,1.38,0,0,0-.4.3,1.85,1.85,0,0,0,0,1.2l.3.6h5.9v2.6h-8.3v-2.6h.9a4.184,4.184,0,0,1-.8-1.2,2.768,2.768,0,0,1-.3-1.3,1.844,1.844,0,0,1,.4-1.3,2.012,2.012,0,0,1,1.1-.9,11,11,0,0,1-1.1-1.4,2.2,2.2,0,0,1-.4-1.3,2.958,2.958,0,0,1,.2-1,1.555,1.555,0,0,1,.6-.8,3.127,3.127,0,0,1,1-.5,5.9,5.9,0,0,1,1.4-.2h5.4v2.8Z"/>
        <path id="XMLID_461_" class="cls-11" d="M309.8,525.4a5.338,5.338,0,0,1-1.1,3.6,4.282,4.282,0,0,1-3.2,1.3,4.62,4.62,0,0,1-3.3-1.2,4.459,4.459,0,0,1-1.2-3.3,3.8,3.8,0,0,1,1-2.9,4.5,4.5,0,0,1,3-1h.9v5.7a2.958,2.958,0,0,0,1-.2,1.024,1.024,0,0,0,.6-.5,1.135,1.135,0,0,0,.3-.8,3.083,3.083,0,0,0,.1-1,2.769,2.769,0,0,0-.1-.9,6.9,6.9,0,0,0-.3-.8l-.3-.6a1.382,1.382,0,0,0-.3-.4v-.3H309a1.421,1.421,0,0,1,.2.6,6.375,6.375,0,0,1,.2.7c.1.3.1.6.2.9A3.6,3.6,0,0,1,309.8,525.4Zm-5.5-.9a1.844,1.844,0,0,0-1.3.4,1.246,1.246,0,0,0-.4,1.1,1.656,1.656,0,0,0,.5,1.2,2.195,2.195,0,0,0,1.2.5v-3.2Z"/>
        <path id="XMLID_458_" class="cls-11" d="M308.6,516c.1.2.3.3.4.5a6.127,6.127,0,0,0,.4.6c.1.2.2.5.3.7a2.22,2.22,0,0,1,.1.9,2.268,2.268,0,0,1-.7,1.8,2.489,2.489,0,0,1-1.9.7,2.41,2.41,0,0,1-1.5-.4,2.012,2.012,0,0,1-.9-1.1,6.865,6.865,0,0,1-.5-1.7,14.919,14.919,0,0,1-.2-2.1h0a1.1,1.1,0,0,0-1,.5,2.81,2.81,0,0,0-.3,1.5,5.159,5.159,0,0,0,.2,1.1c.1.4.3.8.4,1.2v.2h-2a10.371,10.371,0,0,1-.3-1.2,11.135,11.135,0,0,1-.2-1.7,5.074,5.074,0,0,1,.7-3.1,2.459,2.459,0,0,1,2.2-1h5.7V516Zm-1.2,0h-1.7c0,.4.1.8.1,1.1a2.353,2.353,0,0,0,.2.8,1,1,0,0,0,.4.5,1.422,1.422,0,0,0,.6.2c.4,0,.7-.1.8-.3a2,2,0,0,0,.2-.9,1.854,1.854,0,0,0-.2-.7A4.349,4.349,0,0,0,307.4,516Z"/>
        <path id="XMLID_456_" class="cls-11" d="M309.5,508.9v2.6H298v-2.6Z"/>
        <path id="XMLID_453_" class="cls-11" d="M305.2,500a4.826,4.826,0,0,1,3.3,1,3.171,3.171,0,0,1,1.2,2.5,3.749,3.749,0,0,1-.1,1.1,6.9,6.9,0,0,1-.4,1h3.5V507H301.3v-1.4h.9a3.6,3.6,0,0,1-.8-1.2,3.194,3.194,0,0,1-.3-1.4,2.529,2.529,0,0,1,1.1-2.2A4.47,4.47,0,0,1,305.2,500Zm.1,1.4a4.473,4.473,0,0,0-2.2.5,1.645,1.645,0,0,0-.8,1.5,2.016,2.016,0,0,0,.3,1.1,6.726,6.726,0,0,0,.7,1.1H308c.2-.4.3-.7.4-.9a2.768,2.768,0,0,0,.1-.9,2.136,2.136,0,0,0-.8-1.7A3.613,3.613,0,0,0,305.3,501.4Z"/>
        <path id="XMLID_450_" class="cls-11" d="M305.4,491.7a4.4,4.4,0,0,1,3.2,1,3.344,3.344,0,0,1,1.1,2.7,3.16,3.16,0,0,1-1.2,2.7,4.722,4.722,0,0,1-3.2,1,4.4,4.4,0,0,1-3.2-1,3.424,3.424,0,0,1-1.2-2.7,3.693,3.693,0,0,1,1.1-2.7A5.287,5.287,0,0,1,305.4,491.7Zm0,1.4a3.845,3.845,0,0,0-2.4.6,2,2,0,0,0-.8,1.7,2.136,2.136,0,0,0,.8,1.7,3.845,3.845,0,0,0,2.4.6,4.265,4.265,0,0,0,2.4-.6,2.206,2.206,0,0,0,0-3.4A4.265,4.265,0,0,0,305.4,493.1Z"/>
        <path id="XMLID_448_" class="cls-11" d="M309.7,488a7.772,7.772,0,0,1-.2,1.6,3.337,3.337,0,0,1-.5,1.2h-1.6v-.1c.1-.1.2-.3.3-.4a2.092,2.092,0,0,1,.4-.6,6.886,6.886,0,0,0,.3-.8,2.768,2.768,0,0,0,.1-.9,1.7,1.7,0,0,0-.1-.7,4.17,4.17,0,0,0-.2-.6.781.781,0,0,0-.4-.4c-.1-.1-.3-.1-.6-.1a1.136,1.136,0,0,0-.8.3,1.88,1.88,0,0,0-.4,1,2.544,2.544,0,0,1-.2.7c-.1.3-.1.6-.2.8a2.845,2.845,0,0,1-.9,1.4,2.116,2.116,0,0,1-1.4.4,2.342,2.342,0,0,1-1.8-.8,3.232,3.232,0,0,1-.7-2.2,6.752,6.752,0,0,1,.2-1.4,8.339,8.339,0,0,1,.4-1.2h1.5v.1a7.459,7.459,0,0,0-.7,1.2,2.953,2.953,0,0,0-.2,1.3,2.376,2.376,0,0,0,.3,1.2,1.05,1.05,0,0,0,.9.5,1.136,1.136,0,0,0,.8-.3,1.885,1.885,0,0,0,.4-.9,6.373,6.373,0,0,0,.2-.7c.1-.3.1-.5.2-.8a2.733,2.733,0,0,1,.8-1.4,2.251,2.251,0,0,1,1.5-.5,2.958,2.958,0,0,1,1,.2,1.555,1.555,0,0,1,.8.6,8.794,8.794,0,0,1,.6,1A2.362,2.362,0,0,1,309.7,488Z"/>
        <path id="XMLID_446_" class="cls-11" d="M309.7,481a2.139,2.139,0,0,1-.7,1.8,2.928,2.928,0,0,1-2.1.6h-4.6v.9h-1.2v-.9h-2.4V482h2.4v-2.6h1.2V482h4.9a1.421,1.421,0,0,0,.6-.2.781.781,0,0,0,.4-.4,1.719,1.719,0,0,0,.1-.8,1.952,1.952,0,0,0-.1-.7c-.1-.2-.1-.4-.2-.5v-.1h1.3c.1.3.1.5.2.8A1.644,1.644,0,0,1,309.7,481Z"/>
      </g>
    </g>
    <g id="XMLID_3_">
      <g id="XMLID_425_">
        <path id="XMLID_444_" class="cls-11" d="M300,415.4h5.2c.3,0,.5-.1.7-.1a1.381,1.381,0,0,0,.4-.3,1.483,1.483,0,0,0,.1-.7,1.268,1.268,0,0,0-.1-.6,2.092,2.092,0,0,0-.4-.6H300v-2.6h5.2c.3,0,.5-.1.7-.1a1.381,1.381,0,0,0,.4-.3,1.85,1.85,0,0,0,0-1.2l-.3-.6h-6v-2.6h8.3v2.6h-.9a4.183,4.183,0,0,1,.8,1.2,2.768,2.768,0,0,1,.3,1.3,1.844,1.844,0,0,1-.4,1.3,2.012,2.012,0,0,1-1.1.9,11.007,11.007,0,0,1,1.1,1.4,2.2,2.2,0,0,1,.4,1.3,2.958,2.958,0,0,1-.2,1,1.555,1.555,0,0,1-.6.8,3.128,3.128,0,0,1-1,.5,5.9,5.9,0,0,1-1.4.2H300Z"/>
        <path id="XMLID_441_" class="cls-11" d="M299.8,424.2a5.338,5.338,0,0,1,1.1-3.6,4.282,4.282,0,0,1,3.2-1.3,4.62,4.62,0,0,1,3.3,1.2,4.459,4.459,0,0,1,1.2,3.3,3.8,3.8,0,0,1-1,2.9,4.5,4.5,0,0,1-3,1h-.9V422a2.958,2.958,0,0,0-1,.2,1.024,1.024,0,0,0-.6.5,1.135,1.135,0,0,0-.3.8,3.083,3.083,0,0,0-.1,1,2.768,2.768,0,0,0,.1.9,6.9,6.9,0,0,0,.3.8l.3.6a1.381,1.381,0,0,0,.3.4v.3h-2.1a1.421,1.421,0,0,1-.2-.6,6.373,6.373,0,0,1-.2-.7c-.1-.3-.1-.6-.2-.9A1.816,1.816,0,0,1,299.8,424.2Zm5.5.9a1.844,1.844,0,0,0,1.3-.4,1.246,1.246,0,0,0,.4-1.1,1.656,1.656,0,0,0-.5-1.2,2.2,2.2,0,0,0-1.2-.5v3.2Z"/>
        <path id="XMLID_438_" class="cls-11" d="M300.9,433.6c-.1-.2-.3-.3-.4-.5a5.917,5.917,0,0,1-.4-.6c-.1-.2-.2-.5-.3-.7a2.22,2.22,0,0,1-.1-.9,2.268,2.268,0,0,1,.7-1.8,2.489,2.489,0,0,1,1.9-.7,2.41,2.41,0,0,1,1.5.4,2.012,2.012,0,0,1,.9,1.1,6.865,6.865,0,0,1,.5,1.7,14.918,14.918,0,0,1,.2,2.1h0a1.1,1.1,0,0,0,1-.5,2.81,2.81,0,0,0,.3-1.5,5.16,5.16,0,0,0-.2-1.1c-.1-.4-.3-.8-.4-1.2v-.2h2a10.371,10.371,0,0,1,.3,1.2,11.135,11.135,0,0,1,.2,1.7,5.075,5.075,0,0,1-.7,3.1,2.459,2.459,0,0,1-2.2,1H300v-2.6Zm1.3,0h1.7c0-.4-.1-.8-.1-1.1a2.353,2.353,0,0,0-.2-.8,1,1,0,0,0-.4-.5,1.421,1.421,0,0,0-.6-.2c-.4,0-.7.1-.8.3a2,2,0,0,0-.2.9,1.854,1.854,0,0,0,.2.7A1.611,1.611,0,0,0,302.2,433.6Z"/>
        <path id="XMLID_436_" class="cls-11" d="M300,440.7v-2.6h11.6v2.6Z"/>
        <path id="XMLID_433_" class="cls-11" d="M304.4,449.7a4.826,4.826,0,0,1-3.3-1,3.171,3.171,0,0,1-1.2-2.5,3.749,3.749,0,0,1,.1-1.1,6.9,6.9,0,0,1,.4-1H297v-1.4h11.4v1.4h-.9a3.6,3.6,0,0,1,.8,1.2,3.194,3.194,0,0,1,.3,1.4,2.529,2.529,0,0,1-1.1,2.2A5.686,5.686,0,0,1,304.4,449.7Zm-.1-1.5a4.473,4.473,0,0,0,2.2-.5,1.645,1.645,0,0,0,.8-1.5,2.016,2.016,0,0,0-.3-1.1,6.726,6.726,0,0,0-.7-1.1h-4.7c-.2.4-.3.7-.4.9a2.768,2.768,0,0,0-.1.9,2.136,2.136,0,0,0,.8,1.7A3.444,3.444,0,0,0,304.3,448.2Z"/>
        <path id="XMLID_430_" class="cls-11" d="M304.2,457.9a4.4,4.4,0,0,1-3.2-1,3.693,3.693,0,0,1-1.1-2.7,3.16,3.16,0,0,1,1.2-2.7,4.722,4.722,0,0,1,3.2-1,4.4,4.4,0,0,1,3.2,1,3.424,3.424,0,0,1,1.2,2.7,3.693,3.693,0,0,1-1.1,2.7A5.287,5.287,0,0,1,304.2,457.9Zm0-1.4a3.845,3.845,0,0,0,2.4-.6,2,2,0,0,0,.8-1.7,2.136,2.136,0,0,0-.8-1.7,3.845,3.845,0,0,0-2.4-.6,4.265,4.265,0,0,0-2.4.6,2.206,2.206,0,0,0,0,3.4A3.845,3.845,0,0,0,304.2,456.5Z"/>
        <path id="XMLID_428_" class="cls-11" d="M299.8,461.6a7.772,7.772,0,0,1,.2-1.6,3.337,3.337,0,0,1,.5-1.2h1.6v.1c-.1.1-.2.3-.3.4a2.092,2.092,0,0,1-.4.6,6.886,6.886,0,0,0-.3.8,2.768,2.768,0,0,0-.1.9,1.7,1.7,0,0,0,.1.7,4.17,4.17,0,0,0,.2.6.781.781,0,0,0,.4.4c.1.1.3.1.6.1a1.136,1.136,0,0,0,.8-.3,1.88,1.88,0,0,0,.4-1,2.544,2.544,0,0,1,.2-.7c.1-.3.1-.6.2-.8a2.845,2.845,0,0,1,.9-1.4,2.116,2.116,0,0,1,1.4-.4,2.342,2.342,0,0,1,1.8.8,3.606,3.606,0,0,1,.7,2.2,6.752,6.752,0,0,1-.2,1.4,8.339,8.339,0,0,1-.4,1.2h-1.5v-.1a7.459,7.459,0,0,0,.7-1.2,2.953,2.953,0,0,0,.2-1.3,2.376,2.376,0,0,0-.3-1.2,1.05,1.05,0,0,0-.9-.5,1.136,1.136,0,0,0-.8.3,1.884,1.884,0,0,0-.4.9,6.373,6.373,0,0,0-.2.7c-.1.3-.1.5-.2.8a2.733,2.733,0,0,1-.8,1.4,2.251,2.251,0,0,1-1.5.5,2.958,2.958,0,0,1-1-.2,1.555,1.555,0,0,1-.8-.6,8.794,8.794,0,0,1-.6-1A3.914,3.914,0,0,1,299.8,461.6Z"/>
        <path id="XMLID_426_" class="cls-11" d="M299.9,468.7a2.139,2.139,0,0,1,.7-1.8,2.928,2.928,0,0,1,2.1-.6h4.6v-.9h1.2v.9h2.4v1.4h-2.4v2.6h-1.2v-2.6h-4.9a1.421,1.421,0,0,0-.6.2.781.781,0,0,0-.4.4,1.719,1.719,0,0,0-.1.8,1.952,1.952,0,0,0,.1.7c.1.2.1.4.2.5v.1h-1.3c-.1-.3-.1-.5-.2-.8A2.042,2.042,0,0,1,299.9,468.7Z"/>
      </g>
    </g>
  </g>
</svg>
