<svg xmlns="http://www.w3.org/2000/svg" viewBox="0 0 228.216 211.413">
  <defs>
    <style>
      .cls-1 {
        fill: #cea774;
      }

      .cls-2 {
        fill: #e2be9a;
      }

      .cls-3 {
        fill: #8e693c;
        opacity: 0.67;
      }

      .cls-4 {
        fill: #c59d6f;
      }

      .cls-5 {
        fill: #00641d;
      }

      .cls-6 {
        fill: #008a3c;
      }

      .cls-7 {
        fill: #007d2e;
      }

      .cls-8 {
        fill: #006b26;
      }

      .cls-9 {
        fill: #007526;
      }

      .cls-10 {
        fill: #028236;
      }

      .cls-11 {
        fill: #56b05a;
      }

      .cls-12 {
        fill: #4d9e4d;
      }

      .cls-13 {
        fill: #008233;
      }
    </style>
  </defs>
  <g id="Group_1052" data-name="Group 1052" transform="translate(-5579 5331)">
    <g id="green_gift" transform="translate(5579 -5331)">
      <g id="XMLID_2_" transform="translate(0 0)">
        <path id="XMLID_276_" class="cls-1" d="M365.122,490.218H164.566a8.692,8.692,0,0,1-8.666-8.666V347.366a8.692,8.692,0,0,1,8.666-8.666H365.122a8.692,8.692,0,0,1,8.666,8.666V481.479A8.707,8.707,0,0,1,365.122,490.218Z" transform="translate(-149.545 -278.805)"/>
        <path id="XMLID_275_" class="cls-2" d="M262.936,338.7H158.505a5.813,5.813,0,0,0-5.705,5.922V484.079A5.86,5.86,0,0,0,158.505,490h104.43Z" transform="translate(-148.683 -278.805)"/>
        <path id="XMLID_262_" class="cls-3" d="M148.6,366.7H371.688l.072,13.433Z" transform="translate(-147.517 -286.584)"/>
        <path id="XMLID_261_" class="cls-4" d="M375.244,357.56a5.467,5.467,0,0,0,.072-1.083V340.372c0-3.611-2.672-6.572-5.85-6.572H152.95c-3.25,0-5.85,2.961-5.85,6.572v16.105a5.466,5.466,0,0,0,.072,1.083Z" transform="translate(-147.1 -277.444)"/>
        <rect id="XMLID_260_" class="cls-5" width="24.122" height="160.257" transform="translate(101.686 50.94)"/>
        <g id="XMLID_177_" transform="translate(107.68 53.178)">
          <path id="XMLID_178_" class="cls-6" d="M305.411,383.522h-3.755c-.217,0-.361.072-.506.072a1,1,0,0,0-.289.217,1.07,1.07,0,0,0-.072.506.915.915,0,0,0,.072.433,1.51,1.51,0,0,0,.289.433h4.261v1.878h-3.755c-.217,0-.361.072-.506.072a1,1,0,0,0-.289.217,1.335,1.335,0,0,0,0,.867l.217.433h4.261v1.878h-5.994V388.65h.65a3.021,3.021,0,0,1-.578-.867,2,2,0,0,1-.217-.939,1.332,1.332,0,0,1,.289-.939,1.453,1.453,0,0,1,.794-.65,7.953,7.953,0,0,1-.794-1.011,1.589,1.589,0,0,1-.289-.939,2.137,2.137,0,0,1,.144-.722,1.123,1.123,0,0,1,.433-.578,2.259,2.259,0,0,1,.722-.361,4.263,4.263,0,0,1,1.011-.144h3.9Z" transform="translate(-297.033 -343.873)"/>
          <path id="XMLID_180_" class="cls-6" d="M305.655,374.528a3.855,3.855,0,0,1-.794,2.6,3.093,3.093,0,0,1-2.311.939,3.337,3.337,0,0,1-2.383-.867,3.221,3.221,0,0,1-.867-2.383,2.742,2.742,0,0,1,.722-2.094,3.251,3.251,0,0,1,2.167-.722h.65v4.117a2.137,2.137,0,0,0,.722-.144.74.74,0,0,0,.433-.361.82.82,0,0,0,.217-.578,2.226,2.226,0,0,0,.072-.722,2,2,0,0,0-.072-.65,4.98,4.98,0,0,0-.217-.578l-.217-.433a1,1,0,0,0-.217-.289v-.217h1.517a1.027,1.027,0,0,1,.144.433,4.611,4.611,0,0,1,.144.506c.072.217.072.433.144.65A2.6,2.6,0,0,1,305.655,374.528Zm-3.972-.578a1.332,1.332,0,0,0-.939.289.9.9,0,0,0-.289.794,1.2,1.2,0,0,0,.361.867,1.585,1.585,0,0,0,.867.361Z" transform="translate(-297.061 -341.234)"/>
          <path id="XMLID_183_" class="cls-6" d="M304.861,365.478c.072.144.217.217.289.361a4.28,4.28,0,0,1,.289.433c.072.144.144.361.217.506a1.6,1.6,0,0,1,.072.65,1.638,1.638,0,0,1-.506,1.3,1.8,1.8,0,0,1-1.372.506,1.74,1.74,0,0,1-1.083-.289,1.453,1.453,0,0,1-.65-.794,4.956,4.956,0,0,1-.361-1.228,10.773,10.773,0,0,1-.144-1.517h0a.8.8,0,0,0-.722.361,2.03,2.03,0,0,0-.217,1.083,3.725,3.725,0,0,0,.144.794c.072.289.217.578.289.867v.144h-1.444a7.488,7.488,0,0,1-.217-.867,8.04,8.04,0,0,1-.144-1.228,3.665,3.665,0,0,1,.506-2.239,1.776,1.776,0,0,1,1.589-.722h4.117v1.878Zm-.939,0h-1.228c0,.289.072.578.072.794a1.7,1.7,0,0,0,.144.578.721.721,0,0,0,.289.361,1.027,1.027,0,0,0,.433.144c.289,0,.506-.072.578-.217a1.442,1.442,0,0,0,.144-.65,1.339,1.339,0,0,0-.144-.506A1.164,1.164,0,0,0,303.922,365.478Z" transform="translate(-297.061 -338.901)"/>
          <path id="XMLID_186_" class="cls-6" d="M304.578,359.1v1.878H296.2V359.1Z" transform="translate(-296.2 -337.651)"/>
          <path id="XMLID_188_" class="cls-6" d="M302.361,350.1a3.485,3.485,0,0,1,2.383.722,2.29,2.29,0,0,1,.867,1.806,2.709,2.709,0,0,1-.072.794,4.982,4.982,0,0,1-.289.722h2.528v1.011h-8.233v-1.011h.65a2.6,2.6,0,0,1-.578-.867,2.307,2.307,0,0,1-.217-1.011,1.827,1.827,0,0,1,.794-1.589A3.684,3.684,0,0,1,302.361,350.1Zm.072,1.083a3.23,3.23,0,0,0-1.589.361,1.188,1.188,0,0,0-.578,1.083,1.456,1.456,0,0,0,.217.794,4.854,4.854,0,0,0,.506.794h3.394c.145-.289.217-.506.289-.65a2,2,0,0,0,.072-.65,1.543,1.543,0,0,0-.578-1.228A2.609,2.609,0,0,0,302.433,351.183Z" transform="translate(-297.089 -335.15)"/>
          <path id="XMLID_191_" class="cls-6" d="M302.45,341.8a3.174,3.174,0,0,1,2.311.722,2.667,2.667,0,0,1,.794,1.95,2.282,2.282,0,0,1-.867,1.95,3.41,3.41,0,0,1-2.311.722,3.174,3.174,0,0,1-2.311-.722,2.473,2.473,0,0,1-.867-1.95,2.667,2.667,0,0,1,.794-1.95A4.3,4.3,0,0,1,302.45,341.8Zm0,1.083a2.777,2.777,0,0,0-1.733.433,1.445,1.445,0,0,0-.578,1.228,1.543,1.543,0,0,0,.578,1.228,2.777,2.777,0,0,0,1.733.433,3.08,3.08,0,0,0,1.733-.433,1.593,1.593,0,0,0,0-2.456A2.924,2.924,0,0,0,302.45,342.883Z" transform="translate(-297.033 -332.845)"/>
          <path id="XMLID_194_" class="cls-6" d="M305.528,337.311a5.612,5.612,0,0,1-.144,1.155,2.411,2.411,0,0,1-.361.867h-1.156v-.072c.072-.072.144-.217.217-.289a1.511,1.511,0,0,1,.289-.433,4.975,4.975,0,0,0,.217-.578,2,2,0,0,0,.072-.65,1.229,1.229,0,0,0-.072-.506,3.008,3.008,0,0,0-.144-.433.564.564,0,0,0-.289-.289c-.072-.072-.217-.072-.433-.072a.82.82,0,0,0-.578.217,1.358,1.358,0,0,0-.289.722,1.837,1.837,0,0,1-.144.506c-.072.217-.072.433-.144.578a2.055,2.055,0,0,1-.65,1.011,1.529,1.529,0,0,1-1.011.289,1.691,1.691,0,0,1-1.3-.578,2.408,2.408,0,0,1-.506-1.661,4.876,4.876,0,0,1,.144-1.011,6.022,6.022,0,0,1,.289-.867h1.083v.072a5.389,5.389,0,0,0-.506.867,2.133,2.133,0,0,0-.144.939,1.715,1.715,0,0,0,.217.867.758.758,0,0,0,.65.361.82.82,0,0,0,.578-.217,1.36,1.36,0,0,0,.289-.65,4.608,4.608,0,0,0,.144-.506c.072-.217.072-.361.144-.578a1.974,1.974,0,0,1,.578-1.011A1.625,1.625,0,0,1,303.65,335a2.137,2.137,0,0,1,.722.144,1.123,1.123,0,0,1,.578.433,6.344,6.344,0,0,1,.433.722A2,2,0,0,1,305.528,337.311Z" transform="translate(-297.006 -330.956)"/>
          <path id="XMLID_196_" class="cls-6" d="M304.944,330.628a1.545,1.545,0,0,1-.506,1.3,2.114,2.114,0,0,1-1.517.433H299.6v.65h-.867v-.65H297V331.35h1.733v-1.878h.867v1.878h3.539a1.026,1.026,0,0,0,.433-.144.564.564,0,0,0,.289-.289,1.242,1.242,0,0,0,.072-.578,1.41,1.41,0,0,0-.072-.506c-.072-.144-.072-.289-.144-.361V329.4h.939c.072.217.072.361.144.578A1.319,1.319,0,0,1,304.944,330.628Z" transform="translate(-296.422 -329.4)"/>
        </g>
        <path id="XMLID_258_" class="cls-6" d="M264.213,326.21a44.913,44.913,0,0,0-24.772,33.582,37.812,37.812,0,0,0-.217,9.461,16.228,16.228,0,0,1,10.544-3.9,16.88,16.88,0,0,1,15.166,10.039c1.878-14.661,6.139-28.238,15.383-40.3,1.733-2.239,3.611-4.478,4.405-7.222C288.262,314.944,268.98,323.9,264.213,326.21Z" transform="translate(-172.638 -273.898)"/>
        <path id="XMLID_257_" class="cls-6" d="M328.445,326.21a44.913,44.913,0,0,1,24.772,33.582,37.809,37.809,0,0,1,.217,9.461,16.227,16.227,0,0,0-10.544-3.9,16.88,16.88,0,0,0-15.166,10.039c-1.878-14.661-6.139-28.238-15.383-40.3-1.733-2.239-3.611-4.478-4.405-7.222C304.4,314.944,323.678,323.9,328.445,326.21Z" transform="translate(-191.66 -273.898)"/>
        <path id="XMLID_256_" class="cls-5" d="M380.472,322.511c2.528.361,5.055.722,7.511,1.083,3.611.506,3.9,4.478,2.383,7.222-1.878,3.322-6.789,3.755-10.255,4.622a59.132,59.132,0,0,1-30.116-.578c-5.055-1.444-20.872-7.078-18.488-14.661" transform="translate(-198.26 -273.666)"/>
        <path id="XMLID_255_" class="cls-7" d="M398.054,270.8c2.889,2.672,3.394,7.078,3.467,11.05a246.614,246.614,0,0,1-1.228,27.3c-.361,3.611.794,8.666-4.189,8.233a85.772,85.772,0,0,1-14.805-3.178,48.07,48.07,0,0,0-7.005-1.95,25.818,25.818,0,0,1-7.222-2.094c-5.417-2.672-6.861-9.1-5.055-14.444,1.806-5.272,6.211-11.266,9.605-15.816C376.677,273.113,389.532,262.929,398.054,270.8Z" transform="translate(-206.598 -259.15)"/>
        <path id="XMLID_254_" class="cls-6" d="M315.633,285.573c5.2-6.066,10.4-12.205,16.538-17.333S345.46,259,353.332,257.552c5.055-.939,11.194-.361,14.083,3.972,1.661,2.528,1.806,5.778,1.878,8.811.289,9.172.506,18.416.794,27.588,0,.939,0,2.094-.722,2.672-1.372,1.083-3.178-.433-4.478-1.589-5.417-5.055-13.938-4.694-20.944-2.383s-13.505,6.211-20.8,7.439c-3.683.65-8.089.289-10.472-2.6-1.878-2.311-2.022-5.705-1.011-8.522a27.91,27.91,0,0,1,4.767-7.583" transform="translate(-192.642 -256.155)"/>
        <path id="XMLID_253_" class="cls-8" d="M314.739,318.9A78.73,78.73,0,0,1,358.5,306.988c4.117.144,9.172,1.228,10.4,5.2.867,2.817-.867,5.922-3.322,7.583s-5.489,2.167-8.378,2.6a161.1,161.1,0,0,1-33.366,1.083c-3.828-.289-8.305-1.083-10.039-4.55" transform="translate(-193.409 -269.987)"/>
        <path id="XMLID_252_" class="cls-5" d="M206.474,321.211c-2.528.361-4.983.722-7.511,1.083-3.611.506-3.828,4.478-2.383,7.222,1.805,3.322,6.789,3.755,10.183,4.622a58.022,58.022,0,0,0,29.827-.578c5.055-1.444,20.727-7.078,18.344-14.661" transform="translate(-160.614 -273.305)"/>
        <path id="XMLID_251_" class="cls-7" d="M195.85,269.5c-2.889,2.672-3.394,7.078-3.467,11.05a246.629,246.629,0,0,0,1.228,27.3c.361,3.611-.794,8.666,4.189,8.233a79.508,79.508,0,0,0,14.805-3.178,48.066,48.066,0,0,1,7.005-1.95,25.818,25.818,0,0,0,7.222-2.094c5.417-2.672,6.861-9.1,5.055-14.444-1.806-5.272-6.211-11.266-9.605-15.816C217.228,271.736,204.3,261.625,195.85,269.5Z" transform="translate(-159.668 -258.784)"/>
        <path id="XMLID_250_" class="cls-6" d="M271.054,284.173c-5.2-6.066-10.4-12.205-16.538-17.333s-13.289-9.244-21.161-10.689c-5.055-.939-11.194-.361-14.083,3.972-1.661,2.528-1.806,5.778-1.878,8.811-.289,9.172-.506,18.416-.794,27.588,0,.939,0,2.094.722,2.672,1.372,1.083,3.178-.433,4.478-1.589,5.417-5.055,13.938-4.694,20.944-2.383s13.505,6.211,20.8,7.439c3.683.65,8.089.289,10.472-2.6,1.878-2.311,2.022-5.705,1.011-8.522a27.91,27.91,0,0,0-4.767-7.583" transform="translate(-166.407 -255.766)"/>
        <path id="XMLID_249_" class="cls-8" d="M273.278,317.5a78.73,78.73,0,0,0-43.765-11.916c-4.117.144-9.172,1.228-10.4,5.2-.867,2.817.867,5.922,3.322,7.583s5.489,2.167,8.378,2.6a161.094,161.094,0,0,0,33.366,1.083c3.828-.289,8.305-1.083,10.039-4.55" transform="translate(-167.042 -269.598)"/>
        <path id="XMLID_248_" class="cls-9" d="M302.544,323.838h-4.478a8.692,8.692,0,0,1-8.666-8.666V302.966a8.692,8.692,0,0,1,8.666-8.666h4.478a8.692,8.692,0,0,1,8.666,8.666v12.205A8.692,8.692,0,0,1,302.544,323.838Z" transform="translate(-186.631 -266.471)"/>
        <g id="XMLID_156_" transform="translate(108.98 161.436)">
          <path id="XMLID_157_" class="cls-6" d="M307.111,533.422h-3.755c-.217,0-.361.072-.506.072a1,1,0,0,0-.289.217,1.071,1.071,0,0,0-.072.506.915.915,0,0,0,.072.433,1.51,1.51,0,0,0,.289.433h4.261v1.878h-3.755c-.217,0-.361.072-.506.072a1,1,0,0,0-.289.217,1.336,1.336,0,0,0,0,.867l.217.433h4.261v1.878h-5.994V538.55h.65a3.023,3.023,0,0,1-.578-.867,2,2,0,0,1-.217-.939,1.332,1.332,0,0,1,.289-.939,1.453,1.453,0,0,1,.794-.65,7.954,7.954,0,0,1-.794-1.011,1.589,1.589,0,0,1-.289-.939,2.137,2.137,0,0,1,.144-.722,1.124,1.124,0,0,1,.433-.578,2.258,2.258,0,0,1,.722-.361,4.263,4.263,0,0,1,1.011-.144h3.9v2.022Z" transform="translate(-298.806 -493.773)"/>
          <path id="XMLID_159_" class="cls-6" d="M307.355,524.428a3.855,3.855,0,0,1-.794,2.6,3.093,3.093,0,0,1-2.311.939,3.336,3.336,0,0,1-2.383-.867,3.221,3.221,0,0,1-.867-2.383,2.742,2.742,0,0,1,.722-2.094,3.251,3.251,0,0,1,2.167-.722h.65v4.117a2.135,2.135,0,0,0,.722-.144.74.74,0,0,0,.433-.361.82.82,0,0,0,.217-.578,2.226,2.226,0,0,0,.072-.722,2,2,0,0,0-.072-.65,4.983,4.983,0,0,0-.217-.578l-.217-.433a1,1,0,0,0-.217-.289v-.217h1.517a1.026,1.026,0,0,1,.145.433,4.61,4.61,0,0,1,.144.506c.072.217.072.433.144.65A2.6,2.6,0,0,1,307.355,524.428Zm-3.972-.65a1.332,1.332,0,0,0-.939.289.9.9,0,0,0-.289.794,1.2,1.2,0,0,0,.361.867,1.585,1.585,0,0,0,.867.361Z" transform="translate(-298.833 -491.134)"/>
          <path id="XMLID_162_" class="cls-6" d="M306.461,515.278c.072.144.217.217.289.361a4.419,4.419,0,0,0,.289.433c.072.144.144.361.217.506a1.6,1.6,0,0,1,.072.65,1.638,1.638,0,0,1-.506,1.3,1.8,1.8,0,0,1-1.372.506,1.741,1.741,0,0,1-1.083-.289,1.453,1.453,0,0,1-.65-.794,4.957,4.957,0,0,1-.361-1.228,10.779,10.779,0,0,1-.144-1.517h0a.8.8,0,0,0-.722.361,2.029,2.029,0,0,0-.217,1.083,3.725,3.725,0,0,0,.145.794c.072.289.217.578.289.867v.144h-1.444a7.5,7.5,0,0,1-.217-.867,8.044,8.044,0,0,1-.144-1.228,3.665,3.665,0,0,1,.506-2.239,1.776,1.776,0,0,1,1.589-.722h4.117v1.878Zm-.867,0h-1.228c0,.289.072.578.072.794a1.7,1.7,0,0,0,.144.578.721.721,0,0,0,.289.361,1.026,1.026,0,0,0,.433.144c.289,0,.506-.072.578-.217a1.442,1.442,0,0,0,.144-.65,1.339,1.339,0,0,0-.144-.506A3.14,3.14,0,0,0,305.594,515.278Z" transform="translate(-298.806 -488.773)"/>
          <path id="XMLID_165_" class="cls-6" d="M306.305,508.9v1.878H298V508.9Z" transform="translate(-298 -487.523)"/>
          <path id="XMLID_167_" class="cls-6" d="M304.061,500a3.486,3.486,0,0,1,2.383.722,2.29,2.29,0,0,1,.867,1.805,2.709,2.709,0,0,1-.072.794,4.983,4.983,0,0,1-.289.722h2.528v1.011h-8.233v-1.011h.65a2.6,2.6,0,0,1-.578-.867,2.307,2.307,0,0,1-.217-1.011,1.827,1.827,0,0,1,.794-1.589A3.228,3.228,0,0,1,304.061,500Zm.072,1.011a3.23,3.23,0,0,0-1.589.361,1.188,1.188,0,0,0-.578,1.083,1.456,1.456,0,0,0,.217.794,4.855,4.855,0,0,0,.506.794h3.394c.144-.289.217-.506.289-.65a2,2,0,0,0,.072-.65,1.543,1.543,0,0,0-.578-1.228A2.609,2.609,0,0,0,304.133,501.011Z" transform="translate(-298.861 -485.05)"/>
          <path id="XMLID_170_" class="cls-6" d="M304.15,491.7a3.174,3.174,0,0,1,2.311.722,2.415,2.415,0,0,1,.794,1.95,2.282,2.282,0,0,1-.867,1.95,3.41,3.41,0,0,1-2.311.722,3.174,3.174,0,0,1-2.311-.722,2.473,2.473,0,0,1-.867-1.95,2.667,2.667,0,0,1,.794-1.95A3.818,3.818,0,0,1,304.15,491.7Zm0,1.011a2.777,2.777,0,0,0-1.733.433,1.445,1.445,0,0,0-.578,1.228,1.543,1.543,0,0,0,.578,1.228,2.777,2.777,0,0,0,1.733.433,3.08,3.08,0,0,0,1.733-.433,1.593,1.593,0,0,0,0-2.456A3.08,3.08,0,0,0,304.15,492.711Z" transform="translate(-298.806 -482.745)"/>
          <path id="XMLID_173_" class="cls-6" d="M307.228,487.139a5.612,5.612,0,0,1-.144,1.156,2.41,2.41,0,0,1-.361.867h-1.155v-.072c.072-.072.144-.217.217-.289a1.511,1.511,0,0,1,.289-.433,4.972,4.972,0,0,0,.217-.578,2,2,0,0,0,.072-.65,1.229,1.229,0,0,0-.072-.506,3.011,3.011,0,0,0-.144-.433.564.564,0,0,0-.289-.289c-.072-.072-.217-.072-.433-.072a.82.82,0,0,0-.578.217,1.358,1.358,0,0,0-.289.722,1.837,1.837,0,0,1-.144.505c-.072.217-.072.433-.144.578a2.055,2.055,0,0,1-.65,1.011,1.529,1.529,0,0,1-1.011.289,1.691,1.691,0,0,1-1.3-.578,2.334,2.334,0,0,1-.506-1.589,4.877,4.877,0,0,1,.144-1.011,6.027,6.027,0,0,1,.289-.867h1.083v.072a5.385,5.385,0,0,0-.506.867,2.133,2.133,0,0,0-.144.939,1.716,1.716,0,0,0,.217.867.758.758,0,0,0,.65.361.82.82,0,0,0,.578-.217,1.361,1.361,0,0,0,.289-.65,4.605,4.605,0,0,0,.144-.505c.072-.217.072-.361.144-.578a1.974,1.974,0,0,1,.578-1.011,1.626,1.626,0,0,1,1.083-.361,2.135,2.135,0,0,1,.722.144,1.123,1.123,0,0,1,.578.433,6.358,6.358,0,0,1,.433.722A1.706,1.706,0,0,1,307.228,487.139Z" transform="translate(-298.778 -480.856)"/>
          <path id="XMLID_175_" class="cls-6" d="M306.644,480.528a1.545,1.545,0,0,1-.506,1.3,2.114,2.114,0,0,1-1.517.433H301.3v.65h-.867v-.65H298.7V481.25h1.733v-1.878h.867v1.878h3.539a1.027,1.027,0,0,0,.433-.144.564.564,0,0,0,.289-.289,1.242,1.242,0,0,0,.072-.578,1.41,1.41,0,0,0-.072-.506c-.072-.144-.072-.289-.144-.361V479.3h.939c.072.217.072.361.144.578A1.188,1.188,0,0,1,306.644,480.528Z" transform="translate(-298.194 -479.3)"/>
        </g>
        <g id="XMLID_135_" transform="translate(108.258 108.282)">
          <path id="XMLID_136_" class="cls-6" d="M300,412.705h3.755c.217,0,.361-.072.506-.072a1,1,0,0,0,.289-.217,1.071,1.071,0,0,0,.072-.506.916.916,0,0,0-.072-.433,1.512,1.512,0,0,0-.289-.433H300v-1.878h3.755c.217,0,.361-.072.506-.072a1,1,0,0,0,.289-.217,1.336,1.336,0,0,0,0-.867l-.217-.433H300V405.7h5.994v1.878h-.65a3.02,3.02,0,0,1,.578.867,2,2,0,0,1,.217.939,1.332,1.332,0,0,1-.289.939,1.453,1.453,0,0,1-.794.65,7.951,7.951,0,0,1,.794,1.011,1.589,1.589,0,0,1,.289.939,2.136,2.136,0,0,1-.144.722,1.123,1.123,0,0,1-.433.578,2.261,2.261,0,0,1-.722.361,4.263,4.263,0,0,1-1.011.144H300Z" transform="translate(-297.833 -405.7)"/>
          <path id="XMLID_138_" class="cls-6" d="M299.8,422.839a3.855,3.855,0,0,1,.794-2.6,3.092,3.092,0,0,1,2.311-.939,3.336,3.336,0,0,1,2.383.867,3.221,3.221,0,0,1,.867,2.383,2.742,2.742,0,0,1-.722,2.094,3.251,3.251,0,0,1-2.167.722h-.65V421.25a2.137,2.137,0,0,0-.722.144.74.74,0,0,0-.433.361.82.82,0,0,0-.217.578,2.226,2.226,0,0,0-.072.722,2,2,0,0,0,.072.65,4.979,4.979,0,0,0,.217.578l.217.433a1,1,0,0,0,.217.289v.217h-1.517a1.026,1.026,0,0,1-.144-.433,4.609,4.609,0,0,1-.144-.506c-.072-.217-.072-.433-.144-.65A1.311,1.311,0,0,1,299.8,422.839Zm3.972.65a1.332,1.332,0,0,0,.939-.289.9.9,0,0,0,.289-.794,1.2,1.2,0,0,0-.361-.867,1.585,1.585,0,0,0-.867-.361v2.311Z" transform="translate(-297.778 -409.478)"/>
          <path id="XMLID_141_" class="cls-6" d="M300.567,432.156c-.072-.144-.217-.217-.289-.361a4.275,4.275,0,0,1-.289-.433c-.072-.144-.144-.361-.217-.506a1.6,1.6,0,0,1-.072-.65,1.638,1.638,0,0,1,.506-1.3,1.8,1.8,0,0,1,1.372-.506,1.74,1.74,0,0,1,1.083.289,1.453,1.453,0,0,1,.65.794,4.957,4.957,0,0,1,.361,1.228,10.773,10.773,0,0,1,.144,1.517h0a.8.8,0,0,0,.722-.361,2.03,2.03,0,0,0,.217-1.083,3.728,3.728,0,0,0-.144-.794c-.072-.289-.217-.578-.289-.867v-.144h1.444a7.493,7.493,0,0,1,.217.867,8.043,8.043,0,0,1,.144,1.228,3.665,3.665,0,0,1-.506,2.239,1.776,1.776,0,0,1-1.589.722h-4.117v-1.878Zm.939,0h1.228c0-.289-.072-.578-.072-.794a1.7,1.7,0,0,0-.144-.578.721.721,0,0,0-.289-.361,1.026,1.026,0,0,0-.433-.144c-.289,0-.506.072-.578.217a1.442,1.442,0,0,0-.144.65,1.339,1.339,0,0,0,.144.506A1.164,1.164,0,0,0,301.506,432.156Z" transform="translate(-297.75 -412.006)"/>
          <path id="XMLID_144_" class="cls-6" d="M300,439.978V438.1h8.378v1.878Z" transform="translate(-297.833 -414.701)"/>
          <path id="XMLID_146_" class="cls-6" d="M302.344,447.755a3.485,3.485,0,0,1-2.383-.722,2.29,2.29,0,0,1-.867-1.805,2.708,2.708,0,0,1,.072-.794,4.98,4.98,0,0,1,.289-.722H297V442.7h8.233v1.011h-.65a2.6,2.6,0,0,1,.578.867,2.306,2.306,0,0,1,.217,1.011,1.827,1.827,0,0,1-.794,1.589A4.106,4.106,0,0,1,302.344,447.755Zm-.072-1.083a3.23,3.23,0,0,0,1.589-.361,1.188,1.188,0,0,0,.578-1.083,1.456,1.456,0,0,0-.217-.794,4.857,4.857,0,0,0-.506-.794h-3.394c-.144.289-.217.506-.289.65a2,2,0,0,0-.072.65,1.543,1.543,0,0,0,.578,1.228A2.487,2.487,0,0,0,302.272,446.672Z" transform="translate(-297 -415.978)"/>
          <path id="XMLID_149_" class="cls-6" d="M303.005,455.844a3.175,3.175,0,0,1-2.311-.722,2.667,2.667,0,0,1-.794-1.95,2.282,2.282,0,0,1,.867-1.95,3.411,3.411,0,0,1,2.311-.722,3.174,3.174,0,0,1,2.311.722,2.473,2.473,0,0,1,.867,1.95,2.667,2.667,0,0,1-.794,1.95A3.819,3.819,0,0,1,303.005,455.844Zm0-1.011a2.777,2.777,0,0,0,1.733-.433,1.445,1.445,0,0,0,.578-1.228,1.543,1.543,0,0,0-.578-1.228,2.777,2.777,0,0,0-1.733-.433,3.08,3.08,0,0,0-1.733.433,1.593,1.593,0,0,0,0,2.456A2.777,2.777,0,0,0,303.005,454.833Z" transform="translate(-297.806 -418.145)"/>
          <path id="XMLID_152_" class="cls-6" d="M299.8,460.822a5.613,5.613,0,0,1,.144-1.156,2.411,2.411,0,0,1,.361-.867h1.156v.072c-.072.072-.144.217-.217.289a1.511,1.511,0,0,1-.289.433,4.977,4.977,0,0,0-.217.578,2,2,0,0,0-.072.65,1.229,1.229,0,0,0,.072.506,3.009,3.009,0,0,0,.144.433.564.564,0,0,0,.289.289c.072.072.217.072.433.072a.82.82,0,0,0,.578-.217,1.357,1.357,0,0,0,.289-.722,1.837,1.837,0,0,1,.144-.506c.072-.217.072-.433.144-.578a2.055,2.055,0,0,1,.65-1.011,1.528,1.528,0,0,1,1.011-.289,1.691,1.691,0,0,1,1.3.578,2.6,2.6,0,0,1,.506,1.589,4.874,4.874,0,0,1-.144,1.011,6.022,6.022,0,0,1-.289.867h-1.083v-.072a5.386,5.386,0,0,0,.506-.867,2.132,2.132,0,0,0,.144-.939,1.716,1.716,0,0,0-.217-.867.759.759,0,0,0-.65-.361.82.82,0,0,0-.578.217,1.361,1.361,0,0,0-.289.65,4.607,4.607,0,0,0-.144.506c-.072.217-.072.361-.144.578a1.974,1.974,0,0,1-.578,1.011,1.625,1.625,0,0,1-1.083.361,2.135,2.135,0,0,1-.722-.145,1.123,1.123,0,0,1-.578-.433,6.353,6.353,0,0,1-.433-.722A2.826,2.826,0,0,1,299.8,460.822Z" transform="translate(-297.778 -420.451)"/>
          <path id="XMLID_154_" class="cls-6" d="M299.9,467.783a1.545,1.545,0,0,1,.506-1.3,2.115,2.115,0,0,1,1.517-.433h3.322v-.65h.867v.65h1.733v1.011h-1.733v1.878h-.867v-1.878h-3.539a1.027,1.027,0,0,0-.433.144.564.564,0,0,0-.289.289,1.242,1.242,0,0,0-.072.578,1.41,1.41,0,0,0,.072.506c.072.144.072.289.144.361v.072h-.939c-.072-.217-.072-.361-.144-.578A1.475,1.475,0,0,1,299.9,467.783Z" transform="translate(-297.806 -422.285)"/>
        </g>
        <path id="XMLID_310_" class="cls-1" d="M365.122,490.218H164.566a8.692,8.692,0,0,1-8.666-8.666V347.366a8.692,8.692,0,0,1,8.666-8.666H365.122a8.692,8.692,0,0,1,8.666,8.666V481.479A8.707,8.707,0,0,1,365.122,490.218Z" transform="translate(-149.545 -278.805)"/>
        <path id="XMLID_309_" class="cls-2" d="M262.936,338.7H158.505a5.813,5.813,0,0,0-5.705,5.922V484.079A5.86,5.86,0,0,0,158.505,490h104.43Z" transform="translate(-148.683 -278.805)"/>
        <path id="XMLID_298_" class="cls-3" d="M148.6,366.7H371.688l.072,13.433Z" transform="translate(-147.517 -286.584)"/>
        <path id="XMLID_297_" class="cls-4" d="M375.244,357.56a5.467,5.467,0,0,0,.072-1.083V340.372c0-3.611-2.672-6.572-5.85-6.572H152.95c-3.25,0-5.85,2.961-5.85,6.572v16.105a5.466,5.466,0,0,0,.072,1.083Z" transform="translate(-147.1 -277.444)"/>
        <rect id="XMLID_296_" class="cls-5" width="24.122" height="160.257" transform="translate(101.686 50.94)"/>
        <g id="XMLID_114_" transform="translate(107.68 53.178)">
          <path id="XMLID_115_" class="cls-6" d="M305.411,383.522h-3.755c-.217,0-.361.072-.506.072a1,1,0,0,0-.289.217,1.07,1.07,0,0,0-.072.506.915.915,0,0,0,.072.433,1.51,1.51,0,0,0,.289.433h4.261v1.878h-3.755c-.217,0-.361.072-.506.072a1,1,0,0,0-.289.217,1.335,1.335,0,0,0,0,.867l.217.433h4.261v1.878h-5.994V388.65h.65a3.021,3.021,0,0,1-.578-.867,2,2,0,0,1-.217-.939,1.332,1.332,0,0,1,.289-.939,1.453,1.453,0,0,1,.794-.65,7.953,7.953,0,0,1-.794-1.011,1.589,1.589,0,0,1-.289-.939,2.137,2.137,0,0,1,.144-.722,1.123,1.123,0,0,1,.433-.578,2.259,2.259,0,0,1,.722-.361,4.263,4.263,0,0,1,1.011-.144h3.9Z" transform="translate(-297.033 -343.873)"/>
          <path id="XMLID_117_" class="cls-6" d="M305.655,374.528a3.855,3.855,0,0,1-.794,2.6,3.093,3.093,0,0,1-2.311.939,3.337,3.337,0,0,1-2.383-.867,3.221,3.221,0,0,1-.867-2.383,2.742,2.742,0,0,1,.722-2.094,3.251,3.251,0,0,1,2.167-.722h.65v4.117a2.137,2.137,0,0,0,.722-.144.74.74,0,0,0,.433-.361.82.82,0,0,0,.217-.578,2.226,2.226,0,0,0,.072-.722,2,2,0,0,0-.072-.65,4.98,4.98,0,0,0-.217-.578l-.217-.433a1,1,0,0,0-.217-.289v-.217h1.517a1.027,1.027,0,0,1,.144.433,4.611,4.611,0,0,1,.144.506c.072.217.072.433.144.65A2.6,2.6,0,0,1,305.655,374.528Zm-3.972-.578a1.332,1.332,0,0,0-.939.289.9.9,0,0,0-.289.794,1.2,1.2,0,0,0,.361.867,1.585,1.585,0,0,0,.867.361Z" transform="translate(-297.061 -341.234)"/>
          <path id="XMLID_120_" class="cls-6" d="M304.861,365.478c.072.144.217.217.289.361a4.28,4.28,0,0,1,.289.433c.072.144.144.361.217.506a1.6,1.6,0,0,1,.072.65,1.638,1.638,0,0,1-.506,1.3,1.8,1.8,0,0,1-1.372.506,1.74,1.74,0,0,1-1.083-.289,1.453,1.453,0,0,1-.65-.794,4.956,4.956,0,0,1-.361-1.228,10.773,10.773,0,0,1-.144-1.517h0a.8.8,0,0,0-.722.361,2.03,2.03,0,0,0-.217,1.083,3.725,3.725,0,0,0,.144.794c.072.289.217.578.289.867v.144h-1.444a7.488,7.488,0,0,1-.217-.867,8.04,8.04,0,0,1-.144-1.228,3.665,3.665,0,0,1,.506-2.239,1.776,1.776,0,0,1,1.589-.722h4.117v1.878Zm-.939,0h-1.228c0,.289.072.578.072.794a1.7,1.7,0,0,0,.144.578.721.721,0,0,0,.289.361,1.027,1.027,0,0,0,.433.144c.289,0,.506-.072.578-.217a1.442,1.442,0,0,0,.144-.65,1.339,1.339,0,0,0-.144-.506A1.164,1.164,0,0,0,303.922,365.478Z" transform="translate(-297.061 -338.901)"/>
          <path id="XMLID_123_" class="cls-6" d="M304.578,359.1v1.878H296.2V359.1Z" transform="translate(-296.2 -337.651)"/>
          <path id="XMLID_125_" class="cls-6" d="M302.361,350.1a3.485,3.485,0,0,1,2.383.722,2.29,2.29,0,0,1,.867,1.806,2.709,2.709,0,0,1-.072.794,4.982,4.982,0,0,1-.289.722h2.528v1.011h-8.233v-1.011h.65a2.6,2.6,0,0,1-.578-.867,2.307,2.307,0,0,1-.217-1.011,1.827,1.827,0,0,1,.794-1.589A3.684,3.684,0,0,1,302.361,350.1Zm.072,1.083a3.23,3.23,0,0,0-1.589.361,1.188,1.188,0,0,0-.578,1.083,1.456,1.456,0,0,0,.217.794,4.854,4.854,0,0,0,.506.794h3.394c.145-.289.217-.506.289-.65a2,2,0,0,0,.072-.65,1.543,1.543,0,0,0-.578-1.228A2.609,2.609,0,0,0,302.433,351.183Z" transform="translate(-297.089 -335.15)"/>
          <path id="XMLID_128_" class="cls-6" d="M302.45,341.8a3.174,3.174,0,0,1,2.311.722,2.667,2.667,0,0,1,.794,1.95,2.282,2.282,0,0,1-.867,1.95,3.41,3.41,0,0,1-2.311.722,3.174,3.174,0,0,1-2.311-.722,2.473,2.473,0,0,1-.867-1.95,2.667,2.667,0,0,1,.794-1.95A4.3,4.3,0,0,1,302.45,341.8Zm0,1.083a2.777,2.777,0,0,0-1.733.433,1.445,1.445,0,0,0-.578,1.228,1.543,1.543,0,0,0,.578,1.228,2.777,2.777,0,0,0,1.733.433,3.08,3.08,0,0,0,1.733-.433,1.593,1.593,0,0,0,0-2.456A2.924,2.924,0,0,0,302.45,342.883Z" transform="translate(-297.033 -332.845)"/>
          <path id="XMLID_131_" class="cls-6" d="M305.528,337.311a5.612,5.612,0,0,1-.144,1.155,2.411,2.411,0,0,1-.361.867h-1.156v-.072c.072-.072.144-.217.217-.289a1.511,1.511,0,0,1,.289-.433,4.975,4.975,0,0,0,.217-.578,2,2,0,0,0,.072-.65,1.229,1.229,0,0,0-.072-.506,3.008,3.008,0,0,0-.144-.433.564.564,0,0,0-.289-.289c-.072-.072-.217-.072-.433-.072a.82.82,0,0,0-.578.217,1.358,1.358,0,0,0-.289.722,1.837,1.837,0,0,1-.144.506c-.072.217-.072.433-.144.578a2.055,2.055,0,0,1-.65,1.011,1.529,1.529,0,0,1-1.011.289,1.691,1.691,0,0,1-1.3-.578,2.408,2.408,0,0,1-.506-1.661,4.876,4.876,0,0,1,.144-1.011,6.022,6.022,0,0,1,.289-.867h1.083v.072a5.389,5.389,0,0,0-.506.867,2.133,2.133,0,0,0-.144.939,1.715,1.715,0,0,0,.217.867.758.758,0,0,0,.65.361.82.82,0,0,0,.578-.217,1.36,1.36,0,0,0,.289-.65,4.608,4.608,0,0,0,.144-.506c.072-.217.072-.361.144-.578a1.974,1.974,0,0,1,.578-1.011A1.625,1.625,0,0,1,303.65,335a2.137,2.137,0,0,1,.722.144,1.123,1.123,0,0,1,.578.433,6.344,6.344,0,0,1,.433.722A2,2,0,0,1,305.528,337.311Z" transform="translate(-297.006 -330.956)"/>
          <path id="XMLID_133_" class="cls-6" d="M304.944,330.628a1.545,1.545,0,0,1-.506,1.3,2.114,2.114,0,0,1-1.517.433H299.6v.65h-.867v-.65H297V331.35h1.733v-1.878h.867v1.878h3.539a1.026,1.026,0,0,0,.433-.144.564.564,0,0,0,.289-.289,1.242,1.242,0,0,0,.072-.578,1.41,1.41,0,0,0-.072-.506c-.072-.144-.072-.289-.144-.361V329.4h.939c.072.217.072.361.144.578A1.319,1.319,0,0,1,304.944,330.628Z" transform="translate(-296.422 -329.4)"/>
        </g>
        <path id="XMLID_294_" class="cls-6" d="M264.213,326.21a44.913,44.913,0,0,0-24.772,33.582,37.812,37.812,0,0,0-.217,9.461,16.228,16.228,0,0,1,10.544-3.9,16.88,16.88,0,0,1,15.166,10.039c1.878-14.661,6.139-28.238,15.383-40.3,1.733-2.239,3.611-4.478,4.405-7.222C288.262,314.944,268.98,323.9,264.213,326.21Z" transform="translate(-172.638 -273.898)"/>
        <path id="XMLID_293_" class="cls-6" d="M328.445,326.21a44.913,44.913,0,0,1,24.772,33.582,37.809,37.809,0,0,1,.217,9.461,16.227,16.227,0,0,0-10.544-3.9,16.88,16.88,0,0,0-15.166,10.039c-1.878-14.661-6.139-28.238-15.383-40.3-1.733-2.239-3.611-4.478-4.405-7.222C304.4,314.944,323.678,323.9,328.445,326.21Z" transform="translate(-191.66 -273.898)"/>
        <path id="XMLID_292_" class="cls-5" d="M380.472,322.511c2.528.361,5.055.722,7.511,1.083,3.611.506,3.9,4.478,2.383,7.222-1.878,3.322-6.789,3.755-10.255,4.622a59.132,59.132,0,0,1-30.116-.578c-5.055-1.444-20.872-7.078-18.488-14.661" transform="translate(-198.26 -273.666)"/>
        <path id="XMLID_291_" class="cls-7" d="M398.054,270.8c2.889,2.672,3.394,7.078,3.467,11.05a246.614,246.614,0,0,1-1.228,27.3c-.361,3.611.794,8.666-4.189,8.233a85.772,85.772,0,0,1-14.805-3.178,48.07,48.07,0,0,0-7.005-1.95,25.818,25.818,0,0,1-7.222-2.094c-5.417-2.672-6.861-9.1-5.055-14.444,1.806-5.272,6.211-11.266,9.605-15.816C376.677,273.113,389.532,262.929,398.054,270.8Z" transform="translate(-206.598 -259.15)"/>
        <path id="XMLID_290_" class="cls-6" d="M315.633,285.573c5.2-6.066,10.4-12.205,16.538-17.333S345.46,259,353.332,257.552c5.055-.939,11.194-.361,14.083,3.972,1.661,2.528,1.806,5.778,1.878,8.811.289,9.172.506,18.416.794,27.588,0,.939,0,2.094-.722,2.672-1.372,1.083-3.178-.433-4.478-1.589-5.417-5.055-13.938-4.694-20.944-2.383s-13.505,6.211-20.8,7.439c-3.683.65-8.089.289-10.472-2.6-1.878-2.311-2.022-5.705-1.011-8.522a27.91,27.91,0,0,1,4.767-7.583" transform="translate(-192.642 -256.155)"/>
        <path id="XMLID_289_" class="cls-8" d="M314.739,318.9A78.73,78.73,0,0,1,358.5,306.988c4.117.144,9.172,1.228,10.4,5.2.867,2.817-.867,5.922-3.322,7.583s-5.489,2.167-8.378,2.6a161.1,161.1,0,0,1-33.366,1.083c-3.828-.289-8.305-1.083-10.039-4.55" transform="translate(-193.409 -269.987)"/>
        <path id="XMLID_288_" class="cls-5" d="M206.474,321.211c-2.528.361-4.983.722-7.511,1.083-3.611.506-3.828,4.478-2.383,7.222,1.805,3.322,6.789,3.755,10.183,4.622a58.022,58.022,0,0,0,29.827-.578c5.055-1.444,20.727-7.078,18.344-14.661" transform="translate(-160.614 -273.305)"/>
        <path id="XMLID_287_" class="cls-7" d="M195.85,269.5c-2.889,2.672-3.394,7.078-3.467,11.05a246.629,246.629,0,0,0,1.228,27.3c.361,3.611-.794,8.666,4.189,8.233a79.508,79.508,0,0,0,14.805-3.178,48.066,48.066,0,0,1,7.005-1.95,25.818,25.818,0,0,0,7.222-2.094c5.417-2.672,6.861-9.1,5.055-14.444-1.806-5.272-6.211-11.266-9.605-15.816C217.228,271.736,204.3,261.625,195.85,269.5Z" transform="translate(-159.668 -258.784)"/>
        <path id="XMLID_286_" class="cls-6" d="M271.054,284.173c-5.2-6.066-10.4-12.205-16.538-17.333s-13.289-9.244-21.161-10.689c-5.055-.939-11.194-.361-14.083,3.972-1.661,2.528-1.806,5.778-1.878,8.811-.289,9.172-.506,18.416-.794,27.588,0,.939,0,2.094.722,2.672,1.372,1.083,3.178-.433,4.478-1.589,5.417-5.055,13.938-4.694,20.944-2.383s13.505,6.211,20.8,7.439c3.683.65,8.089.289,10.472-2.6,1.878-2.311,2.022-5.705,1.011-8.522a27.91,27.91,0,0,0-4.767-7.583" transform="translate(-166.407 -255.766)"/>
        <path id="XMLID_281_" class="cls-8" d="M273.278,317.5a78.73,78.73,0,0,0-43.765-11.916c-4.117.144-9.172,1.228-10.4,5.2-.867,2.817.867,5.922,3.322,7.583s5.489,2.167,8.378,2.6a161.094,161.094,0,0,0,33.366,1.083c3.828-.289,8.305-1.083,10.039-4.55" transform="translate(-167.042 -269.598)"/>
        <path id="XMLID_280_" class="cls-9" d="M302.544,323.838h-4.478a8.692,8.692,0,0,1-8.666-8.666V302.966a8.692,8.692,0,0,1,8.666-8.666h4.478a8.692,8.692,0,0,1,8.666,8.666v12.205A8.692,8.692,0,0,1,302.544,323.838Z" transform="translate(-186.631 -266.471)"/>
        <g id="XMLID_93_" transform="translate(108.98 161.436)">
          <path id="XMLID_94_" class="cls-6" d="M307.111,533.422h-3.755c-.217,0-.361.072-.506.072a1,1,0,0,0-.289.217,1.071,1.071,0,0,0-.072.506.915.915,0,0,0,.072.433,1.51,1.51,0,0,0,.289.433h4.261v1.878h-3.755c-.217,0-.361.072-.506.072a1,1,0,0,0-.289.217,1.336,1.336,0,0,0,0,.867l.217.433h4.261v1.878h-5.994V538.55h.65a3.023,3.023,0,0,1-.578-.867,2,2,0,0,1-.217-.939,1.332,1.332,0,0,1,.289-.939,1.453,1.453,0,0,1,.794-.65,7.954,7.954,0,0,1-.794-1.011,1.589,1.589,0,0,1-.289-.939,2.137,2.137,0,0,1,.144-.722,1.124,1.124,0,0,1,.433-.578,2.258,2.258,0,0,1,.722-.361,4.263,4.263,0,0,1,1.011-.144h3.9v2.022Z" transform="translate(-298.806 -493.773)"/>
          <path id="XMLID_96_" class="cls-6" d="M307.355,524.428a3.855,3.855,0,0,1-.794,2.6,3.093,3.093,0,0,1-2.311.939,3.336,3.336,0,0,1-2.383-.867,3.221,3.221,0,0,1-.867-2.383,2.742,2.742,0,0,1,.722-2.094,3.251,3.251,0,0,1,2.167-.722h.65v4.117a2.135,2.135,0,0,0,.722-.144.74.74,0,0,0,.433-.361.82.82,0,0,0,.217-.578,2.226,2.226,0,0,0,.072-.722,2,2,0,0,0-.072-.65,4.983,4.983,0,0,0-.217-.578l-.217-.433a1,1,0,0,0-.217-.289v-.217h1.517a1.026,1.026,0,0,1,.145.433,4.61,4.61,0,0,1,.144.506c.072.217.072.433.144.65A2.6,2.6,0,0,1,307.355,524.428Zm-3.972-.65a1.332,1.332,0,0,0-.939.289.9.9,0,0,0-.289.794,1.2,1.2,0,0,0,.361.867,1.585,1.585,0,0,0,.867.361Z" transform="translate(-298.833 -491.134)"/>
          <path id="XMLID_99_" class="cls-6" d="M306.461,515.278c.072.144.217.217.289.361a4.419,4.419,0,0,0,.289.433c.072.144.144.361.217.506a1.6,1.6,0,0,1,.072.65,1.638,1.638,0,0,1-.506,1.3,1.8,1.8,0,0,1-1.372.506,1.741,1.741,0,0,1-1.083-.289,1.453,1.453,0,0,1-.65-.794,4.957,4.957,0,0,1-.361-1.228,10.779,10.779,0,0,1-.144-1.517h0a.8.8,0,0,0-.722.361,2.029,2.029,0,0,0-.217,1.083,3.725,3.725,0,0,0,.145.794c.072.289.217.578.289.867v.144h-1.444a7.5,7.5,0,0,1-.217-.867,8.044,8.044,0,0,1-.144-1.228,3.665,3.665,0,0,1,.506-2.239,1.776,1.776,0,0,1,1.589-.722h4.117v1.878Zm-.867,0h-1.228c0,.289.072.578.072.794a1.7,1.7,0,0,0,.144.578.721.721,0,0,0,.289.361,1.026,1.026,0,0,0,.433.144c.289,0,.506-.072.578-.217a1.442,1.442,0,0,0,.144-.65,1.339,1.339,0,0,0-.144-.506A3.14,3.14,0,0,0,305.594,515.278Z" transform="translate(-298.806 -488.773)"/>
          <path id="XMLID_102_" class="cls-6" d="M306.305,508.9v1.878H298V508.9Z" transform="translate(-298 -487.523)"/>
          <path id="XMLID_104_" class="cls-6" d="M304.061,500a3.486,3.486,0,0,1,2.383.722,2.29,2.29,0,0,1,.867,1.805,2.709,2.709,0,0,1-.072.794,4.983,4.983,0,0,1-.289.722h2.528v1.011h-8.233v-1.011h.65a2.6,2.6,0,0,1-.578-.867,2.307,2.307,0,0,1-.217-1.011,1.827,1.827,0,0,1,.794-1.589A3.228,3.228,0,0,1,304.061,500Zm.072,1.011a3.23,3.23,0,0,0-1.589.361,1.188,1.188,0,0,0-.578,1.083,1.456,1.456,0,0,0,.217.794,4.855,4.855,0,0,0,.506.794h3.394c.144-.289.217-.506.289-.65a2,2,0,0,0,.072-.65,1.543,1.543,0,0,0-.578-1.228A2.609,2.609,0,0,0,304.133,501.011Z" transform="translate(-298.861 -485.05)"/>
          <path id="XMLID_107_" class="cls-6" d="M304.15,491.7a3.174,3.174,0,0,1,2.311.722,2.415,2.415,0,0,1,.794,1.95,2.282,2.282,0,0,1-.867,1.95,3.41,3.41,0,0,1-2.311.722,3.174,3.174,0,0,1-2.311-.722,2.473,2.473,0,0,1-.867-1.95,2.667,2.667,0,0,1,.794-1.95A3.818,3.818,0,0,1,304.15,491.7Zm0,1.011a2.777,2.777,0,0,0-1.733.433,1.445,1.445,0,0,0-.578,1.228,1.543,1.543,0,0,0,.578,1.228,2.777,2.777,0,0,0,1.733.433,3.08,3.08,0,0,0,1.733-.433,1.593,1.593,0,0,0,0-2.456A3.08,3.08,0,0,0,304.15,492.711Z" transform="translate(-298.806 -482.745)"/>
          <path id="XMLID_110_" class="cls-6" d="M307.228,487.139a5.612,5.612,0,0,1-.144,1.156,2.41,2.41,0,0,1-.361.867h-1.155v-.072c.072-.072.144-.217.217-.289a1.511,1.511,0,0,1,.289-.433,4.972,4.972,0,0,0,.217-.578,2,2,0,0,0,.072-.65,1.229,1.229,0,0,0-.072-.506,3.011,3.011,0,0,0-.144-.433.564.564,0,0,0-.289-.289c-.072-.072-.217-.072-.433-.072a.82.82,0,0,0-.578.217,1.358,1.358,0,0,0-.289.722,1.837,1.837,0,0,1-.144.505c-.072.217-.072.433-.144.578a2.055,2.055,0,0,1-.65,1.011,1.529,1.529,0,0,1-1.011.289,1.691,1.691,0,0,1-1.3-.578,2.334,2.334,0,0,1-.506-1.589,4.877,4.877,0,0,1,.144-1.011,6.027,6.027,0,0,1,.289-.867h1.083v.072a5.385,5.385,0,0,0-.506.867,2.133,2.133,0,0,0-.144.939,1.716,1.716,0,0,0,.217.867.758.758,0,0,0,.65.361.82.82,0,0,0,.578-.217,1.361,1.361,0,0,0,.289-.65,4.605,4.605,0,0,0,.144-.505c.072-.217.072-.361.144-.578a1.974,1.974,0,0,1,.578-1.011,1.626,1.626,0,0,1,1.083-.361,2.135,2.135,0,0,1,.722.144,1.123,1.123,0,0,1,.578.433,6.358,6.358,0,0,1,.433.722A1.706,1.706,0,0,1,307.228,487.139Z" transform="translate(-298.778 -480.856)"/>
          <path id="XMLID_112_" class="cls-6" d="M306.644,480.528a1.545,1.545,0,0,1-.506,1.3,2.114,2.114,0,0,1-1.517.433H301.3v.65h-.867v-.65H298.7V481.25h1.733v-1.878h.867v1.878h3.539a1.027,1.027,0,0,0,.433-.144.564.564,0,0,0,.289-.289,1.242,1.242,0,0,0,.072-.578,1.41,1.41,0,0,0-.072-.506c-.072-.144-.072-.289-.144-.361V479.3h.939c.072.217.072.361.144.578A1.188,1.188,0,0,1,306.644,480.528Z" transform="translate(-298.194 -479.3)"/>
        </g>
        <g id="XMLID_72_" transform="translate(108.258 108.282)">
          <path id="XMLID_73_" class="cls-6" d="M300,412.705h3.755c.217,0,.361-.072.506-.072a1,1,0,0,0,.289-.217,1.071,1.071,0,0,0,.072-.506.916.916,0,0,0-.072-.433,1.512,1.512,0,0,0-.289-.433H300v-1.878h3.755c.217,0,.361-.072.506-.072a1,1,0,0,0,.289-.217,1.336,1.336,0,0,0,0-.867l-.217-.433H300V405.7h5.994v1.878h-.65a3.02,3.02,0,0,1,.578.867,2,2,0,0,1,.217.939,1.332,1.332,0,0,1-.289.939,1.453,1.453,0,0,1-.794.65,7.951,7.951,0,0,1,.794,1.011,1.589,1.589,0,0,1,.289.939,2.136,2.136,0,0,1-.144.722,1.123,1.123,0,0,1-.433.578,2.261,2.261,0,0,1-.722.361,4.263,4.263,0,0,1-1.011.144H300Z" transform="translate(-297.833 -405.7)"/>
          <path id="XMLID_75_" class="cls-6" d="M299.8,422.839a3.855,3.855,0,0,1,.794-2.6,3.092,3.092,0,0,1,2.311-.939,3.336,3.336,0,0,1,2.383.867,3.221,3.221,0,0,1,.867,2.383,2.742,2.742,0,0,1-.722,2.094,3.251,3.251,0,0,1-2.167.722h-.65V421.25a2.137,2.137,0,0,0-.722.144.74.74,0,0,0-.433.361.82.82,0,0,0-.217.578,2.226,2.226,0,0,0-.072.722,2,2,0,0,0,.072.65,4.979,4.979,0,0,0,.217.578l.217.433a1,1,0,0,0,.217.289v.217h-1.517a1.026,1.026,0,0,1-.144-.433,4.609,4.609,0,0,1-.144-.506c-.072-.217-.072-.433-.144-.65A1.311,1.311,0,0,1,299.8,422.839Zm3.972.65a1.332,1.332,0,0,0,.939-.289.9.9,0,0,0,.289-.794,1.2,1.2,0,0,0-.361-.867,1.585,1.585,0,0,0-.867-.361v2.311Z" transform="translate(-297.778 -409.478)"/>
          <path id="XMLID_78_" class="cls-6" d="M300.567,432.156c-.072-.144-.217-.217-.289-.361a4.275,4.275,0,0,1-.289-.433c-.072-.144-.144-.361-.217-.506a1.6,1.6,0,0,1-.072-.65,1.638,1.638,0,0,1,.506-1.3,1.8,1.8,0,0,1,1.372-.506,1.74,1.74,0,0,1,1.083.289,1.453,1.453,0,0,1,.65.794,4.957,4.957,0,0,1,.361,1.228,10.773,10.773,0,0,1,.144,1.517h0a.8.8,0,0,0,.722-.361,2.03,2.03,0,0,0,.217-1.083,3.728,3.728,0,0,0-.144-.794c-.072-.289-.217-.578-.289-.867v-.144h1.444a7.493,7.493,0,0,1,.217.867,8.043,8.043,0,0,1,.144,1.228,3.665,3.665,0,0,1-.506,2.239,1.776,1.776,0,0,1-1.589.722h-4.117v-1.878Zm.939,0h1.228c0-.289-.072-.578-.072-.794a1.7,1.7,0,0,0-.144-.578.721.721,0,0,0-.289-.361,1.026,1.026,0,0,0-.433-.144c-.289,0-.506.072-.578.217a1.442,1.442,0,0,0-.144.65,1.339,1.339,0,0,0,.144.506A1.164,1.164,0,0,0,301.506,432.156Z" transform="translate(-297.75 -412.006)"/>
          <path id="XMLID_81_" class="cls-6" d="M300,439.978V438.1h8.378v1.878Z" transform="translate(-297.833 -414.701)"/>
          <path id="XMLID_83_" class="cls-6" d="M302.344,447.755a3.485,3.485,0,0,1-2.383-.722,2.29,2.29,0,0,1-.867-1.805,2.708,2.708,0,0,1,.072-.794,4.98,4.98,0,0,1,.289-.722H297V442.7h8.233v1.011h-.65a2.6,2.6,0,0,1,.578.867,2.306,2.306,0,0,1,.217,1.011,1.827,1.827,0,0,1-.794,1.589A4.106,4.106,0,0,1,302.344,447.755Zm-.072-1.083a3.23,3.23,0,0,0,1.589-.361,1.188,1.188,0,0,0,.578-1.083,1.456,1.456,0,0,0-.217-.794,4.857,4.857,0,0,0-.506-.794h-3.394c-.144.289-.217.506-.289.65a2,2,0,0,0-.072.65,1.543,1.543,0,0,0,.578,1.228A2.487,2.487,0,0,0,302.272,446.672Z" transform="translate(-297 -415.978)"/>
          <path id="XMLID_86_" class="cls-6" d="M303.005,455.844a3.175,3.175,0,0,1-2.311-.722,2.667,2.667,0,0,1-.794-1.95,2.282,2.282,0,0,1,.867-1.95,3.411,3.411,0,0,1,2.311-.722,3.174,3.174,0,0,1,2.311.722,2.473,2.473,0,0,1,.867,1.95,2.667,2.667,0,0,1-.794,1.95A3.819,3.819,0,0,1,303.005,455.844Zm0-1.011a2.777,2.777,0,0,0,1.733-.433,1.445,1.445,0,0,0,.578-1.228,1.543,1.543,0,0,0-.578-1.228,2.777,2.777,0,0,0-1.733-.433,3.08,3.08,0,0,0-1.733.433,1.593,1.593,0,0,0,0,2.456A2.777,2.777,0,0,0,303.005,454.833Z" transform="translate(-297.806 -418.145)"/>
          <path id="XMLID_89_" class="cls-6" d="M299.8,460.822a5.613,5.613,0,0,1,.144-1.156,2.411,2.411,0,0,1,.361-.867h1.156v.072c-.072.072-.144.217-.217.289a1.511,1.511,0,0,1-.289.433,4.977,4.977,0,0,0-.217.578,2,2,0,0,0-.072.65,1.229,1.229,0,0,0,.072.506,3.009,3.009,0,0,0,.144.433.564.564,0,0,0,.289.289c.072.072.217.072.433.072a.82.82,0,0,0,.578-.217,1.357,1.357,0,0,0,.289-.722,1.837,1.837,0,0,1,.144-.506c.072-.217.072-.433.144-.578a2.055,2.055,0,0,1,.65-1.011,1.528,1.528,0,0,1,1.011-.289,1.691,1.691,0,0,1,1.3.578,2.6,2.6,0,0,1,.506,1.589,4.874,4.874,0,0,1-.144,1.011,6.022,6.022,0,0,1-.289.867h-1.083v-.072a5.386,5.386,0,0,0,.506-.867,2.132,2.132,0,0,0,.144-.939,1.716,1.716,0,0,0-.217-.867.759.759,0,0,0-.65-.361.82.82,0,0,0-.578.217,1.361,1.361,0,0,0-.289.65,4.607,4.607,0,0,0-.144.506c-.072.217-.072.361-.144.578a1.974,1.974,0,0,1-.578,1.011,1.625,1.625,0,0,1-1.083.361,2.135,2.135,0,0,1-.722-.145,1.123,1.123,0,0,1-.578-.433,6.353,6.353,0,0,1-.433-.722A2.826,2.826,0,0,1,299.8,460.822Z" transform="translate(-297.778 -420.451)"/>
          <path id="XMLID_91_" class="cls-6" d="M299.9,467.783a1.545,1.545,0,0,1,.506-1.3,2.115,2.115,0,0,1,1.517-.433h3.322v-.65h.867v.65h1.733v1.011h-1.733v1.878h-.867v-1.878h-3.539a1.027,1.027,0,0,0-.433.144.564.564,0,0,0-.289.289,1.242,1.242,0,0,0-.072.578,1.41,1.41,0,0,0,.072.506c.072.144.072.289.144.361v.072h-.939c-.072-.217-.072-.361-.144-.578A1.475,1.475,0,0,1,299.9,467.783Z" transform="translate(-297.806 -422.285)"/>
        </g>
        <path id="XMLID_337_" class="cls-1" d="M365.122,490.218H164.566a8.692,8.692,0,0,1-8.666-8.666V347.366a8.692,8.692,0,0,1,8.666-8.666H365.122a8.692,8.692,0,0,1,8.666,8.666V481.479A8.707,8.707,0,0,1,365.122,490.218Z" transform="translate(-149.545 -278.805)"/>
        <path id="XMLID_336_" class="cls-2" d="M262.936,338.7H158.505a5.813,5.813,0,0,0-5.705,5.922V484.079A5.86,5.86,0,0,0,158.505,490h104.43Z" transform="translate(-148.683 -278.805)"/>
        <path id="XMLID_328_" class="cls-3" d="M148.6,366.7H371.688l.072,13.433Z" transform="translate(-147.517 -286.584)"/>
        <path id="XMLID_327_" class="cls-4" d="M375.244,357.56a5.467,5.467,0,0,0,.072-1.083V340.372c0-3.611-2.672-6.572-5.85-6.572H152.95c-3.25,0-5.85,2.961-5.85,6.572v16.105a5.466,5.466,0,0,0,.072,1.083Z" transform="translate(-147.1 -277.444)"/>
        <rect id="XMLID_326_" class="cls-10" width="24.122" height="160.257" transform="translate(101.686 50.94)"/>
        <g id="XMLID_51_" transform="translate(107.68 53.178)">
          <g id="XMLID_467_">
            <path id="XMLID_486_" class="cls-11" d="M305.411,383.522h-3.755c-.217,0-.361.072-.506.072a1,1,0,0,0-.289.217,1.07,1.07,0,0,0-.072.506.915.915,0,0,0,.072.433,1.51,1.51,0,0,0,.289.433h4.261v1.878h-3.755c-.217,0-.361.072-.506.072a1,1,0,0,0-.289.217,1.335,1.335,0,0,0,0,.867l.217.433h4.261v1.878h-5.994V388.65h.65a3.021,3.021,0,0,1-.578-.867,2,2,0,0,1-.217-.939,1.332,1.332,0,0,1,.289-.939,1.453,1.453,0,0,1,.794-.65,7.953,7.953,0,0,1-.794-1.011,1.589,1.589,0,0,1-.289-.939,2.137,2.137,0,0,1,.144-.722,1.123,1.123,0,0,1,.433-.578,2.259,2.259,0,0,1,.722-.361,4.263,4.263,0,0,1,1.011-.144h3.9Z" transform="translate(-297.033 -343.873)"/>
            <path id="XMLID_483_" class="cls-11" d="M305.655,374.528a3.855,3.855,0,0,1-.794,2.6,3.093,3.093,0,0,1-2.311.939,3.337,3.337,0,0,1-2.383-.867,3.221,3.221,0,0,1-.867-2.383,2.742,2.742,0,0,1,.722-2.094,3.251,3.251,0,0,1,2.167-.722h.65v4.117a2.137,2.137,0,0,0,.722-.144.74.74,0,0,0,.433-.361.82.82,0,0,0,.217-.578,2.226,2.226,0,0,0,.072-.722,2,2,0,0,0-.072-.65,4.98,4.98,0,0,0-.217-.578l-.217-.433a1,1,0,0,0-.217-.289v-.217h1.517a1.027,1.027,0,0,1,.144.433,4.611,4.611,0,0,1,.144.506c.072.217.072.433.144.65A2.6,2.6,0,0,1,305.655,374.528Zm-3.972-.578a1.332,1.332,0,0,0-.939.289.9.9,0,0,0-.289.794,1.2,1.2,0,0,0,.361.867,1.585,1.585,0,0,0,.867.361Z" transform="translate(-297.061 -341.234)"/>
            <path id="XMLID_480_" class="cls-11" d="M304.861,365.478c.072.144.217.217.289.361a4.28,4.28,0,0,1,.289.433c.072.144.144.361.217.506a1.6,1.6,0,0,1,.072.65,1.638,1.638,0,0,1-.506,1.3,1.8,1.8,0,0,1-1.372.506,1.74,1.74,0,0,1-1.083-.289,1.453,1.453,0,0,1-.65-.794,4.956,4.956,0,0,1-.361-1.228,10.773,10.773,0,0,1-.144-1.517h0a.8.8,0,0,0-.722.361,2.03,2.03,0,0,0-.217,1.083,3.725,3.725,0,0,0,.144.794c.072.289.217.578.289.867v.144h-1.444a7.488,7.488,0,0,1-.217-.867,8.04,8.04,0,0,1-.144-1.228,3.665,3.665,0,0,1,.506-2.239,1.776,1.776,0,0,1,1.589-.722h4.117v1.878Zm-.939,0h-1.228c0,.289.072.578.072.794a1.7,1.7,0,0,0,.144.578.721.721,0,0,0,.289.361,1.027,1.027,0,0,0,.433.144c.289,0,.506-.072.578-.217a1.442,1.442,0,0,0,.144-.65,1.339,1.339,0,0,0-.144-.506A1.164,1.164,0,0,0,303.922,365.478Z" transform="translate(-297.061 -338.901)"/>
            <path id="XMLID_478_" class="cls-11" d="M304.578,359.1v1.878H296.2V359.1Z" transform="translate(-296.2 -337.651)"/>
            <path id="XMLID_475_" class="cls-11" d="M302.361,350.1a3.485,3.485,0,0,1,2.383.722,2.29,2.29,0,0,1,.867,1.806,2.709,2.709,0,0,1-.072.794,4.982,4.982,0,0,1-.289.722h2.528v1.011h-8.233v-1.011h.65a2.6,2.6,0,0,1-.578-.867,2.307,2.307,0,0,1-.217-1.011,1.827,1.827,0,0,1,.794-1.589A3.684,3.684,0,0,1,302.361,350.1Zm.072,1.083a3.23,3.23,0,0,0-1.589.361,1.188,1.188,0,0,0-.578,1.083,1.456,1.456,0,0,0,.217.794,4.854,4.854,0,0,0,.506.794h3.394c.145-.289.217-.506.289-.65a2,2,0,0,0,.072-.65,1.543,1.543,0,0,0-.578-1.228A2.609,2.609,0,0,0,302.433,351.183Z" transform="translate(-297.089 -335.15)"/>
            <path id="XMLID_472_" class="cls-11" d="M302.45,341.8a3.174,3.174,0,0,1,2.311.722,2.667,2.667,0,0,1,.794,1.95,2.282,2.282,0,0,1-.867,1.95,3.41,3.41,0,0,1-2.311.722,3.174,3.174,0,0,1-2.311-.722,2.473,2.473,0,0,1-.867-1.95,2.667,2.667,0,0,1,.794-1.95A4.3,4.3,0,0,1,302.45,341.8Zm0,1.083a2.777,2.777,0,0,0-1.733.433,1.445,1.445,0,0,0-.578,1.228,1.543,1.543,0,0,0,.578,1.228,2.777,2.777,0,0,0,1.733.433,3.08,3.08,0,0,0,1.733-.433,1.593,1.593,0,0,0,0-2.456A2.924,2.924,0,0,0,302.45,342.883Z" transform="translate(-297.033 -332.845)"/>
            <path id="XMLID_470_" class="cls-11" d="M305.528,337.311a5.612,5.612,0,0,1-.144,1.155,2.411,2.411,0,0,1-.361.867h-1.156v-.072c.072-.072.144-.217.217-.289a1.511,1.511,0,0,1,.289-.433,4.975,4.975,0,0,0,.217-.578,2,2,0,0,0,.072-.65,1.229,1.229,0,0,0-.072-.506,3.008,3.008,0,0,0-.144-.433.564.564,0,0,0-.289-.289c-.072-.072-.217-.072-.433-.072a.82.82,0,0,0-.578.217,1.358,1.358,0,0,0-.289.722,1.837,1.837,0,0,1-.144.506c-.072.217-.072.433-.144.578a2.055,2.055,0,0,1-.65,1.011,1.529,1.529,0,0,1-1.011.289,1.691,1.691,0,0,1-1.3-.578,2.408,2.408,0,0,1-.506-1.661,4.876,4.876,0,0,1,.144-1.011,6.022,6.022,0,0,1,.289-.867h1.083v.072a5.389,5.389,0,0,0-.506.867,2.133,2.133,0,0,0-.144.939,1.715,1.715,0,0,0,.217.867.758.758,0,0,0,.65.361.82.82,0,0,0,.578-.217,1.36,1.36,0,0,0,.289-.65,4.608,4.608,0,0,0,.144-.506c.072-.217.072-.361.144-.578a1.974,1.974,0,0,1,.578-1.011A1.625,1.625,0,0,1,303.65,335a2.137,2.137,0,0,1,.722.144,1.123,1.123,0,0,1,.578.433,6.344,6.344,0,0,1,.433.722A2,2,0,0,1,305.528,337.311Z" transform="translate(-297.006 -330.956)"/>
            <path id="XMLID_468_" class="cls-11" d="M304.944,330.628a1.545,1.545,0,0,1-.506,1.3,2.114,2.114,0,0,1-1.517.433H299.6v.65h-.867v-.65H297V331.35h1.733v-1.878h.867v1.878h3.539a1.026,1.026,0,0,0,.433-.144.564.564,0,0,0,.289-.289,1.242,1.242,0,0,0,.072-.578,1.41,1.41,0,0,0-.072-.506c-.072-.144-.072-.289-.144-.361V329.4h.939c.072.217.072.361.144.578A1.319,1.319,0,0,1,304.944,330.628Z" transform="translate(-296.422 -329.4)"/>
          </g>
        </g>
        <path id="XMLID_324_" class="cls-11" d="M264.213,326.21a44.913,44.913,0,0,0-24.772,33.582,37.812,37.812,0,0,0-.217,9.461,16.228,16.228,0,0,1,10.544-3.9,16.88,16.88,0,0,1,15.166,10.039c1.878-14.661,6.139-28.238,15.383-40.3,1.733-2.239,3.611-4.478,4.405-7.222C288.262,314.944,268.98,323.9,264.213,326.21Z" transform="translate(-172.638 -273.898)"/>
        <path id="XMLID_323_" class="cls-11" d="M328.445,326.21a44.913,44.913,0,0,1,24.772,33.582,37.809,37.809,0,0,1,.217,9.461,16.227,16.227,0,0,0-10.544-3.9,16.88,16.88,0,0,0-15.166,10.039c-1.878-14.661-6.139-28.238-15.383-40.3-1.733-2.239-3.611-4.478-4.405-7.222C304.4,314.944,323.678,323.9,328.445,326.21Z" transform="translate(-191.66 -273.898)"/>
        <path id="XMLID_322_" class="cls-10" d="M380.472,322.511c2.528.361,5.055.722,7.511,1.083,3.611.506,3.9,4.478,2.383,7.222-1.878,3.322-6.789,3.755-10.255,4.622a59.132,59.132,0,0,1-30.116-.578c-5.055-1.444-20.872-7.078-18.488-14.661" transform="translate(-198.26 -273.666)"/>
        <path id="XMLID_321_" class="cls-12" d="M398.054,270.8c2.889,2.672,3.394,7.078,3.467,11.05a246.614,246.614,0,0,1-1.228,27.3c-.361,3.611.794,8.666-4.189,8.233a85.772,85.772,0,0,1-14.805-3.178,48.07,48.07,0,0,0-7.005-1.95,25.818,25.818,0,0,1-7.222-2.094c-5.417-2.672-6.861-9.1-5.055-14.444,1.806-5.272,6.211-11.266,9.605-15.816C376.677,273.113,389.532,262.929,398.054,270.8Z" transform="translate(-206.598 -259.15)"/>
        <path id="XMLID_320_" class="cls-11" d="M315.633,285.573c5.2-6.066,10.4-12.205,16.538-17.333S345.46,259,353.332,257.552c5.055-.939,11.194-.361,14.083,3.972,1.661,2.528,1.806,5.778,1.878,8.811.289,9.172.506,18.416.794,27.588,0,.939,0,2.094-.722,2.672-1.372,1.083-3.178-.433-4.478-1.589-5.417-5.055-13.938-4.694-20.944-2.383s-13.505,6.211-20.8,7.439c-3.683.65-8.089.289-10.472-2.6-1.878-2.311-2.022-5.705-1.011-8.522a27.91,27.91,0,0,1,4.767-7.583" transform="translate(-192.642 -256.155)"/>
        <path id="XMLID_319_" class="cls-6" d="M314.739,318.9A78.73,78.73,0,0,1,358.5,306.988c4.117.144,9.172,1.228,10.4,5.2.867,2.817-.867,5.922-3.322,7.583s-5.489,2.167-8.378,2.6a161.1,161.1,0,0,1-33.366,1.083c-3.828-.289-8.305-1.083-10.039-4.55" transform="translate(-193.409 -269.987)"/>
        <path id="XMLID_318_" class="cls-10" d="M206.474,321.211c-2.528.361-4.983.722-7.511,1.083-3.611.506-3.828,4.478-2.383,7.222,1.805,3.322,6.789,3.755,10.183,4.622a58.022,58.022,0,0,0,29.827-.578c5.055-1.444,20.727-7.078,18.344-14.661" transform="translate(-160.614 -273.305)"/>
        <path id="XMLID_317_" class="cls-12" d="M195.85,269.5c-2.889,2.672-3.394,7.078-3.467,11.05a246.629,246.629,0,0,0,1.228,27.3c.361,3.611-.794,8.666,4.189,8.233a79.508,79.508,0,0,0,14.805-3.178,48.066,48.066,0,0,1,7.005-1.95,25.818,25.818,0,0,0,7.222-2.094c5.417-2.672,6.861-9.1,5.055-14.444-1.806-5.272-6.211-11.266-9.605-15.816C217.228,271.736,204.3,261.625,195.85,269.5Z" transform="translate(-159.668 -258.784)"/>
        <path id="XMLID_316_" class="cls-11" d="M271.054,284.173c-5.2-6.066-10.4-12.205-16.538-17.333s-13.289-9.244-21.161-10.689c-5.055-.939-11.194-.361-14.083,3.972-1.661,2.528-1.806,5.778-1.878,8.811-.289,9.172-.506,18.416-.794,27.588,0,.939,0,2.094.722,2.672,1.372,1.083,3.178-.433,4.478-1.589,5.417-5.055,13.938-4.694,20.944-2.383s13.505,6.211,20.8,7.439c3.683.65,8.089.289,10.472-2.6,1.878-2.311,2.022-5.705,1.011-8.522a27.91,27.91,0,0,0-4.767-7.583" transform="translate(-166.407 -255.766)"/>
        <path id="XMLID_315_" class="cls-6" d="M273.278,317.5a78.73,78.73,0,0,0-43.765-11.916c-4.117.144-9.172,1.228-10.4,5.2-.867,2.817.867,5.922,3.322,7.583s5.489,2.167,8.378,2.6a161.094,161.094,0,0,0,33.366,1.083c3.828-.289,8.305-1.083,10.039-4.55" transform="translate(-167.042 -269.598)"/>
        <path id="XMLID_314_" class="cls-6" d="M302.544,323.838h-4.478a8.692,8.692,0,0,1-8.666-8.666V302.966a8.692,8.692,0,0,1,8.666-8.666h4.478a8.692,8.692,0,0,1,8.666,8.666v12.205A8.692,8.692,0,0,1,302.544,323.838Z" transform="translate(-186.631 -266.471)"/>
        <g id="XMLID_30_" transform="translate(108.98 161.436)">
          <g id="XMLID_445_">
            <path id="XMLID_464_" class="cls-11" d="M307.111,533.422h-3.755c-.217,0-.361.072-.506.072a1,1,0,0,0-.289.217,1.071,1.071,0,0,0-.072.506.915.915,0,0,0,.072.433,1.51,1.51,0,0,0,.289.433h4.261v1.878h-3.755c-.217,0-.361.072-.506.072a1,1,0,0,0-.289.217,1.336,1.336,0,0,0,0,.867l.217.433h4.261v1.878h-5.994V538.55h.65a3.023,3.023,0,0,1-.578-.867,2,2,0,0,1-.217-.939,1.332,1.332,0,0,1,.289-.939,1.453,1.453,0,0,1,.794-.65,7.954,7.954,0,0,1-.794-1.011,1.589,1.589,0,0,1-.289-.939,2.137,2.137,0,0,1,.144-.722,1.124,1.124,0,0,1,.433-.578,2.258,2.258,0,0,1,.722-.361,4.263,4.263,0,0,1,1.011-.144h3.9v2.022Z" transform="translate(-298.806 -493.773)"/>
            <path id="XMLID_461_" class="cls-11" d="M307.355,524.428a3.855,3.855,0,0,1-.794,2.6,3.093,3.093,0,0,1-2.311.939,3.336,3.336,0,0,1-2.383-.867,3.221,3.221,0,0,1-.867-2.383,2.742,2.742,0,0,1,.722-2.094,3.251,3.251,0,0,1,2.167-.722h.65v4.117a2.135,2.135,0,0,0,.722-.144.74.74,0,0,0,.433-.361.82.82,0,0,0,.217-.578,2.226,2.226,0,0,0,.072-.722,2,2,0,0,0-.072-.65,4.983,4.983,0,0,0-.217-.578l-.217-.433a1,1,0,0,0-.217-.289v-.217h1.517a1.026,1.026,0,0,1,.145.433,4.61,4.61,0,0,1,.144.506c.072.217.072.433.144.65A2.6,2.6,0,0,1,307.355,524.428Zm-3.972-.65a1.332,1.332,0,0,0-.939.289.9.9,0,0,0-.289.794,1.2,1.2,0,0,0,.361.867,1.585,1.585,0,0,0,.867.361Z" transform="translate(-298.833 -491.134)"/>
            <path id="XMLID_458_" class="cls-11" d="M306.461,515.278c.072.144.217.217.289.361a4.419,4.419,0,0,0,.289.433c.072.144.144.361.217.506a1.6,1.6,0,0,1,.072.65,1.638,1.638,0,0,1-.506,1.3,1.8,1.8,0,0,1-1.372.506,1.741,1.741,0,0,1-1.083-.289,1.453,1.453,0,0,1-.65-.794,4.957,4.957,0,0,1-.361-1.228,10.779,10.779,0,0,1-.144-1.517h0a.8.8,0,0,0-.722.361,2.029,2.029,0,0,0-.217,1.083,3.725,3.725,0,0,0,.145.794c.072.289.217.578.289.867v.144h-1.444a7.5,7.5,0,0,1-.217-.867,8.044,8.044,0,0,1-.144-1.228,3.665,3.665,0,0,1,.506-2.239,1.776,1.776,0,0,1,1.589-.722h4.117v1.878Zm-.867,0h-1.228c0,.289.072.578.072.794a1.7,1.7,0,0,0,.144.578.721.721,0,0,0,.289.361,1.026,1.026,0,0,0,.433.144c.289,0,.506-.072.578-.217a1.442,1.442,0,0,0,.144-.65,1.339,1.339,0,0,0-.144-.506A3.14,3.14,0,0,0,305.594,515.278Z" transform="translate(-298.806 -488.773)"/>
            <path id="XMLID_456_" class="cls-11" d="M306.305,508.9v1.878H298V508.9Z" transform="translate(-298 -487.523)"/>
            <path id="XMLID_453_" class="cls-11" d="M304.061,500a3.486,3.486,0,0,1,2.383.722,2.29,2.29,0,0,1,.867,1.805,2.709,2.709,0,0,1-.072.794,4.983,4.983,0,0,1-.289.722h2.528v1.011h-8.233v-1.011h.65a2.6,2.6,0,0,1-.578-.867,2.307,2.307,0,0,1-.217-1.011,1.827,1.827,0,0,1,.794-1.589A3.228,3.228,0,0,1,304.061,500Zm.072,1.011a3.23,3.23,0,0,0-1.589.361,1.188,1.188,0,0,0-.578,1.083,1.456,1.456,0,0,0,.217.794,4.855,4.855,0,0,0,.506.794h3.394c.144-.289.217-.506.289-.65a2,2,0,0,0,.072-.65,1.543,1.543,0,0,0-.578-1.228A2.609,2.609,0,0,0,304.133,501.011Z" transform="translate(-298.861 -485.05)"/>
            <path id="XMLID_450_" class="cls-11" d="M304.15,491.7a3.174,3.174,0,0,1,2.311.722,2.415,2.415,0,0,1,.794,1.95,2.282,2.282,0,0,1-.867,1.95,3.41,3.41,0,0,1-2.311.722,3.174,3.174,0,0,1-2.311-.722,2.473,2.473,0,0,1-.867-1.95,2.667,2.667,0,0,1,.794-1.95A3.818,3.818,0,0,1,304.15,491.7Zm0,1.011a2.777,2.777,0,0,0-1.733.433,1.445,1.445,0,0,0-.578,1.228,1.543,1.543,0,0,0,.578,1.228,2.777,2.777,0,0,0,1.733.433,3.08,3.08,0,0,0,1.733-.433,1.593,1.593,0,0,0,0-2.456A3.08,3.08,0,0,0,304.15,492.711Z" transform="translate(-298.806 -482.745)"/>
            <path id="XMLID_448_" class="cls-11" d="M307.228,487.139a5.612,5.612,0,0,1-.144,1.156,2.41,2.41,0,0,1-.361.867h-1.155v-.072c.072-.072.144-.217.217-.289a1.511,1.511,0,0,1,.289-.433,4.972,4.972,0,0,0,.217-.578,2,2,0,0,0,.072-.65,1.229,1.229,0,0,0-.072-.506,3.011,3.011,0,0,0-.144-.433.564.564,0,0,0-.289-.289c-.072-.072-.217-.072-.433-.072a.82.82,0,0,0-.578.217,1.358,1.358,0,0,0-.289.722,1.837,1.837,0,0,1-.144.505c-.072.217-.072.433-.144.578a2.055,2.055,0,0,1-.65,1.011,1.529,1.529,0,0,1-1.011.289,1.691,1.691,0,0,1-1.3-.578,2.334,2.334,0,0,1-.506-1.589,4.877,4.877,0,0,1,.144-1.011,6.027,6.027,0,0,1,.289-.867h1.083v.072a5.385,5.385,0,0,0-.506.867,2.133,2.133,0,0,0-.144.939,1.716,1.716,0,0,0,.217.867.758.758,0,0,0,.65.361.82.82,0,0,0,.578-.217,1.361,1.361,0,0,0,.289-.65,4.605,4.605,0,0,0,.144-.505c.072-.217.072-.361.144-.578a1.974,1.974,0,0,1,.578-1.011,1.626,1.626,0,0,1,1.083-.361,2.135,2.135,0,0,1,.722.144,1.123,1.123,0,0,1,.578.433,6.358,6.358,0,0,1,.433.722A1.706,1.706,0,0,1,307.228,487.139Z" transform="translate(-298.778 -480.856)"/>
            <path id="XMLID_446_" class="cls-11" d="M306.644,480.528a1.545,1.545,0,0,1-.506,1.3,2.114,2.114,0,0,1-1.517.433H301.3v.65h-.867v-.65H298.7V481.25h1.733v-1.878h.867v1.878h3.539a1.027,1.027,0,0,0,.433-.144.564.564,0,0,0,.289-.289,1.242,1.242,0,0,0,.072-.578,1.41,1.41,0,0,0-.072-.506c-.072-.144-.072-.289-.144-.361V479.3h.939c.072.217.072.361.144.578A1.188,1.188,0,0,1,306.644,480.528Z" transform="translate(-298.194 -479.3)"/>
          </g>
        </g>
        <g id="XMLID_3_" transform="translate(108.258 108.282)">
          <g id="XMLID_425_">
            <path id="XMLID_444_" class="cls-11" d="M300,412.705h3.755c.217,0,.361-.072.506-.072a1,1,0,0,0,.289-.217,1.071,1.071,0,0,0,.072-.506.916.916,0,0,0-.072-.433,1.512,1.512,0,0,0-.289-.433H300v-1.878h3.755c.217,0,.361-.072.506-.072a1,1,0,0,0,.289-.217,1.336,1.336,0,0,0,0-.867l-.217-.433H300V405.7h5.994v1.878h-.65a3.02,3.02,0,0,1,.578.867,2,2,0,0,1,.217.939,1.332,1.332,0,0,1-.289.939,1.453,1.453,0,0,1-.794.65,7.951,7.951,0,0,1,.794,1.011,1.589,1.589,0,0,1,.289.939,2.136,2.136,0,0,1-.144.722,1.123,1.123,0,0,1-.433.578,2.261,2.261,0,0,1-.722.361,4.263,4.263,0,0,1-1.011.144H300Z" transform="translate(-297.833 -405.7)"/>
            <path id="XMLID_441_" class="cls-11" d="M299.8,422.839a3.855,3.855,0,0,1,.794-2.6,3.092,3.092,0,0,1,2.311-.939,3.336,3.336,0,0,1,2.383.867,3.221,3.221,0,0,1,.867,2.383,2.742,2.742,0,0,1-.722,2.094,3.251,3.251,0,0,1-2.167.722h-.65V421.25a2.137,2.137,0,0,0-.722.144.74.74,0,0,0-.433.361.82.82,0,0,0-.217.578,2.226,2.226,0,0,0-.072.722,2,2,0,0,0,.072.65,4.979,4.979,0,0,0,.217.578l.217.433a1,1,0,0,0,.217.289v.217h-1.517a1.026,1.026,0,0,1-.144-.433,4.609,4.609,0,0,1-.144-.506c-.072-.217-.072-.433-.144-.65A1.311,1.311,0,0,1,299.8,422.839Zm3.972.65a1.332,1.332,0,0,0,.939-.289.9.9,0,0,0,.289-.794,1.2,1.2,0,0,0-.361-.867,1.585,1.585,0,0,0-.867-.361v2.311Z" transform="translate(-297.778 -409.478)"/>
            <path id="XMLID_438_" class="cls-11" d="M300.567,432.156c-.072-.144-.217-.217-.289-.361a4.275,4.275,0,0,1-.289-.433c-.072-.144-.144-.361-.217-.506a1.6,1.6,0,0,1-.072-.65,1.638,1.638,0,0,1,.506-1.3,1.8,1.8,0,0,1,1.372-.506,1.74,1.74,0,0,1,1.083.289,1.453,1.453,0,0,1,.65.794,4.957,4.957,0,0,1,.361,1.228,10.773,10.773,0,0,1,.144,1.517h0a.8.8,0,0,0,.722-.361,2.03,2.03,0,0,0,.217-1.083,3.728,3.728,0,0,0-.144-.794c-.072-.289-.217-.578-.289-.867v-.144h1.444a7.493,7.493,0,0,1,.217.867,8.043,8.043,0,0,1,.144,1.228,3.665,3.665,0,0,1-.506,2.239,1.776,1.776,0,0,1-1.589.722h-4.117v-1.878Zm.939,0h1.228c0-.289-.072-.578-.072-.794a1.7,1.7,0,0,0-.144-.578.721.721,0,0,0-.289-.361,1.026,1.026,0,0,0-.433-.144c-.289,0-.506.072-.578.217a1.442,1.442,0,0,0-.144.65,1.339,1.339,0,0,0,.144.506A1.164,1.164,0,0,0,301.506,432.156Z" transform="translate(-297.75 -412.006)"/>
            <path id="XMLID_436_" class="cls-11" d="M300,439.978V438.1h8.378v1.878Z" transform="translate(-297.833 -414.701)"/>
            <path id="XMLID_433_" class="cls-11" d="M302.344,447.755a3.485,3.485,0,0,1-2.383-.722,2.29,2.29,0,0,1-.867-1.805,2.708,2.708,0,0,1,.072-.794,4.98,4.98,0,0,1,.289-.722H297V442.7h8.233v1.011h-.65a2.6,2.6,0,0,1,.578.867,2.306,2.306,0,0,1,.217,1.011,1.827,1.827,0,0,1-.794,1.589A4.106,4.106,0,0,1,302.344,447.755Zm-.072-1.083a3.23,3.23,0,0,0,1.589-.361,1.188,1.188,0,0,0,.578-1.083,1.456,1.456,0,0,0-.217-.794,4.857,4.857,0,0,0-.506-.794h-3.394c-.144.289-.217.506-.289.65a2,2,0,0,0-.072.65,1.543,1.543,0,0,0,.578,1.228A2.487,2.487,0,0,0,302.272,446.672Z" transform="translate(-297 -415.978)"/>
            <path id="XMLID_430_" class="cls-11" d="M303.005,455.844a3.175,3.175,0,0,1-2.311-.722,2.667,2.667,0,0,1-.794-1.95,2.282,2.282,0,0,1,.867-1.95,3.411,3.411,0,0,1,2.311-.722,3.174,3.174,0,0,1,2.311.722,2.473,2.473,0,0,1,.867,1.95,2.667,2.667,0,0,1-.794,1.95A3.819,3.819,0,0,1,303.005,455.844Zm0-1.011a2.777,2.777,0,0,0,1.733-.433,1.445,1.445,0,0,0,.578-1.228,1.543,1.543,0,0,0-.578-1.228,2.777,2.777,0,0,0-1.733-.433,3.08,3.08,0,0,0-1.733.433,1.593,1.593,0,0,0,0,2.456A2.777,2.777,0,0,0,303.005,454.833Z" transform="translate(-297.806 -418.145)"/>
            <path id="XMLID_428_" class="cls-11" d="M299.8,460.822a5.613,5.613,0,0,1,.144-1.156,2.411,2.411,0,0,1,.361-.867h1.156v.072c-.072.072-.144.217-.217.289a1.511,1.511,0,0,1-.289.433,4.977,4.977,0,0,0-.217.578,2,2,0,0,0-.072.65,1.229,1.229,0,0,0,.072.506,3.009,3.009,0,0,0,.144.433.564.564,0,0,0,.289.289c.072.072.217.072.433.072a.82.82,0,0,0,.578-.217,1.357,1.357,0,0,0,.289-.722,1.837,1.837,0,0,1,.144-.506c.072-.217.072-.433.144-.578a2.055,2.055,0,0,1,.65-1.011,1.528,1.528,0,0,1,1.011-.289,1.691,1.691,0,0,1,1.3.578,2.6,2.6,0,0,1,.506,1.589,4.874,4.874,0,0,1-.144,1.011,6.022,6.022,0,0,1-.289.867h-1.083v-.072a5.386,5.386,0,0,0,.506-.867,2.132,2.132,0,0,0,.144-.939,1.716,1.716,0,0,0-.217-.867.759.759,0,0,0-.65-.361.82.82,0,0,0-.578.217,1.361,1.361,0,0,0-.289.65,4.607,4.607,0,0,0-.144.506c-.072.217-.072.361-.144.578a1.974,1.974,0,0,1-.578,1.011,1.625,1.625,0,0,1-1.083.361,2.135,2.135,0,0,1-.722-.145,1.123,1.123,0,0,1-.578-.433,6.353,6.353,0,0,1-.433-.722A2.826,2.826,0,0,1,299.8,460.822Z" transform="translate(-297.778 -420.451)"/>
            <path id="XMLID_426_" class="cls-11" d="M299.9,467.783a1.545,1.545,0,0,1,.506-1.3,2.115,2.115,0,0,1,1.517-.433h3.322v-.65h.867v.65h1.733v1.011h-1.733v1.878h-.867v-1.878h-3.539a1.027,1.027,0,0,0-.433.144.564.564,0,0,0-.289.289,1.242,1.242,0,0,0-.072.578,1.41,1.41,0,0,0,.072.506c.072.144.072.289.144.361v.072h-.939c-.072-.217-.072-.361-.144-.578A1.475,1.475,0,0,1,299.9,467.783Z" transform="translate(-297.806 -422.285)"/>
          </g>
        </g>
      </g>
      <g id="XMLID_1_" transform="translate(144.513 153.926)">
        <path id="XMLID_274_" class="cls-13" d="M415.665,506.743s-3.828-.289-4.044-.289a6.47,6.47,0,0,1-4.189-2.6c-.072-.072-.072-.144-.144-.144a7.728,7.728,0,0,1-1.156-2.6,11.173,11.173,0,0,1-.433-2.239,39.541,39.541,0,0,1,0-5.85v-11.05c0-.433.072-.794.072-1.228v-2.6a9.34,9.34,0,0,0-8.016-9.244H347.2v4.405h4.189a5.98,5.98,0,0,1,5.994,5.994V500.46a5.98,5.98,0,0,1-5.994,5.994H347.2v4.694h68.537Z" transform="translate(-347.2 -468.9)"/>
        <path id="XMLID_273_" class="cls-5" d="M421.477,509.316A7.122,7.122,0,0,1,417,506.86c-.072-.072-.072-.144-.144-.144a9.478,9.478,0,0,1-1.156-2.6,11.173,11.173,0,0,1-.433-2.239,39.537,39.537,0,0,1,0-5.85v-4.333s-3.178-3.394-8.378-8.811c-2.961-3.106-7.944,4.478-10.255,4.478L387.75,479.2h-.578L381.9,514.227h43.4v-4.694C425.3,509.46,421.693,509.388,421.477,509.316Z" transform="translate(-356.84 -471.761)"/>
        <path id="XMLID_268_" class="cls-1" d="M413.433,490.533c0-5.344-3.611-12.133-8.016-12.133s-8.016,6.789-8.016,12.133c0,4.478,2.528,8.233,5.922,9.389l-.794,14.661,6.066.144-1.083-14.805C410.905,498.766,413.433,495.011,413.433,490.533Z" transform="translate(-361.145 -471.539)"/>
        <path id="XMLID_267_" class="cls-1" d="M374.2,479v15.022a5.9,5.9,0,0,0,3.9,5.561l-.939,14.661,5.778.072-.217-.289-1.083-14.3a5.916,5.916,0,0,0,4.189-5.633V479Z" transform="translate(-354.701 -471.706)"/>
        <rect id="XMLID_266_" class="cls-13" width="1.372" height="13.866" transform="translate(21.594 6.644)"/>
        <rect id="XMLID_265_" class="cls-13" width="1.372" height="13.938" transform="translate(24.627 6.572)"/>
        <rect id="XMLID_264_" class="cls-13" width="1.372" height="13.866" transform="translate(27.66 6.644)"/>
        <path id="XMLID_308_" class="cls-13" d="M415.665,506.743s-3.828-.289-4.044-.289a6.47,6.47,0,0,1-4.189-2.6c-.072-.072-.072-.144-.144-.144a7.728,7.728,0,0,1-1.156-2.6,11.173,11.173,0,0,1-.433-2.239,39.541,39.541,0,0,1,0-5.85v-11.05c0-.433.072-.794.072-1.228v-2.6a9.34,9.34,0,0,0-8.016-9.244H347.2v4.405h4.189a5.98,5.98,0,0,1,5.994,5.994V500.46a5.98,5.98,0,0,1-5.994,5.994H347.2v4.694h68.537Z" transform="translate(-347.2 -468.9)"/>
        <path id="XMLID_307_" class="cls-5" d="M421.477,509.316A7.122,7.122,0,0,1,417,506.86c-.072-.072-.072-.144-.144-.144a9.478,9.478,0,0,1-1.156-2.6,11.173,11.173,0,0,1-.433-2.239,39.537,39.537,0,0,1,0-5.85v-4.333s-3.178-3.394-8.378-8.811c-2.961-3.106-7.944,4.478-10.255,4.478L387.75,479.2h-.578L381.9,514.227h43.4v-4.694C425.3,509.46,421.693,509.388,421.477,509.316Z" transform="translate(-356.84 -471.761)"/>
        <path id="XMLID_306_" class="cls-1" d="M413.433,490.533c0-5.344-3.611-12.133-8.016-12.133s-8.016,6.789-8.016,12.133c0,4.478,2.528,8.233,5.922,9.389l-.794,14.661,6.066.144-1.083-14.805C410.905,498.766,413.433,495.011,413.433,490.533Z" transform="translate(-361.145 -471.539)"/>
        <path id="XMLID_305_" class="cls-1" d="M374.2,479v15.022a5.9,5.9,0,0,0,3.9,5.561l-.939,14.661,5.778.072-.217-.289-1.083-14.3a5.916,5.916,0,0,0,4.189-5.633V479Z" transform="translate(-354.701 -471.706)"/>
        <rect id="XMLID_304_" class="cls-13" width="1.372" height="13.866" transform="translate(21.594 6.644)"/>
        <rect id="XMLID_303_" class="cls-13" width="1.372" height="13.938" transform="translate(24.627 6.572)"/>
        <rect id="XMLID_302_" class="cls-13" width="1.372" height="13.866" transform="translate(27.66 6.644)"/>
        <path id="XMLID_335_" class="cls-10" d="M415.665,506.743s-3.828-.289-4.044-.289a6.47,6.47,0,0,1-4.189-2.6c-.072-.072-.072-.144-.144-.144a7.728,7.728,0,0,1-1.156-2.6,11.173,11.173,0,0,1-.433-2.239,39.541,39.541,0,0,1,0-5.85v-11.05c0-.433.072-.794.072-1.228v-2.6a9.34,9.34,0,0,0-8.016-9.244H347.2v4.405h4.189a5.98,5.98,0,0,1,5.994,5.994V500.46a5.98,5.98,0,0,1-5.994,5.994H347.2v4.694h68.537Z" transform="translate(-347.2 -468.9)"/>
        <path id="XMLID_334_" class="cls-5" d="M421.477,509.316A7.122,7.122,0,0,1,417,506.86c-.072-.072-.072-.144-.144-.144a9.478,9.478,0,0,1-1.156-2.6,11.173,11.173,0,0,1-.433-2.239,39.537,39.537,0,0,1,0-5.85v-4.333s-3.178-3.394-8.378-8.811c-2.961-3.106-7.944,4.478-10.255,4.478L387.75,479.2h-.578L381.9,514.227h43.4v-4.694C425.3,509.46,421.693,509.388,421.477,509.316Z" transform="translate(-356.84 -471.761)"/>
        <path id="XMLID_333_" class="cls-1" d="M413.433,490.533c0-5.344-3.611-12.133-8.016-12.133s-8.016,6.789-8.016,12.133c0,4.478,2.528,8.233,5.922,9.389l-.794,14.661,6.066.144-1.083-14.805C410.905,498.766,413.433,495.011,413.433,490.533Z" transform="translate(-361.145 -471.539)"/>
        <path id="XMLID_332_" class="cls-1" d="M374.2,479v15.022a5.9,5.9,0,0,0,3.9,5.561l-.939,14.661,5.778.072-.217-.289-1.083-14.3a5.916,5.916,0,0,0,4.189-5.633V479Z" transform="translate(-354.701 -471.706)"/>
        <rect id="XMLID_331_" class="cls-13" width="1.372" height="13.866" transform="translate(21.594 6.644)"/>
        <rect id="XMLID_330_" class="cls-13" width="1.372" height="13.938" transform="translate(24.627 6.572)"/>
        <rect id="XMLID_329_" class="cls-13" width="1.372" height="13.866" transform="translate(27.66 6.644)"/>
      </g>
    </g>
  </g>
</svg>
