<svg xmlns="http://www.w3.org/2000/svg" xmlns:xlink="http://www.w3.org/1999/xlink" viewBox="0 0 71.311 39.23">
  <defs>
    <style>
      .cls-1, .cls-3 {
        fill: #fff;
      }

      .cls-1 {
        stroke: #707070;
        stroke-width: 0.2px;
      }

      .cls-2 {
        fill: #56b05a;
      }

      .cls-4 {
        stroke: none;
      }

      .cls-5 {
        fill: none;
      }

      .cls-6 {
        filter: url(#Rectangle_1127);
      }
    </style>
    <filter id="Rectangle_1127" x="0" y="0" width="71.311" height="39.23" filterUnits="userSpaceOnUse">
      <feOffset dx="1" dy="1" input="SourceAlpha"/>
      <feGaussianBlur stdDeviation="0.15" result="blur"/>
      <feFlood flood-opacity="0.161"/>
      <feComposite operator="in" in2="blur"/>
      <feComposite in="SourceGraphic"/>
    </filter>
  </defs>
  <g id="Group_538" data-name="Group 538" transform="translate(13026 8534)">
    <g id="Group_537" data-name="Group 537">
      <g class="cls-6" transform="matrix(1, 0, 0, 1, -13026, -8534)">
        <g id="Rectangle_1127-2" data-name="Rectangle 1127" class="cls-1">
          <rect class="cls-4" width="69.86" height="37.78" rx="8"/>
          <rect class="cls-5" x="0.1" y="0.1" width="69.66" height="37.58" rx="7.9"/>
        </g>
      </g>
    </g>
    <g id="verified" transform="translate(-13001.768 -8526.374)">
      <path id="Path_240" data-name="Path 240" class="cls-2" d="M11,22a3.788,3.788,0,0,1-2.593-1.534,3.96,3.96,0,0,0-.977-.852,4.154,4.154,0,0,0-1.382-.106A3.781,3.781,0,0,1,3.2,18.776a3.657,3.657,0,0,1-.709-2.847,4.1,4.1,0,0,0-.106-1.382,3.96,3.96,0,0,0-.852-.977A3.75,3.75,0,0,1,0,11,3.85,3.85,0,0,1,1.529,8.407a3.961,3.961,0,0,0,.852-.977,4.107,4.107,0,0,0,.106-1.382A3.77,3.77,0,0,1,3.22,3.2a3.7,3.7,0,0,1,2.851-.732,4.094,4.094,0,0,0,1.382-.106,3.969,3.969,0,0,0,.977-.852A3.8,3.8,0,0,1,11,0a3.838,3.838,0,0,1,2.593,1.534,3.96,3.96,0,0,0,.977.852,4.107,4.107,0,0,0,1.382.106,3.781,3.781,0,0,1,2.851.732,3.675,3.675,0,0,1,.732,2.847,4.1,4.1,0,0,0,.106,1.382,3.96,3.96,0,0,0,.852.977A3.808,3.808,0,0,1,22,11a3.85,3.85,0,0,1-1.529,2.593,3.96,3.96,0,0,0-.852.977,4.107,4.107,0,0,0-.106,1.382A3.77,3.77,0,0,1,18.78,18.8a3.7,3.7,0,0,1-2.851.732,4.083,4.083,0,0,0-1.382.106,3.969,3.969,0,0,0-.977.852A3.8,3.8,0,0,1,11,22Z"/>
      <path id="Path_241" data-name="Path 241" class="cls-3" d="M161.92,196.807a.9.9,0,0,1-.562-.2l-2.178-1.742a.9.9,0,1,1,1.124-1.4l1.551,1.242,3.35-3.35a.9.9,0,1,1,1.272,1.272l-3.921,3.92A.9.9,0,0,1,161.92,196.807Z" transform="translate(-151.792 -182.714)"/>
    </g>
  </g>
</svg>
