<svg xmlns="http://www.w3.org/2000/svg" viewBox="0 0 17.014 17.014">
  <defs>
    <style>
      .cls-1 {
        fill: #56b05a;
        stroke: #2b972e;
      }

      .cls-2 {
        fill: #fff;
      }
    </style>
  </defs>
  <g id="Group_506" data-name="Group 506" transform="translate(0.5 0.5)">
    <path id="Path_240" data-name="Path 240" class="cls-1" d="M8.007,16.014A2.757,2.757,0,0,1,6.119,14.9a2.883,2.883,0,0,0-.711-.62A3.024,3.024,0,0,0,4.4,14.2a2.752,2.752,0,0,1-2.076-.533,2.662,2.662,0,0,1-.516-2.072,2.988,2.988,0,0,0-.077-1.006,2.883,2.883,0,0,0-.62-.711A2.73,2.73,0,0,1,0,8.007,2.8,2.8,0,0,1,1.113,6.119a2.884,2.884,0,0,0,.62-.711A2.989,2.989,0,0,0,1.811,4.4,2.744,2.744,0,0,1,2.344,2.33,2.693,2.693,0,0,1,4.419,1.8,2.98,2.98,0,0,0,5.425,1.72a2.889,2.889,0,0,0,.711-.62A2.763,2.763,0,0,1,8.007,0,2.794,2.794,0,0,1,9.895,1.117a2.883,2.883,0,0,0,.711.62,2.989,2.989,0,0,0,1.006.077,2.752,2.752,0,0,1,2.076.533,2.675,2.675,0,0,1,.533,2.072A2.988,2.988,0,0,0,14.3,5.425a2.883,2.883,0,0,0,.62.711,2.772,2.772,0,0,1,1.1,1.871A2.8,2.8,0,0,1,14.9,9.895a2.883,2.883,0,0,0-.62.711,2.99,2.99,0,0,0-.077,1.006,2.744,2.744,0,0,1-.533,2.072,2.693,2.693,0,0,1-2.076.533,2.972,2.972,0,0,0-1.006.077,2.889,2.889,0,0,0-.711.62A2.763,2.763,0,0,1,8.007,16.014Z"/>
    <path id="Path_241" data-name="Path 241" class="cls-2" d="M161.212,195.492a.691.691,0,0,1-.433-.151L159.1,194a.692.692,0,0,1,.865-1.08l1.194.956,2.578-2.578a.692.692,0,0,1,.979.979l-3.018,3.018A.691.691,0,0,1,161.212,195.492Z" transform="translate(-153.875 -185.117)"/>
  </g>
</svg>
