<svg id="search" xmlns="http://www.w3.org/2000/svg" width="15.999" height="17.145" viewBox="0 0 15.999 17.145">
  <path id="Path_237" data-name="Path 237" d="M15.911,16.271,12.022,12.1A7.589,7.589,0,0,0,13.7,7.31,7.087,7.087,0,0,0,6.873,0,7.087,7.087,0,0,0,.05,7.31a7.089,7.089,0,0,0,6.823,7.31,6.54,6.54,0,0,0,4.474-1.794l3.889,4.167a.467.467,0,0,0,.337.152.452.452,0,0,0,.337-.152A.54.54,0,0,0,15.911,16.271ZM1,7.31A6.092,6.092,0,0,1,6.87,1.026,6.092,6.092,0,0,1,12.735,7.31,6.1,6.1,0,0,1,6.87,13.6,6.1,6.1,0,0,1,1,7.31Z" transform="translate(-0.05 0)" fill="#7a7e7c"/>
</svg>
