<svg xmlns="http://www.w3.org/2000/svg" viewBox="0 0 33.941 33.94"><defs><style>.a,.b{fill:#56b05a;}.b{stroke:#fff;}.c{stroke:none;}.d{fill:none;}</style></defs><g transform="translate(-1082.586 -842.586)"><g transform="translate(13976.667 11922.664)"><path class="a" d="M212.345,208a4.345,4.345,0,1,0,4.345,4.345A4.349,4.349,0,0,0,212.345,208Zm0,6.758a2.414,2.414,0,1,1,2.414-2.414A2.416,2.416,0,0,1,212.345,214.758Z" transform="translate(-13089.564 -11275.562)"/><path class="a" d="M132.345,288a4.345,4.345,0,1,0,4.345,4.345A4.349,4.349,0,0,0,132.345,288Zm0,6.758a2.414,2.414,0,1,1,2.414-2.414A2.416,2.416,0,0,1,132.345,294.758Z" transform="translate(-13016.806 -11348.32)"/><path class="a" d="M292.345,128a4.345,4.345,0,1,0,4.345,4.345A4.349,4.349,0,0,0,292.345,128Zm0,6.758a2.414,2.414,0,1,1,2.414-2.414A2.416,2.416,0,0,1,292.345,134.758Z" transform="translate(-13162.322 -11202.803)"/><path class="a" d="M116.226,93.7a30.013,30.013,0,0,0-1.444-6.314.964.964,0,0,0-.609-.609,29.974,29.974,0,0,0-6.317-1.444,8.569,8.569,0,0,0-8.2,5.585,3.248,3.248,0,0,1-1.919,1.873,8.579,8.579,0,0,0-4.95,4.95,3.249,3.249,0,0,1-1.872,1.919,8.559,8.559,0,0,0-5.585,8.2,30.635,30.635,0,0,0,1.426,6.326.965.965,0,0,0,.615.614A30.511,30.511,0,0,0,93.7,116.23l.177,0a8.562,8.562,0,0,0,8.019-5.586,3.248,3.248,0,0,1,1.919-1.873,8.579,8.579,0,0,0,4.95-4.95,3.249,3.249,0,0,1,1.872-1.919A8.56,8.56,0,0,0,116.226,93.7Zm-6.257,6.389a5.179,5.179,0,0,0-3,3.041,6.635,6.635,0,0,1-3.834,3.834,5.178,5.178,0,0,0-3.041,3.006,6.722,6.722,0,0,1-6.346,4.325,25.922,25.922,0,0,1-5.3-1.181,25.864,25.864,0,0,1-1.181-5.3,6.627,6.627,0,0,1,4.326-6.348,5.179,5.179,0,0,0,3-3.041A6.635,6.635,0,0,1,98.43,94.6a5.178,5.178,0,0,0,3.041-3.006,6.669,6.669,0,0,1,6.346-4.325,25.451,25.451,0,0,1,5.284,1.195,25.446,25.446,0,0,1,1.195,5.282A6.627,6.627,0,0,1,109.969,100.093Z" transform="translate(-12978 -11164)"/></g><g class="b" transform="translate(1084 845.414) rotate(-45)"><rect class="c" width="2" height="42" rx="1"/><rect class="d" x="-0.5" y="-0.5" width="3" height="43" rx="1.5"/></g></g></svg>