<svg xmlns="http://www.w3.org/2000/svg" viewBox="0 0 27.334 26.471">
  <defs>
    <style>
      .cls-1 {
        fill: #56b05a;
        stroke: #56b05a;
      }
    </style>
  </defs>
  <path id="if_star_115793" class="cls-1" d="M26.194,10.5a1.892,1.892,0,0,0-1.515-1.241L17.838,8.237,14.865,2.063a1.921,1.921,0,0,0-3.438,0L8.454,8.237,1.612,9.254A1.89,1.89,0,0,0,.1,10.5,1.813,1.813,0,0,0,.54,12.373l5.014,5.005L4.391,24.322a1.827,1.827,0,0,0,.779,1.81,1.939,1.939,0,0,0,2.012.108l5.964-3.211,5.965,3.211a1.939,1.939,0,0,0,2.012-.108,1.828,1.828,0,0,0,.778-1.81l-1.163-6.944,5.015-5.005A1.819,1.819,0,0,0,26.194,10.5ZM13.145,16.088c-.421.419-.371-.673-.387-.69l.388-.684h0c-.286-.154.317,0,0,0s-.1.53-.387.684l.387-.684-.387.684c0,.033-.11,1.109-.531.69l.531-.69h0c.625-.093-.269.558,0,0h0L16.12,9.022c.269.558-3.379,6.392-3.362,6.375l11.636-4.315Z" transform="translate(0.521 -0.5)"/>
</svg>
