<svg xmlns="http://www.w3.org/2000/svg" viewBox="0 0 33.837 32.781">
  <defs>
    <style>
      .cls-1 {
        fill: #707070;
      }
    </style>
  </defs>
  <path id="if_star_115793" class="cls-1" d="M33.712,13.221a2.435,2.435,0,0,0-1.95-1.6l-8.8-1.309L19.131,2.368a2.472,2.472,0,0,0-4.424,0L10.88,10.314,2.075,11.623a2.432,2.432,0,0,0-1.948,1.6,2.334,2.334,0,0,0,.568,2.416l6.453,6.442-1.5,8.936a2.352,2.352,0,0,0,1,2.33,2.5,2.5,0,0,0,2.59.139l7.676-4.133L24.6,33.484a2.5,2.5,0,0,0,2.59-.139,2.353,2.353,0,0,0,1-2.33l-1.5-8.936,6.455-6.442A2.341,2.341,0,0,0,33.712,13.221Zm-8.769,7.2a2.343,2.343,0,0,0-.663,2.045l1.5,8.936L18.1,27.269a2.5,2.5,0,0,0-2.363,0L8.06,31.4l1.5-8.936A2.339,2.339,0,0,0,8.9,20.418L2.443,13.976l8.8-1.311a2.438,2.438,0,0,0,1.843-1.341L16.919,3.38l3.828,7.945a2.442,2.442,0,0,0,1.842,1.341L31.4,13.977Z" transform="translate(0 -1)"/>
</svg>
