<svg xmlns="http://www.w3.org/2000/svg" viewBox="0 0 182.343 185.441">
  <defs>
    <style>
      .cls-1 {
        fill: #fff;
      }

      .cls-2 {
        fill: #607c65;
      }

      .cls-3 {
        fill: #313038;
      }

      .cls-4 {
        fill: #90cda1;
      }

      .cls-5 {
        fill: #95c89f;
      }
    </style>
  </defs>
  <g id="Group_421" data-name="Group 421" transform="translate(-40.687 -2566.448)">
    <path id="Path_339" data-name="Path 339" class="cls-1" d="M1051.21,593.429a86.175,86.175,0,1,0-144.718,12.794C934.148,619.439,1009.96,630.2,1051.21,593.429Zm-19.66-45.705a2.5,2.5,0,0,1-3.195-1.514c-.07-.182-2.061-5.121-9.512-5.121-7.628,0-10.228,5.137-10.335,5.355a2.5,2.5,0,0,1-4.524-2.128c.156-.336,3.944-8.228,14.859-8.228,11.079,0,14.1,8.095,14.221,8.439A2.5,2.5,0,0,1,1031.55,547.724Zm-6.69-51.088a2.5,2.5,0,0,1,3.51-.432,41.965,41.965,0,0,1,12.728,16.475,2.5,2.5,0,1,1-4.595,1.968,36.941,36.941,0,0,0-11.21-14.5A2.5,2.5,0,0,1,1024.86,496.636ZM982.812,476.52a2.5,2.5,0,0,1,2.781-2.184c14.4,1.732,27.1,7.578,35.755,16.462a2.5,2.5,0,1,1-3.582,3.488c-7.857-8.067-19.495-13.39-32.771-14.985A2.5,2.5,0,0,1,982.812,476.52Zm-48.971,65.569c-7.628,0-10.228,5.137-10.335,5.355a2.5,2.5,0,0,1-4.524-2.128c.156-.336,3.944-8.228,14.859-8.228,11.079,0,14.1,8.095,14.221,8.439a2.5,2.5,0,1,1-4.709,1.681C943.282,547.028,941.292,542.089,933.841,542.089Zm8.691,41.539a2.5,2.5,0,0,1,4.546-2.08c.225.472,5.96,11.963,27.8,11.963,22.062,0,29.472-11.715,29.776-12.213a2.5,2.5,0,0,1,4.291,2.567c-.355.6-8.995,14.646-34.067,14.646C949.63,598.511,942.811,584.235,942.532,583.628Z" transform="translate(-842.9 2103.887)"/>
    <path id="Path_340" data-name="Path 340" class="cls-2" d="M938.447,637.352c-20.478,1.008-34.154,2.829-34.154,4.908,0,3.171,31.806,5.742,71.039,5.742s71.04-2.571,71.04-5.742c0-2.113-14.143-3.96-35.187-4.956a91.073,91.073,0,0,1-72.738.048Z" transform="translate(-842.9 2103.887)"/>
    <path id="Path_349" data-name="Path 349" class="cls-3" d="M945.707,548.87a2.528,2.528,0,0,0,.841-.146,2.5,2.5,0,0,0,1.514-3.2c-.123-.345-3.142-8.439-14.221-8.439-10.915,0-14.7,7.892-14.859,8.228a2.5,2.5,0,0,0,4.524,2.128c.107-.219,2.707-5.355,10.335-5.355,7.451,0,9.441,4.939,9.512,5.121A2.5,2.5,0,0,0,945.707,548.87Z" transform="translate(-842.9 2103.887)"/>
    <path id="Path_350" data-name="Path 350" class="cls-3" d="M1008.95,583.865a2.5,2.5,0,0,0-4.291-2.567c-.3.5-7.715,12.213-29.776,12.213-21.845,0-27.58-11.491-27.8-11.963a2.5,2.5,0,0,0-4.546,2.08c.278.607,7.1,14.883,32.352,14.883C999.956,598.511,1008.6,584.463,1008.95,583.865Z" transform="translate(-842.9 2103.887)"/>
    <path id="Path_351" data-name="Path 351" class="cls-4" d="M952.018,636.836c7.306-.205,15.145-.318,23.314-.318,7.783,0,15.266.1,22.273.29a86.531,86.531,0,0,0,53.6-43.379C1009.96,630.2,934.148,619.44,906.489,606.223A86.4,86.4,0,0,0,952.018,636.836Z" transform="translate(-842.9 2103.887)"/>
    <path id="Path_352" data-name="Path 352" class="cls-4" d="M952.018,636.836a85.819,85.819,0,0,0,45.588-.029c-7.008-.188-14.49-.29-22.273-.29C967.162,636.518,959.323,636.631,952.018,636.836Z" transform="translate(-842.9 2103.887)"/>
    <path id="Path_353" data-name="Path 353" class="cls-3" d="M1018.84,536.089c-10.915,0-14.7,7.892-14.859,8.228a2.5,2.5,0,0,0,4.524,2.128c.107-.219,2.707-5.355,10.335-5.355,7.451,0,9.441,4.939,9.512,5.121a2.5,2.5,0,0,0,2.354,1.66,2.527,2.527,0,0,0,.841-.146,2.5,2.5,0,0,0,1.514-3.2C1032.94,544.184,1029.92,536.089,1018.84,536.089Z" transform="translate(-842.9 2103.887)"/>
    <path id="Path_354" data-name="Path 354" class="cls-5" d="M984.995,479.3c13.275,1.6,24.913,6.918,32.771,14.985a2.5,2.5,0,0,0,3.582-3.488c-8.652-8.884-21.351-14.729-35.755-16.462a2.5,2.5,0,0,0-.6,4.965Z" transform="translate(-842.9 2103.887)"/>
    <path id="Path_355" data-name="Path 355" class="cls-5" d="M1025.29,500.146a36.941,36.941,0,0,1,11.21,14.5,2.5,2.5,0,1,0,4.595-1.968,41.956,41.956,0,0,0-12.728-16.475,2.5,2.5,0,1,0-3.077,3.941Z" transform="translate(-842.9 2103.887)"/>
    <path id="Path_356" data-name="Path 356" class="cls-3" d="M1065.93,553.732a91.172,91.172,0,1,0-127.486,83.619c3.532-.174,7.275-.322,11.178-.444-18.3-4.575-34.319-13.691-43.189-26.654l-5.2-6.939a44.483,44.483,0,0,0,5.253,2.909,86.166,86.166,0,1,1,144.718-12.794c.364-.325.733-.644,1.093-.977-5.755,24.2-25.177,38.567-48.349,44.552q3.735.133,7.234.3A91.3,91.3,0,0,0,1065.93,553.732Z" transform="translate(-842.9 2103.887)"/>
    <path id="Path_357" data-name="Path 357" class="cls-3" d="M949.625,636.907c-3.9.122-7.646.271-11.178.444a91.073,91.073,0,0,0,72.738-.048q-3.5-.165-7.234-.3A112.821,112.821,0,0,1,949.625,636.907Z" transform="translate(-842.9 2103.887)"/>
    <path id="Path_358" data-name="Path 358" class="cls-3" d="M906.489,606.223a44.483,44.483,0,0,1-5.253-2.909l5.2,6.939c8.87,12.963,24.886,22.079,43.189,26.654q1.187-.038,2.393-.071A86.4,86.4,0,0,1,906.489,606.223Z" transform="translate(-842.9 2103.887)"/>
    <path id="Path_359" data-name="Path 359" class="cls-3" d="M997.6,636.808q3.245.087,6.346.2c23.172-5.984,42.594-20.354,48.349-44.552-.359.333-.729.651-1.093.977A86.534,86.534,0,0,1,997.6,636.808Z" transform="translate(-842.9 2103.887)"/>
    <path id="Path_360" data-name="Path 360" class="cls-3" d="M1003.95,637q-3.1-.109-6.346-.2a85.819,85.819,0,0,1-45.588.029q-1.207.033-2.393.071A112.852,112.852,0,0,0,1003.95,637Z" transform="translate(-842.9 2103.887)"/>
  </g>
</svg>
