<svg xmlns="http://www.w3.org/2000/svg" viewBox="0 0 36.093 29.323"><defs><style>.a{fill:#afafaf;}</style></defs><path class="a" d="M24.116.007V0h1.692l.618.124A6.614,6.614,0,0,1,27.55.439a7.986,7.986,0,0,1,.976.456,9.284,9.284,0,0,1,.856.53,5.268,5.268,0,0,1,.683.566A.948.948,0,0,0,31,2.148a12.493,12.493,0,0,0,1.367-.407q.732-.26,1.448-.586t.872-.413l.163-.1.006-.01.033-.016L34.921.6l.033-.016L34.986.57l.007-.01L35,.553l.01-.007.006-.01.033-.01.033-.007L35.077.57l-.01.049-.016.049-.016.049-.016.033L35,.781,34.986.83a1.133,1.133,0,0,0-.033.13,5.46,5.46,0,0,1-.309.651,8.141,8.141,0,0,1-.732,1.155,5.68,5.68,0,0,1-.788.885q-.351.3-.465.423a1.4,1.4,0,0,1-.277.228l-.163.107-.033.016-.033.016-.006.01-.01.007-.01.007-.007.01-.033.016-.033.016-.006.01-.01.007-.01.007-.007.01-.006.01-.01.007L32,4.563l-.007.01h.163l.911-.2a16.307,16.307,0,0,0,1.741-.472l.879-.293.1-.033.049-.016.033-.016.033-.016.033-.016.033-.016.065-.01.065-.007v.065l-.016.007-.016.01-.006.01-.01.007-.01.007-.007.01-.006.01-.01.007L36,3.619,36,3.629l-.006.01-.01.007-.016.033-.016.033-.01.007-.413.553a4.574,4.574,0,0,1-.439.553q-.033.01-.091.1a9.327,9.327,0,0,1-.69.726A16.381,16.381,0,0,1,33.06,6.776,1.541,1.541,0,0,0,32.441,8q-.01.723-.075,1.634T32.122,11.6a23.472,23.472,0,0,1-.553,2.392,21.749,21.749,0,0,1-.911,2.6,20.285,20.285,0,0,1-1.123,2.278q-.586,1.009-1.074,1.709T27.468,21.9q-.5.618-1.276,1.393t-.846.846q-.075.072-.638.534t-1.2.931a13.929,13.929,0,0,1-1.178.771q-.537.309-1.3.706a15.411,15.411,0,0,1-1.634.742q-.879.342-1.855.635a16.944,16.944,0,0,1-1.888.456q-.911.163-2.067.277l-1.155.114v.016H10.317v-.016l-.277-.016q-.277-.016-.456-.033t-1.351-.179q-1.172-.163-1.839-.325T4.41,28.135a19.317,19.317,0,0,1-2.255-.921q-.934-.462-1.172-.586t-.527-.3L.163,26.15l-.006-.01-.01-.007-.01-.007-.007-.01L.1,26.1l-.033-.016-.006-.01-.01-.007-.01-.007-.007-.01-.006-.01-.01-.007H0v-.065l.033.007.033.01L.212,26q.146.016.8.049t1.383,0a14.553,14.553,0,0,0,1.5-.146A16.866,16.866,0,0,0,5.7,25.516a13.345,13.345,0,0,0,1.914-.657q.869-.384,1.237-.573a12.041,12.041,0,0,0,1.113-.69l.749-.5.007-.01.01-.007.01-.007.006-.01.007-.01.01-.007.01-.007.006-.01.033-.01.033-.007.007-.033.01-.033.01-.007.006-.01-.26-.016-.5-.033a4.893,4.893,0,0,1-.765-.146,7.341,7.341,0,0,1-1.123-.391,8.656,8.656,0,0,1-1.172-.618,5.766,5.766,0,0,1-.823-.6q-.251-.234-.651-.664a6.585,6.585,0,0,1-.69-.888,7.983,7.983,0,0,1-.56-1.051l-.27-.592-.016-.049-.016-.049L4.01,17.8,4,17.77l.049.007.049.01.358.049a7.955,7.955,0,0,0,1.123.033A8.693,8.693,0,0,0,6.639,17.8q.293-.049.358-.065l.065-.016.081-.016.081-.016.007-.01.01-.007.01-.007.006-.01-.065-.016-.065-.016-.065-.016L7,17.591l-.065-.016q-.065-.016-.228-.065t-.879-.358a6.72,6.72,0,0,1-1.139-.6,7.866,7.866,0,0,1-.807-.641,9.21,9.21,0,0,1-.836-.9,6.51,6.51,0,0,1-.814-1.286,7.818,7.818,0,0,1-.537-1.4,7.555,7.555,0,0,1-.234-1.351L1.4,10.284l.033.007.033.01.033.016.033.016.033.016.033.016.5.228a6.364,6.364,0,0,0,1.253.391q.749.163.895.179l.146.016h.293l-.006-.01-.01-.007-.01-.007-.007-.01-.006-.01-.01-.007-.01-.007-.007-.01L4.589,11.1l-.033-.016-.006-.01-.01-.007-.01-.007-.007-.01-.033-.016-.033-.016-.006-.01-.28-.208a4.268,4.268,0,0,1-.56-.53q-.293-.325-.586-.683a5.278,5.278,0,0,1-.521-.765,9.271,9.271,0,0,1-.482-1.035,7.347,7.347,0,0,1-.381-1.26A7.17,7.17,0,0,1,1.5,5.272,7.89,7.89,0,0,1,1.53,4.215a6.913,6.913,0,0,1,.2-.993A7.735,7.735,0,0,1,2.148,2.05l.277-.618.016-.049.016-.049.01-.007.006-.01.007-.01L2.49,1.3l.01.007.006.01.007.01.01.007.01.007.006.01.007.01.01.007.016.033.016.033.01.007.006.01.439.488q.439.488,1.041,1.09a6.12,6.12,0,0,0,.667.625.477.477,0,0,1,.163.15,6.644,6.644,0,0,0,.651.576q.553.456,1.448,1.058T9,6.623a19.371,19.371,0,0,0,2.343,1.058Q12.6,8.153,13.1,8.3t1.725.374q1.22.228,1.839.293t.846.075l.228.007L17.731,9l-.01-.049-.065-.407A7.648,7.648,0,0,1,17.591,7.4,7.469,7.469,0,0,1,17.7,6.053,8,8,0,0,1,18.046,4.8a6.694,6.694,0,0,1,.446-1.019,10.021,10.021,0,0,1,.579-.869A7.017,7.017,0,0,1,20,1.9,6.844,6.844,0,0,1,21.3.976,8.463,8.463,0,0,1,22.652.358,6.293,6.293,0,0,1,23.693.081a3.62,3.62,0,0,0,.423-.075Z" transform="translate(0 0)"/></svg>