<svg xmlns="http://www.w3.org/2000/svg" viewBox="0 0 28.677 23.268">
  <defs>
    <style>
      .cls-1 {
        fill: #fff;
      }
    </style>
  </defs>
  <g id="twitter_1_" data-name="twitter (1)" transform="translate(0 0)">
    <path id="Path_207" data-name="Path 207" class="cls-1" d="M19.161.005V0h1.345L21,.1a5.261,5.261,0,0,1,.892.25,6.349,6.349,0,0,1,.776.362,7.378,7.378,0,0,1,.68.421,4.184,4.184,0,0,1,.543.449.754.754,0,0,0,.742.124,9.936,9.936,0,0,0,1.086-.323q.582-.207,1.151-.465T27.56.589l.129-.077L27.694.5,27.72.491l.026-.013.026-.013L27.8.452,27.8.444,27.81.439l.008-.005.005-.008.026-.008.026-.005L27.87.452l-.008.039-.013.039-.013.039-.013.026L27.81.62,27.8.659a.9.9,0,0,0-.026.1,4.33,4.33,0,0,1-.246.516,6.458,6.458,0,0,1-.582.917,4.509,4.509,0,0,1-.626.7q-.279.24-.37.336a1.11,1.11,0,0,1-.22.181L25.6,3.5l-.026.013-.026.013-.005.008-.008.005-.008.005-.005.008-.026.013-.026.013-.005.008-.008.005-.008.005-.005.008-.005.008-.008.005-.008.005-.005.008h.129l.724-.155A12.97,12.97,0,0,0,27.655,3.1l.7-.232.078-.026.039-.013.026-.013.026-.013.026-.013.026-.013.052-.008.052-.005v.052l-.013.005-.013.008-.005.008-.008.005-.008.005-.005.008-.005.008-.008.005-.008.005-.005.008-.005.008-.008.005-.013.026-.013.026-.008.005-.328.439a3.631,3.631,0,0,1-.349.439q-.026.008-.072.077a7.4,7.4,0,0,1-.548.576,13.008,13.008,0,0,1-.988.9,1.222,1.222,0,0,0-.491.971q-.008.573-.06,1.3t-.194,1.562a18.6,18.6,0,0,1-.44,1.9,17.243,17.243,0,0,1-.724,2.066,16.087,16.087,0,0,1-.892,1.808q-.465.8-.853,1.356t-.789,1.046q-.4.491-1.014,1.105t-.672.671q-.059.057-.507.424t-.957.739a11.067,11.067,0,0,1-.936.612q-.427.245-1.029.56a12.252,12.252,0,0,1-1.3.589q-.7.271-1.474.5a13.477,13.477,0,0,1-1.5.362q-.724.129-1.642.22l-.918.09v.013H8.2v-.013l-.22-.013q-.22-.013-.362-.026t-1.073-.142q-.931-.129-1.461-.258T3.5,22.325a15.359,15.359,0,0,1-1.792-.731Q.97,21.228.781,21.13t-.419-.238L.129,20.75l-.005-.008-.008-.005-.008-.005L.1,20.724l-.026-.013L.052,20.7l-.005-.008-.008-.005L.031,20.68l-.005-.008-.005-.008L.013,20.66H0v-.052l.026.005.026.008.116.013q.116.013.634.039t1.1,0a11.577,11.577,0,0,0,1.189-.116,13.416,13.416,0,0,0,1.435-.31,10.612,10.612,0,0,0,1.52-.522q.69-.3.983-.455a9.57,9.57,0,0,0,.884-.547l.595-.4.005-.008.008-.005.008-.005.005-.008.005-.008.008-.005.008-.005.005-.008.026-.008.026-.005.005-.026.008-.026.008-.005.005-.008L8.43,18.18l-.4-.026a3.892,3.892,0,0,1-.608-.116,5.837,5.837,0,0,1-.892-.31,6.88,6.88,0,0,1-.931-.491,4.581,4.581,0,0,1-.654-.473q-.2-.186-.517-.527a5.226,5.226,0,0,1-.548-.705,6.332,6.332,0,0,1-.445-.834l-.215-.47-.013-.039-.013-.039-.008-.026L3.181,14.1l.039.005.039.008.284.039a6.329,6.329,0,0,0,.892.026,6.916,6.916,0,0,0,.84-.052q.233-.039.284-.052l.052-.013.065-.013.065-.013.005-.008.008-.005.008-.005.005-.008L5.715,14l-.052-.013-.052-.013-.052-.013-.052-.013q-.052-.013-.181-.052t-.7-.284a5.341,5.341,0,0,1-.905-.478,6.249,6.249,0,0,1-.641-.509,7.312,7.312,0,0,1-.665-.718,5.165,5.165,0,0,1-.646-1.02,6.2,6.2,0,0,1-.427-1.11A5.988,5.988,0,0,1,1.158,8.7l-.047-.542.026.005.026.008.026.013.026.013.026.013.026.013.4.181a5.062,5.062,0,0,0,1,.31q.595.129.711.142l.116.013h.233l-.005-.008-.008-.005L3.7,8.853,3.7,8.845l-.005-.008-.008-.005-.008-.005-.005-.008-.026-.013L3.62,8.793l-.005-.008L3.607,8.78,3.6,8.775l-.005-.008-.026-.013-.026-.013-.005-.008-.222-.165a3.389,3.389,0,0,1-.445-.421q-.233-.258-.465-.542A4.188,4.188,0,0,1,1.991,7a7.353,7.353,0,0,1-.383-.821,5.824,5.824,0,0,1-.3-1,5.682,5.682,0,0,1-.116-.994,6.253,6.253,0,0,1,.026-.839,5.479,5.479,0,0,1,.155-.788,6.132,6.132,0,0,1,.336-.93l.22-.491L1.939,1.1l.013-.039.008-.005.005-.008.005-.008.008-.005.008.005.005.008L2,1.054,2,1.059l.008.005.005.008.005.008.008.005.013.026.013.026.008.005.005.008.349.387q.349.387.827.865a4.86,4.86,0,0,0,.53.5.378.378,0,0,1,.129.119,5.276,5.276,0,0,0,.517.457q.44.362,1.151.839t1.577.943a15.4,15.4,0,0,0,1.862.839q1,.374,1.4.491t1.37.3q.97.181,1.461.232t.672.059l.181.005-.005-.039L14.08,7.1l-.052-.323a6.06,6.06,0,0,1-.052-.9,5.919,5.919,0,0,1,.09-1.072,6.342,6.342,0,0,1,.272-.994A5.308,5.308,0,0,1,14.693,3a7.951,7.951,0,0,1,.46-.69,5.571,5.571,0,0,1,.737-.8A5.438,5.438,0,0,1,16.924.775,6.728,6.728,0,0,1,18,.284a5.005,5.005,0,0,1,.827-.22,2.879,2.879,0,0,0,.336-.059Z" transform="translate(0 0)"/>
  </g>
</svg>
