<svg id="Visa_Logo" data-name="Visa Logo" xmlns="http://www.w3.org/2000/svg" viewBox="0 0 43.903 14.214">
  <defs>
    <style>
      .cls-1 {
        fill: #005bac;
      }

      .cls-1, .cls-2 {
        fill-rule: evenodd;
      }

      .cls-2 {
        fill: #f6ac1d;
      }
    </style>
  </defs>
  <g id="形状_1_3_" transform="translate(3.837 0)">
    <g id="形状_1" transform="translate(0)">
      <g id="Group_1" data-name="Group 1">
        <path id="Path_264" data-name="Path 264" class="cls-1" d="M79.208,182.11l-2.234,13.732h3.575l2.235-13.732Zm-5.242,0-3.408,9.445-.4-2.034h0l-.089-.456a11.388,11.388,0,0,0-3.172-4.021,14.3,14.3,0,0,0-1.591-1.1l3.1,11.9h3.725l5.688-13.732Zm13.952,3.812c0-1.553,3.482-1.353,5.012-.51l.51-2.949a10.32,10.32,0,0,0-3.216-.6c-1.774,0-5.987.776-5.987,4.546,0,3.548,4.945,3.592,4.945,5.455s-4.435,1.53-5.9.355l-.532,3.083a10.014,10.014,0,0,0,4.036.776c2.439,0,6.12-1.264,6.12-4.7C92.908,187.807,87.918,187.474,87.918,185.922Zm14.588-3.812H99.632a1.643,1.643,0,0,0-1.65,1.023L92.65,195.842h3.726l.745-2.04h4.545l.419,2.04h3.283Zm-4.354,8.875,1.879-5.139,1.057,5.139Z" transform="translate(-65.303 -181.864)"/>
      </g>
    </g>
  </g>
  <g id="形状_1_2_" transform="translate(0 0.299)">
    <g id="形状_1_1_" transform="translate(0 0)">
      <g id="Group_2" data-name="Group 2">
        <path id="Path_265" data-name="Path 265" class="cls-2" d="M32.543,186.246a1.55,1.55,0,0,0-1.728-1.239H25.076l-.067.233a14.222,14.222,0,0,1,5.406,2.669,10.725,10.725,0,0,1,3.354,4.524Z" transform="translate(-25.009 -185.007)"/>
      </g>
    </g>
  </g>
</svg>
