<svg id="Group_587" data-name="Group 587" xmlns="http://www.w3.org/2000/svg" width="43.838" height="14.214" viewBox="0 0 43.838 14.214">
  <g id="Visa_Logo" data-name="Visa Logo">
    <g id="形状_1_3_" transform="translate(3.831 0)">
      <g id="形状_1" transform="translate(0)">
        <g id="Group_1" data-name="Group 1">
          <path id="Path_264" data-name="Path 264" d="M79.187,182.11l-2.231,13.732h3.57l2.231-13.732Zm-5.235,0-3.4,9.445-.4-2.034h0l-.089-.456a11.386,11.386,0,0,0-3.167-4.021,14.281,14.281,0,0,0-1.588-1.1l3.093,11.9h3.719l5.68-13.732Zm13.932,3.812c0-1.553,3.477-1.353,5-.51l.509-2.949a10.291,10.291,0,0,0-3.211-.6c-1.772,0-5.978.776-5.978,4.546,0,3.548,4.937,3.592,4.937,5.455s-4.428,1.53-5.89.355l-.531,3.083a9.987,9.987,0,0,0,4.03.776c2.436,0,6.111-1.264,6.111-4.7C92.867,187.807,87.885,187.474,87.885,185.922Zm14.567-3.812h-2.87a1.641,1.641,0,0,0-1.648,1.023L92.61,195.842H96.33l.744-2.04h4.538l.419,2.04h3.278ZM98.1,190.984l1.876-5.139,1.055,5.139Z" transform="translate(-65.303 -181.864)" fill="#fff" fill-rule="evenodd"/>
        </g>
      </g>
    </g>
    <g id="形状_1_2_" transform="translate(0 0.299)">
      <g id="形状_1_1_" transform="translate(0 0)">
        <g id="Group_2" data-name="Group 2">
          <path id="Path_265" data-name="Path 265" d="M32.532,186.246a1.549,1.549,0,0,0-1.725-1.239H25.076l-.067.233a14.191,14.191,0,0,1,5.4,2.669,10.725,10.725,0,0,1,3.349,4.524Z" transform="translate(-25.009 -185.007)" fill="#fff" fill-rule="evenodd"/>
        </g>
      </g>
    </g>
  </g>
</svg>
